<svg width="619" height="454" viewBox="0 0 619 454" fill="none" xmlns="http://www.w3.org/2000/svg">
<path d="M269.049 97.8054C248.213 22.22 154.319 -2.1293 100.508 54.3614C99.7349 55.172 98.9636 55.9974 98.1921 56.8347C21.0469 140.695 57.4912 347.351 218.491 399.729C379.489 452.107 546.952 356.46 556.36 270.957C565.767 185.455 491.489 158.588 376.22 182.497C311.095 196.005 282.02 144.86 269.049 97.8054" fill="#ABDDE7"/>
<path d="M402.979 110.735C381.439 114.241 375.469 133.327 392.1 146.865C397.597 151.34 405.449 155.059 416.633 156.913C459.24 163.981 481.848 145.132 464.769 120.692C454.229 105.607 424.327 107.259 402.979 110.735" fill="#ABDDE7"/>
<path d="M59.5136 263.46C46.1224 246.227 26.5084 250.123 22.5849 271.207C21.2875 278.176 21.7823 286.848 25.5079 297.556C39.7 338.345 67.0734 349.169 80.3546 322.475C88.5521 305.999 72.786 280.537 59.5136 263.46" fill="#ABDDE7"/>
<path d="M571.544 280.895C569.56 291.283 578.137 298.64 587.857 294.639C591.069 293.315 594.309 290.764 597.193 286.28C608.175 269.196 602.613 254.542 587.321 256.046C577.885 256.974 573.511 270.6 571.544 280.895" fill="#ABDDE7"/>
<path d="M517.087 171.272C527.44 173.432 534.943 164.981 531.107 155.195C529.839 151.96 527.343 148.676 522.908 145.717C506.015 134.447 491.267 139.757 492.511 155.072C493.279 164.524 506.827 169.131 517.087 171.272" fill="#ABDDE7"/>
<path d="M265.452 60.1065C273.649 66.7892 284.2 62.7398 285.297 52.2851C285.66 48.8305 284.956 44.7665 282.38 40.0985C272.569 22.3172 257.032 20.2465 251.088 34.4145C247.42 43.1598 257.329 53.4838 265.452 60.1065Z" fill="#ABDDE7"/>
<path d="M597.212 332.861C613.651 316.336 626.169 297.661 613.716 294.751C601.251 291.835 580.316 324.38 576.668 354.003L573.017 363.783C576.053 342.241 568.672 316.003 557.864 314.92C547.127 313.847 553.627 330.867 562.155 345.421C568.647 356.503 570.359 365.244 570.787 369.76L553.543 415.952C558.252 381.825 546.559 340.421 529.46 338.711C512.42 337.007 522.733 364.013 536.267 387.108C546.495 404.561 549.247 418.365 549.949 425.579L546.512 434.788C548.016 435.636 549.524 436.472 551.036 437.302L571.551 382.347C575.508 379.392 581.517 375.821 590.073 372.927C606.055 367.521 622.117 358.923 613.301 352.697C605.649 347.296 587.664 357.695 575.275 372.369L582.368 353.365C585.568 347.861 590.117 339.993 597.212 332.861" fill="#373D9C"/>
<path d="M79.0292 117.266C81.1609 97.3055 79.5016 78.0162 69.5683 82.7735C59.626 87.5362 63.1104 120.678 76.6292 142.538L79.4489 151.074C69.8755 134.971 50.774 121.328 42.9339 126.427C35.1432 131.495 48.6828 139.422 62.2573 144.599C72.5901 148.54 78.4505 153.488 81.1735 156.291L94.4927 196.607C79.2599 171.15 49.0869 149.647 36.6817 157.716C24.3197 165.756 45.8041 178.334 67.3421 186.548C83.6188 192.756 92.9084 200.544 97.2683 205.008L99.9245 213.047C101.391 212.806 102.855 212.555 104.318 212.295L88.4708 164.332C89.536 160.214 91.6473 154.576 95.8328 148.02C103.651 135.776 109.803 121.343 100.527 121.915C92.4765 122.411 86.0027 139.09 85.5937 155.624L80.114 139.036C79.2943 133.615 78.1093 125.88 79.0292 117.266" fill="#373D9C"/>
<path d="M486.247 387.759C486.455 388.891 486.696 390.124 486.979 391.436V391.44C489.939 405.201 497.205 427.731 513.556 432.16C513.556 432.16 504.656 385.755 536.376 373.669C568.096 361.584 564.588 350.076 562.776 329.591C560.963 309.107 553.953 305.2 575.963 286.013C597.971 266.825 593.761 238.247 593.761 238.247C593.761 238.247 572.933 270.877 550.687 271.635C528.439 272.392 524.543 291.384 525.491 305.508C526.439 319.631 507.545 321.228 497.321 329.419C487.099 337.612 485.173 380.631 485.173 380.631C485.173 380.631 485.455 383.441 486.247 387.759" fill="#3D89D1"/>
<path d="M486.247 387.759C486.455 388.891 486.696 390.124 486.979 391.436C489.259 384.531 492.469 378.732 495.471 374.28C502.587 363.739 512.607 355.079 521.62 351.68C535.969 346.272 542.976 332.197 544.335 306.043C545.121 290.861 561.004 281.892 561.168 281.805C561.632 281.548 561.801 280.961 561.543 280.497C561.285 280.031 560.699 279.861 560.236 280.119C559.541 280.501 543.252 289.68 542.409 305.941C541.097 331.227 534.476 344.779 520.941 349.88C511.432 353.464 501.312 362.183 493.873 373.201C491.245 377.096 488.463 382 486.247 387.759" fill="#385DB4"/>
<path d="M135.144 431.908H157.433C145.389 429.917 115.529 417.097 112.867 391.392C109.494 358.833 97.9005 359.241 78.365 355.836C58.8297 352.431 53.4479 357.989 41.0443 332.713C28.6407 307.436 0.966125 304.251 0.966125 304.251C0.966125 304.251 26.1891 331.772 21.362 352.688C16.5344 373.603 33.2609 381.956 46.6547 384.584C60.0495 387.212 56.8385 405.213 61.9287 416.775C64.2516 422.051 73.7584 427.52 83.4099 431.908H135.144Z" fill="#385DB4"/>
<path d="M86.8645 399.859C87.838 409.608 93.4448 421.204 101.863 430.875C102.158 431.215 102.466 431.56 102.781 431.908H105.317C104.591 431.143 103.904 430.389 103.264 429.655C95.2115 420.404 89.6355 408.916 88.7104 399.673C87.2412 384.96 75.8703 374.931 51.8391 367.161C37.8907 362.653 33.4849 345.625 33.4448 345.451C33.3203 344.955 32.8156 344.651 32.3197 344.776C31.8203 344.9 31.5161 345.404 31.6407 345.9C31.8251 346.64 36.3255 364.099 51.2661 368.929C74.4979 376.439 85.4771 385.977 86.8645 399.859" fill="#373D9C"/>
<path d="M147.165 371.483C146.693 373.064 146.159 374.787 145.555 376.616L145.553 376.62C139.216 395.799 126.216 428.1 102.208 431.908C102.208 431.908 121.209 365.793 77.8156 343.676C34.4224 321.557 41.1959 305.68 46.9317 276.737C52.6667 247.795 63.2661 243.3 34.8183 212.543C6.37025 181.787 16.7688 141.663 16.7688 141.663C16.7688 141.663 41.4666 191.416 73.088 195.916C104.708 200.416 107.347 228.109 103.823 248.112C100.299 268.113 127.008 273.296 140.333 286.555C153.657 299.812 149.792 361.477 149.792 361.477C149.792 361.477 148.957 365.445 147.165 371.483Z" fill="#3D89D1"/>
<path d="M147.165 371.483C146.693 373.064 146.159 374.787 145.555 376.616C143.361 366.415 139.676 357.647 136.076 350.836C127.547 334.703 114.583 320.808 102.248 314.575C82.6088 304.655 74.776 283.5 76.8593 245.978C78.0708 224.199 56.7912 208.964 56.5713 208.815C55.9489 208.376 55.7973 207.514 56.2364 206.891C56.6755 206.264 57.5391 206.112 58.1609 206.552C59.0907 207.204 80.9172 222.802 79.6208 246.131C77.6047 282.403 84.9677 302.752 103.493 312.112C116.508 318.686 129.603 332.679 138.521 349.543C141.672 355.503 144.889 362.926 147.165 371.483" fill="#385DB4"/>
<path d="M164.377 416.361C164.451 421.386 164.541 426.617 164.651 431.908H213.131C213.223 426.117 213.295 420.567 213.347 415.361C213.493 401.251 213.509 389.637 213.499 382.419C213.493 377.3 213.472 374.397 213.472 374.397L164.036 373.872C164.036 373.872 164.036 378.143 164.075 385.129C164.107 392.892 164.193 404.008 164.377 416.361Z" fill="#2F335D"/>
<path d="M164.075 385.129C164.107 392.892 164.193 404.008 164.377 416.361C179.607 417.524 196.301 417.533 213.347 415.361C213.493 401.251 213.509 389.637 213.499 382.419L164.075 385.129Z" fill="#1C1A2C"/>
<path d="M103.281 405.213C103.335 413.115 103.429 422.168 103.585 431.908H152.069C152.189 426.204 152.285 420.571 152.364 415.188C152.532 403.635 152.617 393.233 152.661 385.755C152.699 378.397 152.699 373.872 152.699 373.872L103.242 374.397C103.242 374.397 103.204 379.64 103.216 388.464C103.216 393.131 103.237 398.791 103.281 405.213" fill="#2F335D"/>
<path d="M103.216 388.464C103.216 393.131 103.237 398.791 103.281 405.213C113.125 408.116 130.751 412.631 152.364 415.188C152.532 403.635 152.617 393.233 152.661 385.755L103.216 388.464" fill="#1C1A2C"/>
<path d="M184.488 113.775C184.488 113.775 192.279 106.272 192.252 98.8613C192.225 91.452 187.189 93.6413 184.488 86.7373C181.785 79.8333 173.755 75.6227 169.351 76.4653C164.945 77.3067 155.648 60.1306 143.036 63.1626C130.424 66.1933 131.523 82.36 126.089 84.7173C120.657 87.0746 122.172 96.6733 125.036 98.8613C127.899 101.052 129.109 109.849 130.721 109.651C132.332 109.452 184.488 113.775 184.488 113.775Z" fill="#2F335D"/>
<path d="M132.055 113.598C132.055 113.598 127.157 107.067 123.515 112.467C119.873 117.867 125.023 133.816 133.939 129.923L132.055 113.598Z" fill="#F25349"/>
<path d="M131.992 124.995C131.663 124.995 131.36 124.777 131.267 124.444C129.885 119.52 124.783 117.524 124.732 117.504C124.344 117.356 124.148 116.92 124.296 116.532C124.443 116.144 124.877 115.948 125.265 116.095C125.504 116.184 131.127 118.367 132.719 124.037C132.831 124.437 132.596 124.853 132.196 124.967C132.128 124.985 132.059 124.995 131.992 124.995" fill="#E43342"/>
<path d="M126.843 122.513C126.703 122.513 126.561 122.475 126.435 122.393C126.085 122.168 125.984 121.701 126.209 121.352C126.248 121.295 127.149 119.917 129.037 119.072C129.416 118.901 129.863 119.072 130.033 119.452C130.203 119.832 130.033 120.277 129.653 120.448C128.193 121.101 127.483 122.159 127.476 122.168C127.333 122.392 127.089 122.513 126.843 122.513" fill="#E43342"/>
<path d="M182.532 113.598C182.532 113.598 187.429 107.067 191.072 112.467C194.713 117.867 189.564 133.816 180.648 129.923L182.532 113.598Z" fill="#F25349"/>
<path d="M182.595 124.995C182.924 124.995 183.227 124.777 183.32 124.444C184.701 119.52 189.804 117.524 189.855 117.504C190.243 117.356 190.439 116.92 190.291 116.532C190.144 116.144 189.709 115.948 189.321 116.095C189.083 116.184 183.46 118.367 181.868 124.037C181.756 124.437 181.991 124.853 182.391 124.967C182.459 124.985 182.528 124.995 182.595 124.995" fill="#E43342"/>
<path d="M187.744 122.513C187.884 122.513 188.025 122.475 188.152 122.393C188.501 122.168 188.603 121.701 188.377 121.352C188.339 121.295 187.437 119.917 185.549 119.072C185.171 118.901 184.723 119.072 184.553 119.452C184.384 119.832 184.553 120.277 184.933 120.448C186.393 121.101 187.104 122.159 187.111 122.168C187.253 122.392 187.497 122.513 187.744 122.513" fill="#E43342"/>
<path d="M169.351 143.452V159.313C169.351 159.313 164.62 167.391 158.223 167.941C151.832 168.499 146.153 160.987 146.153 160.987V144.567L169.351 143.452Z" fill="#F6876F"/>
<path d="M169.351 143.452V150.489C165.057 155.253 157.435 156.443 146.153 154.777V144.567L169.351 143.452Z" fill="#F25349"/>
<path d="M186.073 102.716C185.779 108.88 185.192 116.588 184.016 122.752C183.723 124.289 183.391 125.736 183.021 127.032C179.683 138.72 171.333 158.764 147.96 150.415C137.636 146.729 132.851 135.231 130.719 123.536C129.272 115.593 129.053 107.568 129.159 101.835C129.272 95.9788 132.467 90.6295 137.561 87.7441C151.359 79.9215 165.916 82.8374 175.501 86.5228C182.155 89.0774 186.412 95.6108 186.073 102.716" fill="#F6876F"/>
<path d="M156.808 132.123C172.469 129.435 169.671 138.604 169.569 138.932V138.937C169.564 138.943 169.564 138.943 169.564 138.943C168.504 139.953 167.423 140.803 166.347 141.383C160.279 144.661 159.623 144.167 157.228 144.272C154.793 144.389 151.433 143.667 148.024 141.761C146.963 141.165 145.376 140.013 143.639 138.427C143.639 138.427 141.177 130.016 156.808 132.123V132.123ZM130.721 123.533C130.721 123.533 132.989 137.048 135.131 141.973C137.277 146.9 143.129 147.828 145.328 151.992C148.461 157.928 153.24 162.632 161.1 159.765C167.64 157.38 167.344 154.036 171.008 151.449C177.284 147.017 180.396 142.14 180.649 138.099C180.901 134.057 184.019 122.751 184.019 122.751L180.649 122.513C180.649 122.513 178.729 126.489 175.905 130.869C173.071 124.645 159.416 129.172 159.416 129.172L156.808 130.016L154.131 129.172C154.131 129.172 140.315 124.837 137.585 131.364C135.915 128.808 134.555 125.933 133.939 122.888L130.721 123.533Z" fill="#2F335D"/>
<path d="M147.395 115.667C147.395 117.361 146.523 118.733 145.447 118.733C144.369 118.733 143.497 117.361 143.497 115.667C143.497 113.973 144.369 112.601 145.447 112.601C146.523 112.601 147.395 113.973 147.395 115.667Z" fill="#2F335D"/>
<path d="M170.567 115.667C170.567 117.361 169.695 118.733 168.617 118.733C167.541 118.733 166.668 117.361 166.668 115.667C166.668 113.973 167.541 112.601 168.617 112.601C169.695 112.601 170.567 113.973 170.567 115.667Z" fill="#2F335D"/>
<path d="M176.289 105.572C176.289 105.572 168.236 102.389 162.035 105.068L162.655 108.516C162.655 108.516 171.756 107.747 176.343 109.605C176.752 108.277 176.813 106.936 176.289 105.572Z" fill="#2F335D"/>
<path d="M137.995 105.587C137.995 105.587 146.108 102.381 152.356 105.08L151.731 108.555C151.731 108.555 142.561 107.779 137.941 109.651C137.528 108.313 137.468 106.961 137.995 105.587" fill="#2F335D"/>
<path d="M157.556 128.516C158.827 128.516 160.087 128.021 160.283 127.941C160.667 127.784 160.852 127.344 160.695 126.959C160.539 126.573 160.097 126.389 159.713 126.547C159.032 126.821 157.399 127.255 156.691 126.832C156.555 126.749 156.367 126.587 156.32 126.129C156.048 123.499 156.768 114.679 156.776 114.589C156.809 114.175 156.501 113.811 156.087 113.777C155.669 113.741 155.308 114.052 155.273 114.467C155.244 114.833 154.535 123.516 154.821 126.285C154.929 127.328 155.476 127.861 155.917 128.125C156.399 128.413 156.979 128.516 157.556 128.516" fill="#F25349"/>
<path d="M147.948 133.631C148.521 136.508 150.421 141.804 156.828 141.804C163.249 141.804 165.049 136.966 165.668 133.631H147.948" fill="white"/>
<path d="M186.073 102.716C185.779 108.88 185.192 116.588 184.016 122.752L180.648 122.513C180.648 122.513 181.464 117.309 181.84 113.919C182.217 110.528 182.857 104.189 179.964 103.399C177.077 102.615 178.772 95.3841 174.755 92.2495C170.739 89.1081 161.817 86.3415 155.895 89.9895C149.972 93.6281 143.235 91.6161 140.507 92.2495C137.772 92.8748 134.064 96.6428 135.067 100.161C136.076 103.672 133.063 105.813 132.332 109.452C131.6 113.092 133.936 122.888 133.936 122.888L130.719 123.536C129.272 115.593 129.053 107.568 129.159 101.835C129.272 95.9788 132.467 90.6295 137.561 87.7441C151.359 79.9215 165.916 82.8375 175.501 86.5228C182.155 89.0775 186.412 95.6108 186.073 102.716" fill="#2F335D"/>
<path d="M223.716 398.232C208.469 402.092 193.223 404.589 177.967 405.74C177.275 405.789 176.588 405.84 175.896 405.887C173.799 406.028 171.701 406.145 169.605 406.237C159.228 406.684 148.847 406.509 138.467 405.708C136.373 405.548 134.283 405.363 132.189 405.147C131.52 405.084 130.852 405.013 130.18 404.936C117.785 403.591 105.396 401.355 92.9921 398.232C92.8677 386.805 93.0088 350.684 93.7109 311.511C93.7917 306.803 93.8828 302.051 93.9869 297.292C95.086 245.664 97.2062 193.257 101.02 188.008C104.677 182.984 115.696 176.599 126.231 170.839C126.86 170.496 127.488 170.153 128.112 169.813C130.481 168.528 132.797 167.28 134.975 166.097C139.643 163.556 143.668 161.299 146.156 159.555V160.989C146.156 160.989 151.828 168.497 158.22 167.943C164.047 167.441 168.483 160.711 169.236 159.504C171.984 161.44 176.921 164.108 182.644 167.132C184.237 167.976 185.884 168.84 187.564 169.729C188.183 170.056 188.804 170.385 189.429 170.719C201.08 176.897 213.641 183.864 217.412 189.043C217.695 189.425 217.963 190.068 218.219 190.948C220.449 198.503 221.833 223.573 222.677 253.931C222.681 254.039 222.684 254.149 222.688 254.26C222.724 255.487 222.755 256.724 222.785 257.968C222.792 258.129 222.796 258.293 222.799 258.459C223.075 269.107 223.283 280.317 223.444 291.583C223.457 292.476 223.473 293.369 223.484 294.264C223.488 294.715 223.495 295.157 223.497 295.608C223.535 297.827 223.557 300.044 223.579 302.252C223.601 303.881 223.621 305.508 223.636 307.139C224.056 347.855 223.884 386.261 223.716 398.232" fill="#385DB4"/>
<path d="M222.785 257.968C219.116 251.975 215.177 245.86 211.467 240.449C211.457 240.435 211.447 240.421 211.44 240.409C209.881 238.137 208.365 235.992 206.924 234.033C206.9 233.996 206.876 233.964 206.849 233.932C206.399 233.317 205.952 232.72 205.516 232.139C205.445 232.037 205.391 231.933 205.357 231.823L205.355 231.819C205.237 231.425 205.368 230.989 205.713 230.727C206.161 230.388 206.796 230.475 207.132 230.921C211.588 236.825 217.288 245.315 222.677 253.931C222.681 254.039 222.684 254.149 222.688 254.26C222.724 255.487 222.755 256.724 222.785 257.968" fill="#3948A5"/>
<path d="M217.568 188.209C217.568 188.209 240.561 230.336 254.577 251.685C254.577 251.685 262.548 244.361 272.915 234.567C284.155 223.945 299.527 206.195 299.527 206.195L308.033 216.283C308.033 216.283 273.495 278.436 258.003 286.248C242.511 294.059 213.964 238.771 213.964 238.771L217.568 188.209" fill="#385DB4"/>
<path d="M120.213 354.236C120.2 354.236 120.188 354.236 120.176 354.236C119.601 354.215 119.153 353.733 119.173 353.159C120.38 319.139 102.738 308.117 102.56 308.011C102.069 307.713 101.909 307.076 102.204 306.584C102.498 306.092 103.135 305.931 103.628 306.224C103.823 306.341 108.487 309.175 113.004 316.433C117.127 323.06 121.904 334.824 121.251 353.233C121.232 353.795 120.771 354.236 120.213 354.236" fill="#3948A5"/>
<path d="M195.472 322.186C194.933 322.186 194.477 321.772 194.436 321.227C193.877 314.063 196.237 308.838 199.224 302.222C200.099 300.286 201.001 298.286 201.927 296.04C207.725 281.978 204.812 265.899 204.781 265.739C204.676 265.174 205.048 264.631 205.612 264.526C206.177 264.418 206.72 264.791 206.827 265.356C206.953 266.036 209.881 282.206 203.851 296.834C202.912 299.11 202.001 301.127 201.12 303.078C198.143 309.67 195.992 314.432 196.509 321.066C196.555 321.639 196.125 322.139 195.553 322.183C195.525 322.186 195.499 322.186 195.472 322.186" fill="#3948A5"/>
<path d="M134.973 166.096C135.419 169.445 136.071 173.791 136.783 178.727C137 180.192 137.217 181.712 137.44 183.273C138.163 188.371 138.909 193.917 139.547 199.525C139.719 201.031 139.88 202.541 140.031 204.047C140.592 209.599 141.016 215.115 141.168 220.244C141.219 221.795 141.239 223.309 141.228 224.78C141.219 228.695 141.001 232.292 140.527 235.368C140.223 237.313 139.955 239.213 139.719 241.073C139.521 242.613 139.344 244.129 139.188 245.619C138.581 251.404 138.277 256.789 138.193 261.865C138.167 263.408 138.163 264.917 138.177 266.397C138.223 272.161 138.551 277.532 139.027 282.644C139.167 284.176 139.324 285.681 139.485 287.167C140.107 292.753 140.864 298.073 141.577 303.332C141.784 304.839 141.987 306.339 142.184 307.839C142.492 310.244 142.784 312.648 143.037 315.068C143.305 317.635 143.476 320.636 143.557 323.965C143.597 325.419 143.617 326.94 143.623 328.512C143.643 333.487 143.517 338.999 143.284 344.763C143.224 346.269 143.159 347.795 143.083 349.336C142.825 354.691 142.487 360.196 142.108 365.633C141.997 367.164 141.885 368.685 141.769 370.199C141.349 375.859 140.885 381.369 140.416 386.497C140.273 388.053 140.132 389.575 139.991 391.049C139.449 396.693 138.924 401.708 138.465 405.709C148.847 406.508 159.228 406.685 169.605 406.236C169.848 401.976 170.509 395.105 171.161 387.019C171.283 385.537 171.399 384.012 171.515 382.456C171.904 377.312 172.257 371.816 172.489 366.269C172.556 364.749 172.611 363.223 172.652 361.701C172.808 356.165 172.813 350.664 172.576 345.507C172.505 343.94 172.415 342.409 172.293 340.919C172.172 339.393 172.025 337.908 171.848 336.472C171.348 332.421 171.156 328.531 171.181 324.683C171.187 323.156 171.227 321.64 171.297 320.12C171.535 314.847 172.111 309.561 172.777 303.949C172.955 302.459 173.141 300.943 173.329 299.397C173.929 294.407 174.556 289.111 175.052 283.316C175.183 281.831 175.299 280.311 175.411 278.755C175.753 273.784 175.985 268.444 176.021 262.624C176.031 261.124 176.027 259.592 176.005 258.028C175.951 252.989 175.739 247.6 175.329 241.795C175.293 241.28 175.259 240.759 175.219 240.235C175.141 239.219 175.077 238.193 175.031 237.167C174.763 231.872 174.833 226.427 175.132 220.996C175.213 219.471 175.313 217.944 175.431 216.419C175.849 210.983 176.461 205.597 177.168 200.435C177.375 198.899 177.592 197.379 177.815 195.883C178.664 190.224 179.579 184.9 180.417 180.141C180.695 178.575 180.963 177.069 181.215 175.635C181.785 172.421 182.28 169.557 182.644 167.132C176.92 164.107 171.984 161.439 169.236 159.504C168.484 160.712 164.048 167.441 158.219 167.941C151.828 168.496 146.155 160.989 146.155 160.989V159.555C143.668 161.297 139.641 163.556 134.973 166.096" fill="white"/>
<path d="M136.783 178.727C137 180.192 137.217 181.712 137.44 183.273C143.173 183.404 149.908 182.545 158.021 180.671C166.711 178.671 174.375 179.02 180.417 180.141C180.695 178.575 180.963 177.069 181.215 175.635C174.667 174.427 166.408 174.079 157 176.247C148.993 178.089 142.325 178.939 136.783 178.727Z" fill="#DCD9D7"/>
<path d="M139.547 199.526C139.719 201.031 139.88 202.542 140.031 204.047C145.179 203.911 151.1 203.052 158.021 201.45C165.211 199.794 171.707 199.752 177.168 200.435C177.375 198.899 177.592 197.379 177.815 195.883C171.893 195.151 164.847 195.211 157 197.02C150.281 198.571 144.501 199.419 139.547 199.526Z" fill="#DCD9D7"/>
<path d="M141.168 220.244C141.219 221.795 141.239 223.309 141.228 224.78C146.093 224.552 151.631 223.704 158.021 222.229C164.336 220.773 170.115 220.567 175.132 220.996C175.213 219.471 175.313 217.944 175.431 216.419C170.035 215.975 163.816 216.227 157 217.799C151.004 219.183 145.755 220.005 141.168 220.244Z" fill="#DCD9D7"/>
<path d="M139.188 245.619C144.532 245.559 150.716 244.691 158.021 243.008C164.417 241.532 170.267 241.34 175.329 241.795C175.293 241.28 175.259 240.759 175.219 240.235C175.141 239.219 175.077 238.193 175.031 237.167C169.727 236.768 163.649 237.041 157 238.577C150.357 240.112 144.639 240.952 139.719 241.073C139.521 242.613 139.344 244.129 139.188 245.619" fill="#DCD9D7"/>
<path d="M138.177 266.397C143.749 266.443 150.251 265.58 158.021 263.787C164.725 262.24 170.812 262.093 176.021 262.624C176.031 261.124 176.027 259.592 176.005 258.028C170.479 257.517 164.063 257.729 157 259.356C149.66 261.048 143.445 261.901 138.193 261.865C138.167 263.408 138.163 264.917 138.177 266.397" fill="#DCD9D7"/>
<path d="M139.027 282.644C139.167 284.176 139.324 285.681 139.485 287.167C144.76 287.081 150.852 286.216 158.021 284.565C164.311 283.115 170.065 282.892 175.052 283.316C175.183 281.831 175.299 280.311 175.411 278.755C170.015 278.309 163.805 278.563 157 280.135C150.049 281.736 144.099 282.589 139.027 282.644" fill="#DCD9D7"/>
<path d="M141.577 303.332C141.784 304.839 141.987 306.339 142.184 307.839C146.816 307.551 152.04 306.723 158.021 305.344C163.376 304.106 168.343 303.767 172.777 303.95C172.955 302.459 173.141 300.943 173.329 299.398C168.439 299.175 162.947 299.539 157 300.914C151.176 302.251 146.063 303.071 141.577 303.332" fill="#DCD9D7"/>
<path d="M143.557 323.966C143.597 325.419 143.617 326.94 143.623 328.512C147.892 328.152 152.656 327.36 158.021 326.118C162.745 325.03 167.165 324.638 171.181 324.683C171.187 323.156 171.227 321.64 171.297 320.12C166.937 320.075 162.139 320.504 157 321.692C152.02 322.839 147.553 323.6 143.557 323.966" fill="#DCD9D7"/>
<path d="M143.083 349.336C147.488 348.997 152.424 348.184 158.021 346.896C163.291 345.683 168.185 345.335 172.576 345.507C172.505 343.94 172.415 342.409 172.293 340.919C167.671 340.788 162.532 341.192 157 342.465C151.903 343.641 147.352 344.416 143.284 344.763C143.224 346.269 143.159 347.795 143.083 349.336" fill="#DCD9D7"/>
<path d="M141.769 370.199C146.503 369.932 151.863 369.093 158.021 367.675C163.26 366.467 168.125 366.113 172.489 366.269C172.556 364.749 172.611 363.223 172.652 361.701C167.939 361.54 162.679 361.935 157 363.244C151.408 364.536 146.468 365.34 142.108 365.633C141.997 367.164 141.885 368.685 141.769 370.199Z" fill="#DCD9D7"/>
<path d="M139.991 391.049C145.149 390.917 151.08 390.053 158.021 388.452C162.735 387.365 167.149 386.968 171.161 387.019C171.283 385.537 171.399 384.012 171.515 382.456C167.095 382.391 162.224 382.815 157 384.023C150.671 385.481 145.173 386.315 140.416 386.497C140.273 388.053 140.132 389.575 139.991 391.049" fill="#DCD9D7"/>
<path d="M175.895 405.887C176.587 405.841 177.275 405.791 177.967 405.74C182.057 381.684 179.699 346.369 178.82 335.548C177.911 324.312 179.659 309.864 183.613 295.92C186.685 285.089 184.801 259.976 183.291 239.8C182.867 234.137 182.463 228.787 182.225 224.391C181.452 210.185 186.595 183.895 189.429 170.72C188.803 170.387 188.181 170.057 187.565 169.729C184.725 182.773 179.396 209.66 180.204 224.503C180.447 228.917 180.851 234.277 181.276 239.951C182.776 259.972 184.644 284.883 181.675 295.365C177.653 309.536 175.88 324.243 176.809 335.709C177.684 346.547 180.057 382.083 175.895 405.887Z" fill="#3948A5"/>
<path d="M133.979 308C136.384 322.793 135.625 332.401 134.747 343.521C134.464 347.117 134.171 350.831 133.964 354.932C133.323 367.805 131.144 393.727 130.18 404.937C130.852 405.013 131.519 405.084 132.191 405.149C133.156 393.939 135.337 367.952 135.985 355.033C136.187 350.963 136.48 347.259 136.763 343.683C137.647 332.431 138.415 322.712 135.969 307.677C135.449 304.449 134.893 301.176 134.343 297.917C131.62 281.796 128.801 265.125 130.135 257.139C130.457 255.188 130.872 252.975 131.316 250.631C133.125 240.992 135.384 228.999 134.671 218.591C133.964 208.276 129.736 180.343 128.113 169.815C127.488 170.153 126.861 170.497 126.229 170.84C127.921 181.849 131.968 208.709 132.656 218.728C133.348 228.877 131.12 240.735 129.332 250.256C128.887 252.611 128.468 254.833 128.139 256.805C126.755 265.125 129.472 281.215 132.352 298.255C132.903 301.509 133.453 304.777 133.979 308" fill="#3948A5"/>
<path d="M94.2131 205.164C94.2131 205.164 73.6307 273.803 68.5333 298.264C63.436 322.725 63.0417 373.577 63.0417 373.577C63.0417 373.577 54.0437 392.256 53.8307 400.569C53.6036 409.431 58.2568 416.481 57.726 422.281C57.1948 428.081 64.2552 424.932 62.2609 413.187C60.2661 401.439 65.9251 390.801 68.3672 391.141C70.8099 391.483 66.3464 403.968 68.5151 408.467C70.6828 412.965 73.4901 404.225 76.2817 398.921C79.1797 393.417 79.0104 381.403 77.6912 372.827C76.3724 364.251 91.9188 312.161 91.9932 297.068L111.679 230.548C111.679 230.548 105.175 202.78 94.2131 205.164" fill="#F6876F"/>
<path d="M114.2 228.877C113.503 233.288 111.063 240.861 107.911 250.388V250.393C107.643 251.196 107.37 252.016 107.097 252.849C107.082 252.884 107.067 252.924 107.057 252.965C106.269 255.335 105.445 257.813 104.596 260.381C104.592 260.396 104.586 260.412 104.581 260.427C101.091 271.027 97.226 283.149 93.9823 295.608C92.8656 299.872 91.8255 304.181 90.9011 308.475C89.7188 313.957 88.7188 319.423 87.986 324.773C85.3536 344.045 80.3224 368.457 80.3224 368.457C72.9412 371.488 61.4027 367.487 61.4027 367.487C61.4027 367.487 61.1047 332.331 62.7516 318.671C64.7869 301.781 67.3792 289.757 70.5917 275.956C79.4328 237.971 94.9927 200.804 99.262 190.947C99.6005 190.159 99.8677 189.548 100.055 189.124H103.728C110.957 193.716 116.084 216.995 114.2 228.877" fill="#385DB4"/>
<path d="M60.8027 360.448L61.3812 368.537C61.3812 368.537 72.3527 372.103 80.576 369.591L82.7505 362.376C74.8317 362.796 67.5161 362.6 60.8027 360.448" fill="#3D89D1"/>
<path d="M107.911 250.388V250.393C107.911 250.509 107.891 250.625 107.851 250.743C107.603 251.424 107.349 252.127 107.097 252.849C107.082 252.884 107.067 252.924 107.057 252.965C106.248 255.257 105.425 257.753 104.596 260.381C104.592 260.396 104.586 260.412 104.581 260.427C100.282 274.087 95.912 291.273 93.9016 302.251C93.9219 300.044 93.9473 297.825 93.9823 295.608C92.8656 299.872 91.8255 304.181 90.9011 308.475C91.3151 304.449 92.4667 298.417 94.0375 291.583C97.2109 277.751 102.081 260.619 105.951 250.049C106.143 249.525 106.723 249.256 107.248 249.448C107.658 249.6 107.911 249.979 107.911 250.388" fill="#3948A5"/>
<path d="M476.095 431.908H524.715C524.555 428.535 524.395 425.303 524.239 422.251C523.391 405.601 522.671 394.265 522.671 394.265L483.131 396.023L479.853 396.171L474.036 396.431C474.036 396.431 474.597 406.568 475.471 421.417C475.664 424.702 475.873 428.22 476.095 431.908" fill="#2F335D"/>
<path d="M479.853 396.171L474.036 396.431C474.036 396.431 474.597 406.568 475.471 421.417C490.663 422.684 507.248 423.199 524.239 422.251C523.391 405.601 522.671 394.265 522.671 394.265L483.131 396.023L479.853 396.171" fill="#1C1A2C"/>
<path d="M485.145 431.908C484.257 416.497 483.528 403.333 483.129 396.024L479.851 396.172C480.248 403.448 480.973 416.551 481.86 431.908H485.145" fill="#1C1A2C"/>
<path d="M461.832 431.908C462.081 427.733 462.316 423.774 462.531 420.125C463.368 405.98 463.895 396.431 463.895 396.431L457.581 396.149L454.308 396.001L415.253 394.265C415.253 394.265 414.824 401.023 414.239 411.76C413.927 417.483 413.572 424.343 413.211 431.908H461.832" fill="#2F335D"/>
<path d="M414.239 411.76C424.839 414.252 441.931 417.751 462.531 420.125C463.368 405.979 463.895 396.431 463.895 396.431L457.581 396.149L454.308 396.001L415.253 394.265C415.253 394.265 414.824 401.023 414.239 411.76" fill="#1C1A2C"/>
<path d="M455.572 431.908C456.459 416.536 457.184 403.421 457.581 396.149L454.307 396.003C453.908 403.307 453.179 416.481 452.288 431.908H455.572" fill="#1C1A2C"/>
<path d="M529.731 401.844C519.827 404.571 509.923 406.627 500.02 408.008C496.576 408.491 493.135 408.895 489.693 409.211C485.052 409.64 480.412 409.929 475.773 410.075C468.101 410.309 460.429 410.141 452.753 409.573C437.917 408.488 423.084 405.897 408.245 401.844C408.107 388.009 408.315 338.395 409.353 290.54C409.404 288.393 409.451 286.247 409.504 284.108C409.511 283.655 409.525 283.201 409.535 282.748C409.544 282.253 409.559 281.759 409.572 281.269C409.605 279.751 409.645 278.239 409.683 276.732C409.759 273.657 409.84 270.609 409.928 267.591C409.981 265.787 410.035 263.992 410.088 262.215C410.099 261.845 410.112 261.479 410.123 261.112C410.16 259.94 410.196 258.773 410.233 257.615C410.233 257.615 410.233 257.615 410.233 257.611C410.248 257.251 410.256 256.892 410.271 256.532C410.304 255.464 410.341 254.401 410.375 253.351C410.409 252.453 410.439 251.569 410.469 250.681C411.619 218.4 413.299 192.937 415.704 189.349C419.784 183.263 433.68 175.184 444.857 168.608C448.839 166.269 453.593 163.836 456.316 162.031C460.285 165.227 463.165 168.113 469.049 167.916C475.633 167.691 477.255 163.732 479.765 160.337C481.299 161.332 485.191 164.525 487.213 165.711C488.944 166.732 490.819 167.815 492.775 168.94C495.8 170.671 499.016 172.509 502.2 174.384C506.921 177.164 511.577 180.029 515.437 182.769C519.293 185.508 522.355 188.125 523.869 190.393C526.053 193.673 527.469 214.909 528.379 242.856C528.416 243.833 528.443 244.824 528.48 245.821C528.483 245.943 528.483 246.064 528.483 246.189C528.521 247.203 528.551 248.245 528.575 249.287C528.665 252.432 528.748 255.644 528.836 258.912C528.853 259.6 528.869 260.296 528.88 260.988C528.893 261.509 528.911 262.033 528.915 262.548C528.944 263.892 528.973 265.24 529.004 266.6C529.011 266.872 529.015 267.144 529.021 267.417C529.095 271.003 529.165 274.639 529.229 278.305C529.249 279.377 529.267 280.452 529.284 281.528C530.113 331.839 529.921 386.977 529.731 401.844" fill="#385DB4"/>
<path d="M529.284 281.528L513.6 297.436L498.988 282.624L484.38 297.436L469.715 282.563L455.043 297.436L440.28 282.465L425.515 297.436L409.572 281.269C409.605 279.751 409.645 278.239 409.683 276.732C409.759 273.657 409.84 270.609 409.928 267.591L425.515 251.784L440.28 266.757L455.043 251.784L469.715 266.657L484.38 251.784L498.988 266.596L513.6 251.784L529.021 267.417C529.095 271.003 529.165 274.639 529.229 278.305C529.249 279.377 529.267 280.452 529.284 281.528" fill="#3948A5"/>
<path d="M502.212 363.524C502.211 363.524 502.209 363.524 502.207 363.524C481.208 363.431 463.284 353.875 451.945 345.875C439.683 337.223 432.249 328.456 432.177 328.368C431.817 327.941 431.872 327.304 432.3 326.944C432.727 326.585 433.364 326.64 433.723 327.068C433.796 327.152 441.092 335.752 453.156 344.256C464.248 352.075 481.763 361.413 502.216 361.503C502.775 361.504 503.225 361.96 503.223 362.517C503.22 363.073 502.768 363.524 502.212 363.524" fill="#3948A5"/>
<path d="M489.113 351.103C471.233 347.588 455.407 333.895 454.688 333.265C454.268 332.899 454.225 332.26 454.592 331.84C454.96 331.42 455.597 331.379 456.019 331.745C456.204 331.907 474.829 348.012 493.808 349.745C494.373 349.791 494.775 350.287 494.724 350.843C494.673 351.397 494.181 351.807 493.627 351.756C492.112 351.619 490.605 351.396 489.113 351.103" fill="#3948A5"/>
<path d="M453.304 195.704C452.828 195.704 452.405 195.365 452.312 194.881C452.208 194.333 452.569 193.805 453.117 193.7C478.719 188.843 486.436 172.372 486.511 172.207C486.741 171.697 487.34 171.472 487.848 171.701C488.357 171.932 488.581 172.529 488.352 173.039C488.028 173.755 480.119 190.635 453.493 195.685C453.429 195.697 453.365 195.704 453.304 195.704Z" fill="#3948A5"/>
<path d="M422.067 240.039V240.045C422.043 240.156 421.992 240.267 421.928 240.368C421.545 240.983 421.144 241.619 420.745 242.267C420.725 242.304 420.701 242.335 420.685 242.375C419.405 244.444 418.071 246.705 416.695 249.095C416.693 249.112 416.687 249.123 416.672 249.136C414.525 252.896 412.301 256.972 410.123 261.112C410.16 259.94 410.196 258.773 410.233 257.615C410.233 257.615 410.233 257.615 410.233 257.611C410.248 257.251 410.256 256.892 410.271 256.532C413.783 250.013 417.284 243.915 420.221 239.289C420.524 238.815 421.144 238.681 421.619 238.976C421.985 239.215 422.153 239.639 422.067 240.039" fill="#3948A5"/>
<path d="M551.079 202.591C551.079 202.591 583.817 192.068 593.507 170.584C596.308 164.361 573.223 101.189 573.223 101.189L562.081 101.729C562.081 101.729 565.255 123.647 567.181 136.057C568.763 146.263 571.32 158.455 572.184 162.471C572.371 163.341 572.476 163.825 572.476 163.825C571.929 163.919 571.381 164.025 570.823 164.136C555.527 167.244 535.997 177.207 535.997 177.207L551.079 202.591Z" fill="#F6876F"/>
<path d="M580.7 169.88C581.165 170.219 581.831 170.118 582.165 169.65C582.517 169.174 582.411 168.517 581.935 168.185C579.553 166.455 575.959 164.423 572.184 162.471C572.371 163.342 572.476 163.825 572.476 163.825C571.929 163.919 571.381 164.026 570.823 164.136C574.667 166.111 578.345 168.167 580.7 169.88" fill="#F25349"/>
<path d="M500.983 173.689C500.983 173.689 491.08 196.929 516.292 209.868C533.74 218.823 573.485 195.444 573.485 195.444L559.315 165.357C559.315 165.357 522.949 180.359 500.983 173.689" fill="#385DB4"/>
<path d="M567.52 65.6722C566.532 66.3642 566.735 70.6322 567.168 74.6522C567.029 74.6722 566.888 74.6962 566.745 74.7215C565.573 69.3562 563.24 60.2309 561.244 61.9722C559.937 63.1122 561.688 70.9815 562.879 75.6882C562.633 75.7642 562.385 75.8415 562.139 75.9215C560.636 70.3335 557.397 59.5735 555.241 61.6669C553.803 63.0615 556.564 72.5375 558.097 77.3722C557.883 77.4549 557.675 77.5375 557.469 77.6188C556.003 72.9295 552.869 64.0589 550.723 66.1429C548.779 68.0295 554.349 81.4402 554.349 81.4402L555.808 86.7042C555.808 86.7042 554.073 87.4535 551.364 84.3895C548.656 81.3269 545.417 80.7869 547.667 85.2202C550.209 90.2282 553.972 93.8202 555.629 97.3642C557.285 100.91 562.496 102.082 562.496 102.082L572.959 101.576C572.959 101.576 574.988 83.8909 571.084 75.4615C570.415 70.4509 569.236 64.4682 567.52 65.6722" fill="#F6876F"/>
<path d="M438.067 106.455C438.067 124.277 449.037 136.556 466.852 136.556C484.673 136.556 497.096 123.355 497.096 105.532C497.096 100.617 496.295 96.0282 494.752 91.9682C494.661 91.7255 494.571 91.4841 494.472 91.2508C494.284 90.7881 494.087 90.3282 493.875 89.8815C493.565 89.1935 493.217 88.5202 492.855 87.8695C488.212 79.5228 479.895 74.2148 468.719 74.2148C447.352 74.2148 438.067 88.6335 438.067 106.455" fill="#2F335D"/>
<path d="M442.067 114.128C442.067 114.128 437.116 107.527 433.435 112.985C429.752 118.444 434.959 134.567 443.971 130.631L442.067 114.128Z" fill="#F25349"/>
<path d="M442.003 125.649C441.671 125.649 441.364 125.428 441.269 125.092C439.873 120.115 434.716 118.097 434.664 118.077C434.272 117.927 434.075 117.488 434.223 117.095C434.372 116.703 434.811 116.504 435.204 116.652C435.445 116.744 441.128 118.949 442.737 124.681C442.851 125.085 442.613 125.507 442.208 125.62C442.14 125.639 442.072 125.649 442.003 125.649" fill="#E43342"/>
<path d="M436.799 123.141C436.656 123.141 436.513 123.103 436.385 123.02C436.032 122.792 435.931 122.321 436.157 121.967C436.195 121.908 437.108 120.516 439.017 119.663C439.399 119.491 439.852 119.663 440.024 120.047C440.193 120.431 440.024 120.881 439.639 121.053C438.163 121.713 437.445 122.781 437.439 122.792C437.293 123.019 437.048 123.141 436.799 123.141Z" fill="#E43342"/>
<path d="M493.088 114.128C493.088 114.128 498.04 107.527 501.721 112.985C505.404 118.444 500.197 134.567 491.185 130.631L493.088 114.128Z" fill="#F25349"/>
<path d="M493.153 125.649C493.485 125.649 493.792 125.428 493.887 125.092C495.283 120.115 500.44 118.097 500.492 118.077C500.884 117.927 501.081 117.488 500.932 117.095C500.784 116.703 500.345 116.504 499.952 116.652C499.711 116.744 494.028 118.949 492.419 124.681C492.305 125.085 492.541 125.507 492.947 125.62C493.016 125.639 493.084 125.649 493.153 125.649" fill="#E43342"/>
<path d="M498.359 123.141C498.5 123.141 498.643 123.103 498.769 123.02C499.124 122.792 499.225 122.321 498.997 121.967C498.96 121.908 498.048 120.516 496.139 119.663C495.757 119.491 495.304 119.663 495.133 120.047C494.961 120.431 495.133 120.881 495.517 121.053C496.993 121.713 497.711 122.781 497.717 122.792C497.863 123.019 498.108 123.141 498.359 123.141Z" fill="#E43342"/>
<path d="M479.765 144.305V160.339C479.765 160.339 474.984 168.504 468.517 169.06C462.057 169.624 456.317 162.029 456.317 162.029V145.433L479.765 144.305Z" fill="#F6876F"/>
<path d="M479.765 144.305V151.42C475.425 156.235 467.72 157.437 456.317 155.753V145.433L479.765 144.305Z" fill="#F25349"/>
<path d="M496.669 103.13C496.372 109.36 495.777 117.152 494.589 123.383C494.293 124.936 493.957 126.399 493.584 127.71C490.209 139.523 481.771 159.783 458.143 151.344C447.708 147.619 442.871 135.996 440.716 124.175C439.253 116.147 439.032 108.035 439.139 102.238C439.253 96.3202 442.483 90.9122 447.632 87.9948C461.579 80.0882 476.295 83.0362 485.983 86.7615C492.708 89.3428 497.012 95.9468 496.669 103.13" fill="#F6876F"/>
<path d="M457.447 116.221C457.447 117.932 456.565 119.32 455.476 119.32C454.389 119.32 453.507 117.932 453.507 116.221C453.507 114.509 454.389 113.121 455.476 113.121C456.565 113.121 457.447 114.509 457.447 116.221Z" fill="#2F335D"/>
<path d="M480.669 116.157C480.669 117.868 479.787 119.256 478.699 119.256C477.611 119.256 476.728 117.868 476.728 116.157C476.728 114.445 477.611 113.057 478.699 113.057C479.787 113.057 480.669 114.445 480.669 116.157Z" fill="#2F335D"/>
<path d="M485.121 105.507C485.121 105.507 478.905 103.051 474.119 105.117L474.597 107.78C474.597 107.78 481.623 107.187 485.161 108.62C485.479 107.596 485.525 106.56 485.121 105.507Z" fill="#2F335D"/>
<path d="M448.903 105.507C448.903 105.507 455.119 103.051 459.905 105.117L459.427 107.78C459.427 107.78 452.403 107.187 448.861 108.62C448.545 107.596 448.499 106.56 448.903 105.507Z" fill="#2F335D"/>
<path d="M467.843 129.208C469.128 129.208 470.403 128.708 470.6 128.628C470.988 128.468 471.175 128.024 471.017 127.635C470.859 127.245 470.413 127.057 470.024 127.217C469.336 127.496 467.685 127.935 466.969 127.505C466.831 127.423 466.641 127.259 466.593 126.796C466.319 124.137 467.047 115.221 467.055 115.132C467.088 114.712 466.777 114.344 466.359 114.309C465.937 114.275 465.572 114.587 465.536 115.007C465.507 115.379 464.789 124.153 465.08 126.953C465.188 128.007 465.741 128.547 466.187 128.813C466.675 129.105 467.259 129.208 467.843 129.208" fill="#F25349"/>
<path d="M457.615 133.076C458.881 137.471 462.48 141.855 467.439 141.916C472.392 141.855 475.991 137.471 477.257 133.076H457.615" fill="white"/>
<path d="M467.015 146.689C468.985 146.689 470.657 145.691 470.728 145.648C471.087 145.431 471.203 144.963 470.984 144.603C470.767 144.243 470.299 144.128 469.939 144.345C469.925 144.353 468.551 145.167 467.015 145.167C465.605 145.167 464.256 144.357 464.243 144.349C463.884 144.129 463.415 144.239 463.193 144.597C462.973 144.955 463.084 145.424 463.443 145.645C463.511 145.688 465.153 146.689 467.015 146.689Z" fill="#F25349"/>
<path d="M495.863 114.263H492.412C492.793 110.797 493.34 104.693 490.493 103.819C481.499 101.056 493.155 94.7 489.095 91.5307C485.035 88.356 474.929 89.716 467.903 89.4894C460.832 89.26 449.468 89.36 446.711 90C443.945 90.632 445.461 95.2227 446.473 98.7787C447.495 102.329 443.084 106.26 442.347 109.939C442.135 110.995 442.179 112.563 442.348 114.263H439.471C439.129 109.785 439.077 105.617 439.139 102.237C439.253 96.32 442.483 90.912 447.632 87.9947C461.579 80.088 476.295 83.036 485.983 86.7614C492.708 89.3427 497.012 95.9467 496.669 103.129C496.507 106.543 496.253 110.425 495.863 114.263" fill="#2F335D"/>
<path d="M455.131 109.292C451.116 109.292 447.852 112.558 447.852 116.571C447.852 120.584 451.116 123.85 455.131 123.85C459.143 123.85 462.409 120.584 462.409 116.571C462.409 112.558 459.143 109.292 455.131 109.292ZM455.131 125.195C450.375 125.195 446.507 121.326 446.507 116.571C446.507 111.816 450.375 107.948 455.131 107.948C459.884 107.948 463.752 111.816 463.752 116.571C463.752 121.326 459.884 125.195 455.131 125.195Z" fill="white"/>
<path d="M478.699 109.292C474.685 109.292 471.42 112.558 471.42 116.571C471.42 120.584 474.685 123.85 478.699 123.85C482.712 123.85 485.977 120.584 485.977 116.571C485.977 112.558 482.712 109.292 478.699 109.292ZM478.699 125.195C473.944 125.195 470.076 121.326 470.076 116.571C470.076 111.816 473.944 107.948 478.699 107.948C483.453 107.948 487.321 111.816 487.321 116.571C487.321 121.326 483.453 125.195 478.699 125.195Z" fill="white"/>
<path d="M447.964 113.793C447.793 113.793 447.623 113.729 447.491 113.599C447.452 113.56 443.535 109.76 438.396 110.959C438.035 111.044 437.673 110.819 437.588 110.457C437.505 110.096 437.729 109.735 438.091 109.649C443.968 108.279 448.257 112.467 448.439 112.645C448.7 112.907 448.703 113.333 448.44 113.596C448.309 113.728 448.137 113.793 447.964 113.793" fill="white"/>
<path d="M486.024 113.793C485.804 113.793 485.588 113.687 485.46 113.489C485.256 113.179 485.344 112.763 485.655 112.559C485.912 112.391 492.013 108.455 497.205 109.309C497.572 109.371 497.819 109.716 497.759 110.083C497.699 110.448 497.356 110.696 496.987 110.637C492.313 109.867 486.449 113.647 486.389 113.684C486.276 113.759 486.149 113.793 486.024 113.793" fill="white"/>
<path d="M470.549 114.635C470.535 114.613 468.937 112.453 466.839 112.453C464.759 112.453 463.316 114.609 463.303 114.631L462.176 113.896C462.249 113.783 464.024 111.109 466.839 111.109C469.633 111.109 471.559 113.736 471.639 113.848L470.549 114.635" fill="white"/>
<path d="M419.227 238.772C419.227 238.772 410.143 256.361 399.447 270.293C396.291 274.404 392.997 278.195 389.751 281.121C384.492 285.869 379.363 288.353 375.187 286.247C359.695 278.436 325.159 216.283 325.159 216.283L333.664 206.195C333.664 206.195 349.035 223.945 360.276 234.568C370.643 244.363 378.615 251.687 378.615 251.687C380.049 249.503 381.579 247.109 383.168 244.576C384.859 241.887 386.612 239.04 388.397 236.113C401.341 214.861 415.704 189.349 415.704 189.349L419.227 238.772" fill="#F6876F"/>
<path d="M399.447 270.293C396.291 274.404 392.997 278.195 389.751 281.121L383.168 244.576C384.859 241.887 386.612 239.04 388.397 236.113L399.447 270.293Z" fill="#F25349"/>
<path d="M415.704 189.349L384.659 238.176L395.079 281.121L420.768 239.289C420.768 239.289 423.884 210.671 415.704 189.349" fill="#385DB4"/>
<path d="M376.668 431.908C374.452 419.62 372.265 405.761 370.279 392.304C369.844 389.327 369.416 386.376 368.996 383.465C367.404 372.321 365.98 361.785 364.839 353.043C364.403 349.721 364.012 346.655 363.656 343.919C362.548 335.192 361.897 329.771 361.897 329.771L312.872 331.624L263.696 329.771C263.696 329.771 262.429 340.497 260.4 356.049C260.028 358.88 259.633 361.865 259.217 364.981C258.125 373.144 256.877 382.157 255.535 391.387C255.515 391.521 255.495 391.656 255.475 391.792C255.053 394.668 254.628 397.564 254.187 400.46C254.181 400.5 254.177 400.535 254.167 400.576V400.581C253.115 407.58 252.012 414.569 250.889 421.293C250.429 424.068 249.963 426.795 249.492 429.45C249.347 430.276 249.2 431.095 249.055 431.908H376.668" fill="#385DB4"/>
<path d="M274.997 344.495C274.997 347.047 272.928 349.116 270.376 349.116C267.824 349.116 265.755 347.047 265.755 344.495C265.755 341.943 267.824 339.874 270.376 339.874C272.928 339.874 274.997 341.943 274.997 344.495Z" fill="#3948A5"/>
<path d="M286.463 362.396C286.463 364.948 284.393 367.017 281.843 367.017C279.291 367.017 277.221 364.948 277.221 362.396C277.221 359.844 279.291 357.775 281.843 357.775C284.393 357.775 286.463 359.844 286.463 362.396Z" fill="#3948A5"/>
<path d="M309.023 353.155C309.023 355.707 306.953 357.775 304.401 357.775C301.849 357.775 299.78 355.707 299.78 353.155C299.78 350.603 301.849 348.534 304.401 348.534C306.953 348.534 309.023 350.603 309.023 353.155Z" fill="#3948A5"/>
<path d="M273.417 381.407C273.417 383.959 271.348 386.028 268.796 386.028C266.244 386.028 264.176 383.959 264.176 381.407C264.176 378.855 266.244 376.787 268.796 376.787C271.348 376.787 273.417 378.855 273.417 381.407Z" fill="#3948A5"/>
<path d="M301.607 379.431C301.607 381.983 299.537 384.051 296.985 384.051C294.435 384.051 292.365 381.983 292.365 379.431C292.365 376.879 294.435 374.809 296.985 374.809C299.537 374.809 301.607 376.879 301.607 379.431Z" fill="#3948A5"/>
<path d="M263.405 360.383C263.405 362.788 261.572 364.767 259.217 364.981C259.633 361.865 260.028 358.88 260.4 356.049C262.159 356.705 263.405 358.395 263.405 360.383Z" fill="#3948A5"/>
<path d="M347.544 406.577C347.544 409.129 345.475 411.197 342.923 411.197C340.371 411.197 338.303 409.129 338.303 406.577C338.303 404.027 340.371 401.957 342.923 401.957C345.475 401.957 347.544 404.027 347.544 406.577Z" fill="#3948A5"/>
<path d="M345.36 381.407C345.36 383.959 343.292 386.028 340.741 386.028C338.189 386.028 336.12 383.959 336.12 381.407C336.12 378.855 338.189 376.787 340.741 376.787C343.292 376.787 345.36 378.855 345.36 381.407Z" fill="#3948A5"/>
<path d="M370.279 392.304C369.723 392.539 369.107 392.669 368.465 392.669C365.915 392.669 363.847 390.599 363.847 388.049C363.847 385.499 365.915 383.429 368.465 383.429C368.645 383.429 368.821 383.44 368.996 383.465C369.416 386.376 369.844 389.327 370.279 392.304" fill="#3948A5"/>
<path d="M349.981 425.024C349.981 427.576 347.913 429.644 345.36 429.644C342.808 429.644 340.741 427.576 340.741 425.024C340.741 422.472 342.808 420.404 345.36 420.404C347.913 420.404 349.981 422.472 349.981 425.024Z" fill="#3948A5"/>
<path d="M369.747 417.647C369.747 420.199 367.677 422.268 365.125 422.268C362.573 422.268 360.504 420.199 360.504 417.647C360.504 415.096 362.573 413.028 365.125 413.028C367.677 413.028 369.747 415.096 369.747 417.647Z" fill="#3948A5"/>
<path d="M328.62 431.908C327.789 430.693 326.396 429.893 324.811 429.893C323.228 429.893 321.835 430.693 321.004 431.908H328.62" fill="#3948A5"/>
<path d="M270.376 410.595C270.376 413.147 268.307 415.216 265.755 415.216C263.204 415.216 261.135 413.147 261.135 410.595C261.135 408.044 263.204 405.975 265.755 405.975C268.307 405.975 270.376 408.044 270.376 410.595Z" fill="#3948A5"/>
<path d="M258.185 396C258.185 398.346 256.437 400.284 254.167 400.576C254.177 400.535 254.181 400.5 254.187 400.46C254.628 397.564 255.053 394.668 255.475 391.792C257.073 392.524 258.185 394.132 258.185 396Z" fill="#3948A5"/>
<path d="M252.784 425.02C252.784 427.109 251.396 428.872 249.492 429.449C249.963 426.795 250.429 424.068 250.889 421.293C252.037 422.135 252.784 423.492 252.784 425.02" fill="#3948A5"/>
<path d="M281.843 426.975C281.843 429.528 279.773 431.596 277.221 431.596C274.669 431.596 272.601 429.528 272.601 426.975C272.601 424.422 274.669 422.356 277.221 422.356C279.773 422.356 281.843 424.422 281.843 426.975Z" fill="#3948A5"/>
<path d="M306.227 423.357C306.227 425.909 304.159 427.977 301.607 427.977C299.055 427.977 296.985 425.909 296.985 423.357C296.985 420.805 299.055 418.737 301.607 418.737C304.159 418.737 306.227 420.805 306.227 423.357Z" fill="#3948A5"/>
<path d="M288.831 400.639C288.831 403.192 286.761 405.26 284.209 405.26C281.657 405.26 279.589 403.192 279.589 400.639C279.589 398.087 281.657 396.019 284.209 396.019C286.761 396.019 288.831 398.087 288.831 400.639Z" fill="#3948A5"/>
<path d="M313.643 396.019C313.643 398.571 311.575 400.639 309.023 400.639C306.471 400.639 304.401 398.571 304.401 396.019C304.401 393.468 306.471 391.399 309.023 391.399C311.575 391.399 313.643 393.468 313.643 396.019Z" fill="#3948A5"/>
<path d="M324.811 371.637C324.811 374.189 322.744 376.257 320.192 376.257C317.639 376.257 315.571 374.189 315.571 371.637C315.571 369.084 317.639 367.017 320.192 367.017C322.744 367.017 324.811 369.084 324.811 371.637Z" fill="#3948A5"/>
<path d="M364.839 353.043C364.517 353.119 364.187 353.153 363.847 353.153C361.291 353.153 359.227 351.084 359.227 348.533C359.227 346.048 361.191 344.015 363.656 343.919C364.012 346.655 364.403 349.721 364.839 353.043" fill="#3948A5"/>
<path d="M340.741 353.155C340.741 355.707 338.672 357.775 336.12 357.775C333.568 357.775 331.499 355.707 331.499 353.155C331.499 350.603 333.568 348.534 336.12 348.534C338.672 348.534 340.741 350.603 340.741 353.155Z" fill="#3948A5"/>
<path d="M357.664 369.623C357.664 372.173 355.595 374.243 353.043 374.243C350.491 374.243 348.421 372.173 348.421 369.623C348.421 367.071 350.491 365.001 353.043 365.001C355.595 365.001 357.664 367.071 357.664 369.623Z" fill="#3948A5"/>
<path d="M329.432 410.595C329.432 413.147 327.363 415.216 324.811 415.216C322.259 415.216 320.192 413.147 320.192 410.595C320.192 408.044 322.259 405.975 324.811 405.975C327.363 405.975 329.432 408.044 329.432 410.595Z" fill="#3948A5"/>
<path d="M364.879 330.983C339.016 347.867 291.528 346.544 261.688 330.983C264.539 313.227 268.292 295.451 267.485 271.816C267.395 269.227 267.284 266.651 267.155 264.101C267.039 261.881 266.909 259.677 266.768 257.497C264.193 218.183 257.484 186.036 260.781 181.884C262.219 180.064 264.619 178.1 267.58 176.091C268.743 175.3 269.985 174.499 271.297 173.696C274.393 171.807 277.836 169.904 281.293 168.051C289.495 163.671 297.821 159.608 301.996 156.832C306.135 158.636 309.431 159.623 312.983 159.603C313.079 159.603 313.183 159.603 313.288 159.592C313.384 159.603 313.489 159.603 313.584 159.603C317.137 159.623 320.432 158.636 324.577 156.832C328.449 159.407 335.74 163 343.18 166.917C348.645 169.799 354.193 172.855 358.511 175.821C361.337 177.76 363.645 179.664 365.059 181.447C366.693 183.507 366.007 192.535 364.608 205.912C363.225 219.075 361.156 236.455 359.904 255.559C359.557 260.864 359.272 266.301 359.081 271.816C358.28 295.451 362.027 313.227 364.879 330.983" fill="#3D89D1"/>
<path d="M349.063 311.347C349.061 311.347 349.06 311.347 349.059 311.347C328.232 311.255 310.455 301.779 299.211 293.844C287.049 285.263 279.679 276.569 279.605 276.481C279.249 276.059 279.304 275.425 279.727 275.071C280.151 274.713 280.783 274.768 281.139 275.192C281.211 275.276 288.447 283.805 300.412 292.239C311.412 299.992 328.783 309.253 349.067 309.343C349.62 309.345 350.068 309.796 350.065 310.349C350.063 310.901 349.613 311.347 349.063 311.347" fill="#385DB4"/>
<path d="M335.275 299.223C317.541 295.737 301.845 282.156 301.133 281.532C300.716 281.168 300.673 280.535 301.037 280.119C301.403 279.701 302.035 279.661 302.452 280.024C302.636 280.185 321.108 296.157 339.931 297.875C340.491 297.92 340.888 298.413 340.839 298.964C340.788 299.515 340.301 299.921 339.749 299.871C338.249 299.735 336.753 299.513 335.275 299.223" fill="#385DB4"/>
<path d="M309.021 207.48C308.549 207.48 308.129 207.144 308.037 206.664C307.935 206.12 308.292 205.596 308.835 205.493C334.227 200.675 341.879 184.34 341.953 184.176C342.181 183.672 342.775 183.448 343.28 183.676C343.784 183.904 344.008 184.497 343.78 185.001C343.459 185.712 335.613 202.452 309.209 207.461C309.145 207.473 309.083 207.48 309.021 207.48" fill="#385DB4"/>
<path d="M343.177 166.917C338.139 178.413 325.748 190.317 309.636 187.535C294.033 184.837 286.633 176.585 281.293 168.049C289.497 163.668 297.823 159.611 301.995 156.833C306.135 158.635 309.431 159.621 312.98 159.605C313.077 159.605 313.184 159.605 313.287 159.593C313.383 159.605 313.491 159.605 313.587 159.605C317.136 159.621 320.433 158.635 324.579 156.833C328.449 159.407 335.741 162.999 343.177 166.917" fill="#F6876F"/>
<path d="M329.708 157.675C329.263 157.67 328.909 158.027 328.907 158.467C328.901 159.112 328.639 174.308 314.997 175.485C302.345 176.584 297.108 164.474 295.489 159.448C295.395 159.154 295.123 158.956 294.812 158.956H294.663C294.176 158.956 293.832 159.431 293.985 159.892C295.712 165.076 301.227 177.595 314.116 177.136C314.451 177.123 314.791 177.103 315.135 177.074C330.231 175.771 330.499 158.648 330.5 158.475C330.503 158.036 330.148 157.678 329.708 157.675" fill="white"/>
<path d="M339.351 76.9066C339.351 76.9066 351.541 95.7893 350.205 115.457C348.869 135.125 352.003 157.831 334.404 156.833C316.804 155.835 285.412 163.889 275.435 148.571C265.457 133.251 339.351 76.9066 339.351 76.9066" fill="#2F335D"/>
<path d="M343.868 111.627C343.868 111.627 347.032 140.136 333.505 147.985C319.976 155.835 310.187 147.072 310.187 147.072C310.187 147.072 338.7 107.333 343.868 111.627" fill="#1C1A2C"/>
<path d="M287.676 111.495C287.676 111.495 282.819 105.017 279.207 110.373C275.595 115.729 280.7 131.547 289.544 127.685L287.676 111.495" fill="#F25349"/>
<path d="M287.613 122.797C287.287 122.797 286.987 122.581 286.893 122.252C285.524 117.368 280.464 115.388 280.413 115.369C280.028 115.223 279.833 114.791 279.98 114.405C280.127 114.02 280.557 113.825 280.943 113.972C281.179 114.06 286.755 116.224 288.333 121.848C288.444 122.245 288.212 122.659 287.815 122.769C287.748 122.788 287.68 122.797 287.613 122.797" fill="#E43342"/>
<path d="M282.505 120.337C282.367 120.337 282.227 120.299 282.103 120.219C281.755 119.995 281.655 119.532 281.879 119.185C281.916 119.128 282.811 117.763 284.684 116.924C285.057 116.755 285.501 116.924 285.671 117.301C285.839 117.679 285.671 118.12 285.293 118.288C283.845 118.937 283.141 119.984 283.135 119.995C282.992 120.217 282.751 120.337 282.505 120.337" fill="#E43342"/>
<path d="M337.736 111.495C337.736 111.495 342.592 105.017 346.204 110.373C349.816 115.729 344.711 131.547 335.867 127.685L337.736 111.495" fill="#F25349"/>
<path d="M337.799 122.797C338.125 122.797 338.424 122.581 338.517 122.252C339.888 117.368 344.947 115.388 344.999 115.369C345.383 115.223 345.577 114.791 345.431 114.405C345.285 114.02 344.855 113.825 344.469 113.972C344.232 114.06 338.656 116.224 337.079 121.848C336.968 122.245 337.199 122.659 337.596 122.769C337.664 122.788 337.732 122.797 337.799 122.797Z" fill="#E43342"/>
<path d="M342.905 120.337C343.044 120.337 343.184 120.299 343.308 120.219C343.656 119.995 343.756 119.532 343.532 119.185C343.496 119.128 342.6 117.763 340.728 116.924C340.353 116.755 339.909 116.924 339.741 117.301C339.573 117.679 339.741 118.12 340.117 118.288C341.567 118.937 342.269 119.984 342.276 119.995C342.419 120.217 342.66 120.337 342.905 120.337" fill="#E43342"/>
<path d="M324.663 141.103V156.833C324.663 156.833 319.972 164.845 313.628 165.389C307.289 165.944 301.657 158.492 301.657 158.492V142.208L324.663 141.103" fill="#F6876F"/>
<path d="M324.663 141.103V148.083C320.407 152.807 312.848 154.48 301.66 152.829L301.657 142.208L324.663 141.103Z" fill="#F25349"/>
<path d="M341.248 100.703C340.957 106.816 340.373 114.461 339.207 120.575C338.917 122.099 338.587 123.533 338.221 124.819C334.911 136.409 326.631 156.288 303.449 148.008C293.211 144.353 288.465 132.949 286.351 121.351C284.916 113.475 284.699 105.516 284.804 99.8293C284.916 94.0226 288.084 88.716 293.136 85.8546C306.819 78.0973 321.257 80.9893 330.763 84.6427C337.361 87.176 341.584 93.656 341.248 100.703" fill="#F6876F"/>
<path d="M302.497 112.418C302.497 114.096 301.632 115.458 300.564 115.458C299.496 115.458 298.631 114.096 298.631 112.418C298.631 110.739 299.496 109.378 300.564 109.378C301.632 109.378 302.497 110.739 302.497 112.418Z" fill="#2F335D"/>
<path d="M326.367 112.418C326.367 114.096 325.501 115.458 324.433 115.458C323.367 115.458 322.501 114.096 322.501 112.418C322.501 110.739 323.367 109.378 324.433 109.378C325.501 109.378 326.367 110.739 326.367 112.418Z" fill="#2F335D"/>
<path d="M296.735 103.365C298.341 102.912 301.584 102.137 305.004 102.127C305.904 102.124 306.593 102.924 306.435 103.811L306.431 103.833C306.303 104.54 305.671 105.041 304.952 105.007C302.625 104.899 296.515 105.225 293.629 106.395C293.571 105.893 293.868 105.344 294.288 104.857C294.924 104.119 295.797 103.631 296.735 103.365" fill="#2F335D"/>
<path d="M327.968 103.428C326.361 102.974 323.12 102.199 319.699 102.19C318.799 102.187 318.109 102.987 318.268 103.872L318.272 103.895C318.4 104.603 319.032 105.103 319.751 105.07C322.079 104.962 328.188 105.288 331.073 106.458C331.132 105.956 330.835 105.407 330.416 104.919C329.779 104.18 328.907 103.694 327.968 103.428" fill="#2F335D"/>
<path d="M312.965 126.289C312.393 126.289 311.819 126.189 311.34 125.903C310.904 125.64 310.361 125.111 310.253 124.077C309.969 121.332 310.672 112.721 310.703 112.356C310.736 111.944 311.096 111.639 311.508 111.672C311.92 111.707 312.225 112.068 312.192 112.479C312.185 112.567 311.471 121.315 311.74 123.924C311.787 124.377 311.972 124.539 312.108 124.619C312.809 125.04 314.431 124.611 315.105 124.336C315.487 124.18 315.924 124.364 316.08 124.747C316.235 125.128 316.052 125.564 315.671 125.72C315.476 125.8 314.225 126.289 312.965 126.289" fill="#F25349"/>
<path d="M303.475 131.008C304.04 133.851 305.917 139.082 312.244 139.082C318.584 139.082 320.363 134.302 320.973 131.008H303.475" fill="white"/>
<path d="M312.153 143.441C310.328 143.441 308.716 142.459 308.647 142.417C308.296 142.2 308.188 141.739 308.405 141.388C308.621 141.037 309.08 140.929 309.432 141.144C309.445 141.152 310.76 141.947 312.153 141.947C313.66 141.947 315.009 141.149 315.024 141.14C315.377 140.929 315.836 141.043 316.048 141.396C316.26 141.749 316.148 142.207 315.796 142.42C315.727 142.463 314.087 143.441 312.153 143.441" fill="#F25349"/>
<path d="M344.256 99.4854C344.016 100.167 343.351 100.603 342.459 100.863C342.524 102.511 342.351 104.493 342.188 106.393C341.265 117.195 338.54 119.092 337.924 116.421C337.519 114.647 337.543 104.475 337.739 101.159C335.604 101.019 333.78 100.663 333.78 100.663L331.275 90.1761L330.399 100.532C326.64 101.84 317.872 99.7455 317.872 99.7455L314.932 89.4095L313.113 99.3548C307.476 102.1 300.432 100.272 300.432 100.272L298.813 89.5441L295.076 100.272C295.076 100.272 283.052 104.585 282.921 100.272C282.841 97.7614 284.68 90.6921 286.233 85.2161C287.927 79.2441 291.849 74.1974 297.156 71.3521C312.071 63.3454 327.844 67.6054 333.253 70.8361C344.728 77.6854 344.256 99.4854 344.256 99.4854" fill="#2F335D"/>
<path d="M289.544 77.7053C289.544 77.7053 279.644 89.4786 276.388 110.507C273.132 131.535 268.623 147.072 281.293 154.015C295.007 161.529 293.82 146.117 293.623 141.928C293.424 137.74 281.759 126.289 289.544 94.0413C292.057 83.6306 289.544 77.7053 289.544 77.7053" fill="#2F335D"/>
<path d="M287.231 121.159C287.231 121.159 287.231 121.169 287.231 121.184C287.235 121.339 287.245 122.176 287.305 123.484C287.335 124.296 287.385 125.283 287.461 126.405C287.927 133.489 289.305 145.724 293.353 149.968C294.951 151.647 298.032 152.488 301.66 152.829V147.263C297.836 145.448 294.856 142.468 292.547 138.8C291.119 135.709 288.659 130.869 287.505 123.259L287.231 121.159" fill="#1C1A2C"/>
<path d="M341.427 128.04C341.427 129.008 340.641 129.792 339.676 129.792C338.708 129.792 337.924 129.008 337.924 128.04C337.924 127.073 338.708 126.289 339.676 126.289C340.641 126.289 341.427 127.073 341.427 128.04Z" fill="white"/>
<path d="M377.107 259.936C372.148 274.135 349.937 273.1 324.641 265.339C324.605 265.328 324.569 265.315 324.532 265.306C324.452 265.282 324.376 265.255 324.296 265.232L320.816 264.123C320.336 263.966 319.853 263.806 319.373 263.642C316.647 262.73 313.901 261.743 311.144 260.695C302.107 257.263 292.997 253.195 284.409 248.855L284.469 248.704L287.056 241.986L287.939 239.699C287.939 239.699 334.833 244.808 358.413 239.879C358.813 239.796 359.203 239.712 359.585 239.623C359.493 239.099 359.464 238.566 359.316 238.067C346.823 195.534 360.487 187.379 365.059 181.446C365.059 181.446 386.469 233.135 377.107 259.936" fill="#3D89D1"/>
<path d="M369.465 246.772C369.325 246.839 369.175 246.871 369.028 246.871C368.659 246.871 368.303 246.665 368.129 246.311C366.343 242.652 360.276 240.475 358.413 239.879C358.813 239.796 359.203 239.712 359.585 239.623C359.493 239.099 359.404 238.58 359.316 238.067C361.687 238.849 367.875 241.236 369.924 245.435C370.168 245.928 369.961 246.528 369.465 246.772" fill="#385DB4"/>
<path d="M303.783 244.989C294.212 244.989 286.44 244.44 285.763 244.391C285.212 244.351 284.799 243.871 284.837 243.32C284.879 242.769 285.357 242.36 285.908 242.396C286.261 242.42 321.439 244.911 335.308 239.284C335.819 239.077 336.403 239.321 336.611 239.835C336.817 240.345 336.572 240.928 336.06 241.137C328.383 244.251 314.875 244.989 303.783 244.989Z" fill="#385DB4"/>
<path d="M320.816 264.123C320.819 264.123 320.819 264.123 320.819 264.123C328.845 261.909 336.14 259.752 340.353 258.403C346.201 256.527 351.041 250.615 353.241 245.588C353.461 245.083 354.051 244.852 354.557 245.076C355.064 245.296 355.295 245.885 355.075 246.392C352.693 251.827 347.409 258.24 340.964 260.309C337.907 261.291 333.237 262.689 327.84 264.229C325.54 264.887 323.095 264.849 320.816 264.123" fill="#385DB4"/>
<path d="M342.449 257.247C269.975 281.656 247.679 265.683 247.679 265.683C242.8 221.559 260.779 181.883 260.779 181.883C266.092 190.64 272.097 205.928 272.097 205.928L273.684 239.749L273.564 240.689L273.507 241.133L273.208 243.445L273.2 243.492C273.355 243.525 273.511 243.559 273.667 243.592C295.591 248.217 335.684 243.048 335.684 243.048L342.449 257.247" fill="#3D89D1"/>
<path d="M273.667 243.592C269.755 246.871 266.039 250.651 262.725 254.993C262.392 255.433 261.763 255.52 261.323 255.184C260.883 254.851 260.8 254.224 261.129 253.784C261.133 253.784 261.133 253.78 261.133 253.78C264.856 248.891 269.075 244.705 273.507 241.133L273.208 243.445L273.2 243.492C273.355 243.525 273.511 243.559 273.667 243.592" fill="#385DB4"/>
<path d="M335.684 243.049C335.684 243.049 343.708 224.823 355.907 226.445L359.585 239.624C352.908 242.459 351.931 253.909 342.451 257.247L335.684 243.049Z" fill="#F6876F"/>
<path d="M287.94 239.699C287.94 239.699 282.873 227.805 269.537 224.353C256.203 220.9 247.707 227.185 246.811 229.556C245.916 231.928 251.84 229.661 251.84 229.661C251.84 229.661 247.981 230.753 245.768 234.38C243.555 238.005 251.156 234.093 251.156 234.093C251.156 234.093 245.705 236.481 245.012 238.696C244.319 240.912 251.508 237.169 252.86 237.241C252.86 237.241 246.44 239.793 246.484 242.079C246.527 244.363 253.859 240.637 259.332 240.931C264.807 241.227 273.2 243.493 273.2 243.493C277.68 244.347 281.961 244.976 285.835 245.156L287.94 239.699" fill="#F6876F"/>
<path d="M416.713 39.6802C413.325 39.6802 410.571 42.4362 410.571 45.8242C410.571 49.2109 413.325 51.9669 416.713 51.9669C420.1 51.9669 422.857 49.2109 422.857 45.8242C422.857 42.4362 420.1 39.6802 416.713 39.6802ZM416.713 54.7749C411.777 54.7749 407.761 50.7589 407.761 45.8242C407.761 40.8882 411.777 36.8722 416.713 36.8722C421.649 36.8722 425.665 40.8882 425.665 45.8242C425.665 50.7589 421.649 54.7749 416.713 54.7749Z" fill="#385DB4"/>
<path d="M494.813 24.4717C491.425 24.4717 488.671 27.2264 488.671 30.6144C488.671 34.0011 491.425 36.7571 494.813 36.7571C498.2 36.7571 500.957 34.0011 500.957 30.6144C500.957 27.2264 498.2 24.4717 494.813 24.4717ZM494.813 39.5664C489.877 39.5664 485.861 35.5504 485.861 30.6144C485.861 25.6784 489.877 21.6624 494.813 21.6624C499.749 21.6624 503.765 25.6784 503.765 30.6144C503.765 35.5504 499.749 39.5664 494.813 39.5664Z" fill="#3D89D1"/>
<path d="M505.873 68.6562C505.099 68.6562 504.471 68.0269 504.471 67.2509V61.0589C504.471 60.2829 505.099 59.6549 505.873 59.6549C506.648 59.6549 507.277 60.2829 507.277 61.0589V67.2509C507.277 68.0269 506.648 68.6562 505.873 68.6562Z" fill="#385DB4"/>
<path d="M505.873 79.4922C505.099 79.4922 504.471 78.8629 504.471 78.0882V71.8949C504.471 71.1202 505.099 70.4922 505.873 70.4922C506.648 70.4922 507.277 71.1202 507.277 71.8949V78.0882C507.277 78.8629 506.648 79.4922 505.873 79.4922Z" fill="#385DB4"/>
<path d="M514.565 70.9775H509.003C508.228 70.9775 507.599 70.3495 507.599 69.5735C507.599 68.7975 508.228 68.1695 509.003 68.1695H514.565C515.341 68.1695 515.971 68.7975 515.971 69.5735C515.971 70.3495 515.341 70.9775 514.565 70.9775Z" fill="#385DB4"/>
<path d="M502.745 70.9775H497.183C496.407 70.9775 495.777 70.3495 495.777 69.5735C495.777 68.7975 496.407 68.1695 497.183 68.1695H502.745C503.52 68.1695 504.148 68.7975 504.148 69.5735C504.148 70.3495 503.52 70.9775 502.745 70.9775Z" fill="#385DB4"/>
<path d="M458.591 31.1426C457.816 31.1426 457.188 30.5132 457.188 29.7386V23.5452C457.188 22.7706 457.816 22.1412 458.591 22.1412C459.367 22.1412 459.995 22.7706 459.995 23.5452V29.7386C459.995 30.5132 459.367 31.1426 458.591 31.1426Z" fill="#373D9C"/>
<path d="M458.591 41.9785C457.816 41.9785 457.188 41.3505 457.188 40.5745V34.3825C457.188 33.6065 457.816 32.9785 458.591 32.9785C459.367 32.9785 459.995 33.6065 459.995 34.3825V40.5745C459.995 41.3505 459.367 41.9785 458.591 41.9785Z" fill="#373D9C"/>
<path d="M467.283 33.4653H461.72C460.945 33.4653 460.316 32.836 460.316 32.06C460.316 31.2853 460.945 30.656 461.72 30.656H467.283C468.059 30.656 468.688 31.2853 468.688 32.06C468.688 32.836 468.059 33.4653 467.283 33.4653Z" fill="#373D9C"/>
<path d="M455.463 33.4653H449.9C449.124 33.4653 448.495 32.836 448.495 32.06C448.495 31.2853 449.124 30.656 449.9 30.656H455.463C456.237 30.656 456.865 31.2853 456.865 32.06C456.865 32.836 456.237 33.4653 455.463 33.4653Z" fill="#373D9C"/>
<path d="M99.5661 23.1094C99.5661 26.4961 102.322 29.2521 105.709 29.2521C109.097 29.2521 111.853 26.4961 111.853 23.1094C111.853 19.7214 109.097 16.9654 105.709 16.9654C102.322 16.9654 99.5661 19.7214 99.5661 23.1094ZM96.7579 23.1094C96.7579 18.1721 100.773 14.1574 105.709 14.1574C110.645 14.1574 114.661 18.1721 114.661 23.1094C114.661 28.0454 110.645 32.0601 105.709 32.0601C100.773 32.0601 96.7579 28.0454 96.7579 23.1094Z" fill="#385DB4"/>
<path d="M63.6172 57.2296C63.6172 60.6163 66.3729 63.3723 69.7604 63.3723C73.1478 63.3723 75.9036 60.6163 75.9036 57.2296C75.9036 53.8416 73.1478 51.0856 69.7604 51.0856C66.3729 51.0856 63.6172 53.8416 63.6172 57.2296ZM60.8084 57.2296C60.8084 52.2936 64.825 48.2776 69.7604 48.2776C74.6958 48.2776 78.7125 52.2936 78.7125 57.2296C78.7125 62.1656 74.6958 66.1816 69.7604 66.1816C64.825 66.1816 60.8084 62.1656 60.8084 57.2296Z" fill="#3D89D1"/>
<path d="M42.1979 69.791C42.9735 69.791 43.6021 69.163 43.6021 68.387V62.195C43.6021 61.419 42.9735 60.791 42.1979 60.791C41.4224 60.791 40.7937 61.419 40.7937 62.195V68.387C40.7937 69.163 41.4224 69.791 42.1979 69.791Z" fill="#385DB4"/>
<path d="M42.1979 80.6279C42.9735 80.6279 43.6021 79.9999 43.6021 79.2226V73.0306C43.6021 72.2559 42.9735 71.6266 42.1979 71.6266C41.4224 71.6266 40.7937 72.2559 40.7937 73.0306V79.2226C40.7937 79.9999 41.4224 80.6279 42.1979 80.6279Z" fill="#385DB4"/>
<path d="M33.5057 72.1133H39.0683C39.8437 72.1133 40.4729 71.4839 40.4729 70.7093C40.4729 69.9333 39.8437 69.3053 39.0683 69.3053H33.5057C32.7307 69.3053 32.1016 69.9333 32.1016 70.7093C32.1016 71.4839 32.7307 72.1133 33.5057 72.1133Z" fill="#385DB4"/>
<path d="M45.3265 72.1133H50.8901C51.6651 72.1133 52.2937 71.4839 52.2937 70.7093C52.2937 69.9333 51.6651 69.3053 50.8901 69.3053H45.3265C44.5516 69.3053 43.9235 69.9333 43.9235 70.7093C43.9235 71.4839 44.5516 72.1133 45.3265 72.1133" fill="#385DB4"/>
<path d="M74.5531 22.1904C75.3281 22.1904 75.9573 21.5611 75.9573 20.7864V14.5944C75.9573 13.8184 75.3281 13.1904 74.5531 13.1904C73.7781 13.1904 73.1489 13.8184 73.1489 14.5944V20.7864C73.1489 21.5611 73.7781 22.1904 74.5531 22.1904Z" fill="#373D9C"/>
<path d="M74.5531 33.0283C75.3281 33.0283 75.9573 32.399 75.9573 31.623V25.431C75.9573 24.6563 75.3281 24.027 74.5531 24.027C73.7781 24.027 73.1489 24.6563 73.1489 25.431V31.623C73.1489 32.399 73.7781 33.0283 74.5531 33.0283Z" fill="#373D9C"/>
<path d="M65.8615 24.5137H71.424C72.1989 24.5137 72.8281 23.8843 72.8281 23.1097C72.8281 22.3337 72.1989 21.7043 71.424 21.7043H65.8615C65.086 21.7043 64.4573 22.3337 64.4573 23.1097C64.4573 23.8843 65.086 24.5137 65.8615 24.5137Z" fill="#373D9C"/>
<path d="M77.6823 24.5137H83.2448C84.0203 24.5137 84.6489 23.8843 84.6489 23.1097C84.6489 22.3337 84.0203 21.7043 83.2448 21.7043H77.6823C76.9068 21.7043 76.2781 22.3337 76.2781 23.1097C76.2781 23.8843 76.9068 24.5137 77.6823 24.5137Z" fill="#373D9C"/>
<path d="M342.252 23.7522C342.091 23.7696 341.923 23.7469 341.761 23.6789C340.057 22.9603 339.059 22.6242 339.048 22.6216C338.527 22.4469 338.245 21.8829 338.417 21.3602C338.593 20.8376 339.157 20.5562 339.68 20.7296C339.723 20.7442 340.752 21.0896 342.536 21.8416C343.044 22.0563 343.283 22.6403 343.068 23.1483C342.921 23.4949 342.603 23.7162 342.252 23.7522" fill="#ABDDE7"/>
<path d="M393.065 77.2295C393.744 79.0388 394.379 80.9041 394.953 82.7748C395.096 83.2388 395.545 83.5228 396.011 83.4735C396.073 83.4681 396.137 83.4548 396.199 83.4348C396.725 83.2735 397.023 82.7161 396.86 82.1894C396.273 80.2801 395.625 78.3761 394.933 76.5295C394.74 76.0148 394.168 75.7535 393.649 75.9468C393.135 76.1401 392.872 76.7148 393.065 77.2295" fill="#ABDDE7"/>
<path d="M396.507 88.4241C396.964 90.2975 397.377 92.2255 397.735 94.1561C397.829 94.6708 398.305 95.0201 398.819 94.9668C398.844 94.9628 398.869 94.9601 398.897 94.9548C399.437 94.8548 399.796 94.3335 399.695 93.7935C399.331 91.8268 398.911 89.8615 398.444 87.9521C398.313 87.4175 397.773 87.0895 397.24 87.2201C396.704 87.3495 396.376 87.8895 396.507 88.4241Z" fill="#ABDDE7"/>
<path d="M400.712 118.533C401.207 118.481 401.595 118.067 401.603 117.557C401.635 115.556 401.62 113.549 401.56 111.591C401.544 111.04 401.083 110.608 400.533 110.624C399.975 110.644 399.551 111.101 399.568 111.651C399.625 113.58 399.639 115.556 399.609 117.527C399.601 118.077 400.04 118.529 400.591 118.539C400.632 118.54 400.672 118.537 400.712 118.533Z" fill="#ABDDE7"/>
<path d="M399.505 98.8308C398.959 98.9014 398.573 99.4028 398.644 99.9481C398.761 100.849 398.868 101.76 398.963 102.655C399.072 103.688 399.169 104.741 399.251 105.787C399.293 106.335 399.773 106.745 400.323 106.703C400.332 106.701 400.341 106.7 400.351 106.7C400.885 106.643 401.281 106.169 401.239 105.631C401.155 104.567 401.057 103.496 400.945 102.445C400.851 101.535 400.741 100.609 400.621 99.6908C400.552 99.1534 400.065 98.7721 399.528 98.8281C399.521 98.8294 399.512 98.8294 399.505 98.8308" fill="#ABDDE7"/>
<path d="M390.841 71.812C391.023 72.2174 391.439 72.4414 391.856 72.3974C391.959 72.3867 392.06 72.36 392.159 72.316C392.661 72.0907 392.887 71.5014 392.661 70.9987C391.849 69.1827 390.971 67.372 390.047 65.6187C389.791 65.1307 389.189 64.944 388.7 65.2C388.213 65.456 388.027 66.0587 388.283 66.5467C389.185 68.264 390.045 70.0347 390.841 71.812" fill="#ABDDE7"/>
<path d="M347.057 26.1576C348.769 27.0309 350.497 27.9842 352.193 28.9882C352.385 29.1016 352.599 29.1429 352.804 29.1216C353.108 29.0896 353.392 28.9202 353.56 28.6389C353.84 28.1642 353.684 27.5536 353.209 27.2722C351.477 26.2482 349.713 25.2749 347.965 24.3816C347.475 24.1309 346.873 24.3256 346.624 24.8149C346.373 25.3056 346.568 25.9056 347.057 26.1576" fill="#ABDDE7"/>
<path d="M361.915 35.5455C362.127 35.7055 362.381 35.7695 362.627 35.7441C362.889 35.7161 363.14 35.5841 363.313 35.3575C363.647 34.9201 363.564 34.2948 363.127 33.9601C361.547 32.7548 359.913 31.5815 358.267 30.4708C357.809 30.1641 357.192 30.2828 356.883 30.7401C356.575 31.1961 356.695 31.8161 357.152 32.1241C358.765 33.2121 360.368 34.3628 361.915 35.5455" fill="#ABDDE7"/>
<path d="M378.669 51.8696C378.889 52.1443 379.227 52.2723 379.553 52.2376C379.736 52.2189 379.916 52.1483 380.071 52.0243C380.5 51.6803 380.571 51.0536 380.225 50.6229C378.987 49.0763 377.68 47.5443 376.343 46.0723C375.971 45.6643 375.341 45.6336 374.933 46.0043C374.527 46.3749 374.496 47.0056 374.865 47.4136C376.177 48.8549 377.456 50.3549 378.669 51.8696Z" fill="#ABDDE7"/>
<path d="M370.793 43.2002C371.013 43.4148 371.309 43.5069 371.593 43.4762C371.817 43.4535 372.033 43.3549 372.203 43.1802C372.587 42.7855 372.579 42.1548 372.184 41.7708C370.765 40.3908 369.281 39.0308 367.771 37.7295C367.355 37.3695 366.724 37.4175 366.365 37.8348C366.005 38.2508 366.052 38.8815 366.471 39.2402C367.949 40.5162 369.404 41.8482 370.793 43.2002" fill="#ABDDE7"/>
<path d="M385.393 61.4534C385.6 61.7934 385.979 61.9655 386.349 61.9255C386.492 61.9108 386.633 61.8641 386.764 61.7854C387.235 61.4988 387.381 60.8841 387.095 60.4148C386.06 58.7201 384.957 57.0348 383.816 55.4095C383.501 54.9588 382.88 54.8495 382.428 55.1655C381.976 55.4828 381.868 56.1041 382.185 56.5548C383.301 58.1455 384.38 59.7948 385.393 61.4534" fill="#ABDDE7"/>
<path d="M342.233 16.9307L346.596 0.770637L293.133 1.22936L342.233 16.9307Z" fill="#3D89D1"/>
<path d="M293.133 1.22806L339.639 20.8321L339.761 20.8854L341.761 24.1987L342.233 16.9307L293.133 1.22806Z" fill="#385DB4"/>
<path d="M341.761 24.1987L337.427 23.5161L339.761 20.8854L341.761 24.1987Z" fill="#385DB4"/>
<path d="M333.911 18.4185L339.763 20.8852L327.709 34.4639L293.133 1.22923L333.911 18.4185" fill="#3D89D1"/>
<path d="M588.075 442.084V443.057C588.075 448.677 583.517 453.233 577.895 453.233H49.964C44.3421 453.233 39.7885 448.677 39.7885 443.057V442.084C39.7885 436.465 44.3421 431.908 49.964 431.908H577.895C583.517 431.908 588.075 436.465 588.075 442.084" fill="#373D9C"/>
<path d="M588.075 442.084V442.571H39.7885V442.084C39.7885 436.465 44.3421 431.908 49.964 431.908H577.895C583.517 431.908 588.075 436.465 588.075 442.084" fill="#385DB4"/>
<path d="M394.725 399.895H228.879C224.916 399.895 221.703 396.683 221.703 392.72V305.951C221.703 301.988 224.916 298.776 228.879 298.776H394.725C398.688 298.776 401.9 301.988 401.9 305.951V392.72C401.9 396.683 398.688 399.895 394.725 399.895" fill="#2F335D"/>
<path d="M325.755 431.593H297.848V399.78H325.755V431.593Z" fill="#1C1A2C"/>
<path d="M325.341 350.575C325.341 358.224 319.139 364.425 311.491 364.425C303.84 364.425 297.639 358.224 297.639 350.575C297.639 342.925 303.84 336.724 311.491 336.724C319.139 336.724 325.341 342.925 325.341 350.575Z" fill="#35527F"/>
<path d="M347.348 431.593H275.364V429.168C275.364 424.275 279.331 420.307 284.224 420.307H338.487C343.38 420.307 347.348 424.275 347.348 429.168V431.593" fill="#2F335D"/>
</svg>
