<svg width="859" height="634" viewBox="0 0 859 634" fill="none" xmlns="http://www.w3.org/2000/svg">
<path d="M95.1543 165.237H760.98" stroke="#D5CBC6" stroke-width="2.62376" stroke-miterlimit="10"/>
<path d="M752.285 533.543H103.85C99.0476 533.543 95.1543 529.65 95.1543 524.849V130.285C95.1543 125.484 99.0476 121.59 103.85 121.59H752.285C757.086 121.59 760.98 125.484 760.98 130.285V524.849C760.98 529.65 757.086 533.543 752.285 533.543Z" stroke="#D5CBC6" stroke-width="2.62376" stroke-miterlimit="10"/>
<path d="M139.036 143.86C139.036 147.222 136.308 149.949 132.945 149.949C129.581 149.949 126.854 147.222 126.854 143.86C126.854 140.496 129.581 137.769 132.945 137.769C136.308 137.769 139.036 140.496 139.036 143.86Z" fill="#F79395"/>
<path d="M162.705 143.86C162.705 147.222 159.978 149.949 156.614 149.949C153.25 149.949 150.525 147.222 150.525 143.86C150.525 140.496 153.25 137.769 156.614 137.769C159.978 137.769 162.705 140.496 162.705 143.86Z" fill="#D5C23E"/>
<path d="M186.376 143.86C186.376 147.222 183.648 149.949 180.285 149.949C176.921 149.949 174.194 147.222 174.194 143.86C174.194 140.496 176.921 137.769 180.285 137.769C183.648 137.769 186.376 140.496 186.376 143.86Z" fill="#30867A"/>
<path d="M847.476 312.248H690.994C686.582 312.248 683.006 308.672 683.006 304.26V159.538C683.006 155.126 686.582 151.55 690.994 151.55H847.476C851.888 151.55 855.465 155.126 855.465 159.538V304.26C855.465 308.672 851.888 312.248 847.476 312.248" fill="#E7E5E4"/>
<path d="M847.476 312.248H690.994C686.582 312.248 683.006 308.672 683.006 304.26V159.538C683.006 155.126 686.582 151.55 690.994 151.55H847.476C851.888 151.55 855.465 155.126 855.465 159.538V304.26C855.465 308.672 851.888 312.248 847.476 312.248V312.248Z" stroke="#D5CBC6" stroke-width="2.62376" stroke-miterlimit="10"/>
<path d="M728.825 270.445H810.156C814.59 270.445 818.186 266.85 818.186 262.416V195.761C818.186 191.328 814.59 187.733 810.156 187.733H728.825C724.392 187.733 720.797 191.328 720.797 195.761V262.416C720.797 266.85 724.392 270.445 728.825 270.445" fill="#AF61B7"/>
<path d="M791.706 242.841H746.764V212.701H791.706V220.236V242.841Z" stroke="white" stroke-width="2.19547" stroke-miterlimit="10" stroke-linecap="round" stroke-linejoin="round"/>
<path d="M746.764 212.701L769.236 230.41L791.706 212.701" stroke="white" stroke-width="2.19547" stroke-miterlimit="10" stroke-linecap="round" stroke-linejoin="round"/>
<path d="M158.852 433.433H9.6172C5.40987 433.433 2 430.022 2 425.814V295.702C2 291.496 5.40987 288.085 9.6172 288.085H158.852C163.058 288.085 166.47 291.496 166.47 295.702V425.814C166.47 430.022 163.058 433.433 158.852 433.433" fill="#E7E5E4"/>
<path d="M158.852 433.433H9.6172C5.40987 433.433 2 430.022 2 425.814V295.702C2 291.496 5.40987 288.085 9.6172 288.085H158.852C163.058 288.085 166.47 291.496 166.47 295.702V425.814C166.47 430.022 163.058 433.433 158.852 433.433V433.433Z" stroke="#D5CBC6" stroke-width="2.62376" stroke-miterlimit="10"/>
<path d="M122.546 405.43H45.1479C40.2589 405.43 36.2954 401.468 36.2954 396.578V321.83C36.2954 316.941 40.2589 312.978 45.1479 312.978H122.546C127.436 312.978 131.4 316.941 131.4 321.83V396.578C131.4 401.468 127.436 405.43 122.546 405.43" fill="#F79395"/>
<path d="M108.634 358.496H97.0757C97.0131 355.021 96.5611 351.545 95.7011 348.072H105.516C107.288 351.181 108.392 354.721 108.634 358.496ZM105.516 372.065H95.3904C96.3051 368.589 96.8584 365.116 97.0277 361.64H108.634C108.392 365.416 107.289 368.956 105.516 372.065V372.065ZM91.1478 383.382C92.4664 380.658 93.5744 377.934 94.4624 375.209H103.38C100.285 379.077 96.0331 381.976 91.1478 383.382ZM84.4277 384.326C83.3504 384.326 82.2891 384.256 81.2504 384.12C79.7678 381.149 78.5051 378.18 77.4891 375.209H91.3651C90.3491 378.18 89.0864 381.149 87.6064 384.12C86.5651 384.256 85.5051 384.326 84.4277 384.326ZM65.4757 375.209H74.3931C75.2811 377.933 76.3891 380.658 77.7064 383.382C72.8224 381.976 68.5691 379.077 65.4757 375.209ZM63.3397 372.065C61.5664 368.956 60.4625 365.416 60.2208 361.64H71.8277C71.9971 365.114 72.5491 368.589 73.4651 372.065H63.3397ZM63.3397 348.072H73.1544C72.2944 351.545 71.8424 355.021 71.7798 358.496H60.2208C60.4625 354.721 61.5664 351.181 63.3397 348.072ZM77.3771 336.852C76.0117 339.542 74.9051 342.236 74.0451 344.926H65.4757C68.4997 341.146 72.6304 338.292 77.3771 336.852ZM84.4277 335.809C85.7211 335.809 86.9891 335.912 88.2264 336.105C89.8744 339.046 91.1651 341.986 92.1251 344.926H76.7304C77.6904 341.986 78.9811 339.046 80.6291 336.105C81.8664 335.912 83.1357 335.809 84.4277 335.809V335.809ZM94.1957 361.64C93.9584 365.114 93.3291 368.589 92.3478 372.065H76.5064C75.5264 368.59 74.8971 365.116 74.6597 361.64H94.1957ZM74.5544 358.496C74.5584 355.021 74.9677 351.545 75.8277 348.072H93.0277C93.8877 351.545 94.2971 355.021 94.3011 358.496H74.5544ZM103.38 344.926H94.8104C93.9504 342.236 92.8437 339.542 91.4784 336.852C96.2251 338.292 100.356 341.146 103.38 344.926ZM65.4144 341.054C54.9719 351.497 54.9719 368.638 65.4144 379.082C75.8571 389.525 92.9984 389.525 103.441 379.082C113.884 368.638 113.884 351.497 103.441 341.054C92.9984 330.612 75.8571 330.612 65.4144 341.054Z" fill="white"/>
<path d="M149.957 83.5757H14.7594C11.9667 83.5757 9.70215 81.3117 9.70215 78.5183C9.70215 75.7263 11.9667 73.461 14.7594 73.461H149.957C152.75 73.461 155.014 75.7263 155.014 78.5183C155.014 81.3117 152.75 83.5757 149.957 83.5757" fill="#AF61B7"/>
<path d="M852.985 413.821H787.365C784.573 413.821 782.308 411.557 782.308 408.764C782.308 405.972 784.573 403.706 787.365 403.706H852.985C855.778 403.706 858.042 405.972 858.042 408.764C858.042 411.557 855.778 413.821 852.985 413.821Z" fill="#62CBCF"/>
<path d="M807.026 472.324H799.009C796.902 472.324 795.193 470.616 795.193 468.509V460.981C795.193 458.874 796.902 457.168 799.009 457.168H807.026C809.134 457.168 810.842 458.874 810.842 460.981V468.509C810.842 470.616 809.134 472.324 807.026 472.324Z" fill="#AF61B7"/>
<path d="M46.9639 507.361H38.9453C36.8385 507.361 35.1306 505.653 35.1306 503.547V496.019C35.1306 493.913 36.8385 492.204 38.9453 492.204H46.9639C49.0707 492.204 50.7791 493.913 50.7791 496.019V503.547C50.7791 505.653 49.0707 507.361 46.9639 507.361Z" fill="#F79395"/>
<path d="M660.664 78.3516H527.22C525.001 78.3516 523.202 76.5542 523.202 74.3356V41.7543C523.202 39.5369 525.001 37.7396 527.22 37.7396H660.664C662.882 37.7396 664.68 39.5369 664.68 41.7543V74.3356C664.68 76.5542 662.882 78.3516 660.664 78.3516Z" fill="#F79395"/>
<path d="M542.473 52.2104H637.377" stroke="white" stroke-width="1.57375" stroke-miterlimit="10"/>
<path d="M542.473 61.9502H581.13" stroke="white" stroke-width="1.57375" stroke-miterlimit="10"/>
<path d="M538.613 73.757V89.585L558.52 73.757H538.613Z" fill="#F79395"/>
<path d="M332.806 80.7676H268.209C261.934 80.7676 256.849 75.6809 256.849 69.4076V9.3516C256.849 4.59427 260.705 0.738253 265.461 0.738253H332.806C337.562 0.738253 341.418 4.59427 341.418 9.3516V72.1543C341.418 76.9116 337.562 80.7676 332.806 80.7676" fill="#62CBCF"/>
<path d="M316.892 51.1422C316.548 51.4862 316.204 51.8302 315.86 52.1742C315.257 52.6902 314.743 53.2929 314.14 53.8942C313.28 54.7542 312.333 55.1849 311.044 55.1849C310.872 55.1849 310.787 55.1849 310.615 55.1849C308.035 55.0129 305.627 53.9809 303.907 53.1209C299.005 50.7129 294.705 47.3596 291.095 43.0596C288.171 39.5329 286.193 36.1796 284.816 32.6542C283.957 30.5902 283.612 28.9569 283.785 27.3222C283.871 26.3769 284.215 25.5169 284.989 24.8289L287.913 21.9049C288.171 21.6476 288.6 21.3035 289.116 21.3035C289.632 21.3035 289.976 21.5609 290.32 21.9049C290.836 22.4209 291.352 22.9369 291.868 23.4529C292.127 23.7115 292.384 24.0542 292.728 24.3129L295.136 26.7209C295.393 26.9782 295.737 27.4942 295.737 27.9249C295.737 28.4409 295.393 28.8702 295.136 29.1275C294.877 29.3862 294.62 29.6449 294.361 29.9022C293.588 30.6769 292.9 31.3636 292.212 32.0516C292.212 32.0516 292.212 32.0516 292.127 32.1382C291.267 32.9982 291.439 33.7729 291.611 34.2876V34.3742C292.212 35.9222 293.159 37.2969 294.448 39.0182C296.856 42.0276 299.436 44.3489 302.273 46.1555C302.617 46.4129 303.047 46.5849 303.391 46.7569C303.735 46.9289 303.993 47.0156 304.251 47.1876L304.337 47.2729C305.196 47.7022 306.056 47.5302 306.745 46.8436L309.755 43.8329C310.012 43.5755 310.443 43.2316 310.959 43.2316C311.389 43.2316 311.819 43.5755 312.076 43.8329L316.892 48.6489C317.667 49.4222 317.667 50.2822 316.892 51.1422V51.1422ZM318.869 46.6716L314.055 41.8555C313.195 40.9089 312.076 40.3929 310.959 40.3929C309.84 40.3929 308.723 40.9088 307.863 41.7702L305.111 44.5209C304.939 44.4356 304.767 44.3489 304.595 44.2635C304.251 44.0915 303.993 44.0049 303.735 43.8329C301.155 42.1995 298.833 40.0489 296.597 37.2969C295.565 36.0075 294.792 34.8049 294.361 33.7729C295.051 33.1702 295.652 32.4822 296.253 31.8809C296.512 31.6222 296.769 31.3635 297.028 31.1062C297.973 30.1609 298.489 29.0422 298.489 27.9249C298.489 26.8062 297.973 25.6889 297.028 24.7422L294.62 22.3355C294.361 22.0769 294.104 21.8195 293.845 21.4755C293.331 20.9595 292.728 20.3582 292.212 19.8409C291.352 18.9809 290.235 18.4662 289.116 18.4662C287.999 18.4662 286.967 18.8956 286.021 19.8409L283.011 22.8516C281.893 23.9689 281.205 25.4316 281.033 27.0649C280.861 29.6449 281.549 32.0515 282.151 33.6008C283.527 37.5555 285.676 41.0809 288.859 44.8649C292.728 49.4222 297.285 53.0355 302.617 55.6142C304.595 56.5595 307.347 57.6782 310.357 57.9355C310.528 57.9355 310.7 57.9355 310.959 57.9355C313.023 57.9355 314.743 57.1622 316.117 55.6995C316.117 55.6995 316.117 55.6995 316.204 55.6142C316.635 55.0982 317.149 54.5822 317.752 54.0662C318.096 53.7222 318.527 53.2929 318.869 52.9489C320.676 51.0569 320.676 48.4769 318.869 46.6716" fill="white"/>
<path d="M613.804 383.776L565.134 377.296L565.514 382.129L523.902 387.669C523.902 387.669 497.081 454.962 520.72 602.955H554.569L566.75 452.89H571.078L582.877 602.955H616.726C640.365 454.962 613.804 383.776 613.804 383.776" fill="#826467"/>
<path d="M551.276 452.89H586.591" stroke="#28262C" stroke-width="1.64441" stroke-miterlimit="10" stroke-linecap="round" stroke-linejoin="round"/>
<path d="M642.225 312.788C638.061 306.141 614.672 306.376 613.437 306.232C607.114 305.49 617.492 355.805 630.645 399.788C633.168 408.22 642.445 412.612 650.548 409.176C650.636 409.138 650.722 409.101 650.81 409.065C657.221 406.349 660.868 399.544 659.578 392.702C653.322 359.516 647.04 320.472 642.225 312.788" fill="#F79395"/>
<path d="M647.8 330.981L617.937 342.569L615.137 328.401L646.06 320.688L647.8 330.981" fill="#EC767F"/>
<path d="M653.44 359.326C653.44 359.326 639.293 378.325 639.968 377.452C640.641 376.578 651.061 346.749 651.061 346.749L653.44 359.326" fill="#EC767F"/>
<path d="M673.666 333.79L633.117 386.328C627.793 393.225 629.493 403.198 636.803 407.944C644.099 412.68 653.884 410.19 658.028 402.542L691.781 340.269L673.666 333.79Z" fill="#F79395"/>
<path d="M684.161 347.281C675.37 344.441 670.546 335.014 673.386 326.222C676.226 317.432 685.654 312.609 694.445 315.448C703.236 318.288 708.06 327.716 705.22 336.506C702.38 345.298 692.952 350.121 684.161 347.281" fill="#F79395"/>
<path d="M701.5 321.309C701.5 321.309 706.077 316.557 697.956 313.226C689.836 309.896 679.796 310.66 673.386 326.222L701.5 321.309Z" fill="#F79395"/>
<path d="M709.912 288.108L726.891 295.469C727.835 295.878 728.179 296.998 727.657 297.97L705.322 339.692C704.802 340.662 703.615 341.12 702.671 340.709L685.692 333.349C684.746 332.938 684.404 331.818 684.922 330.848L707.258 289.126C707.78 288.154 708.968 287.698 709.912 288.108" fill="#3B3261"/>
<path d="M708.29 287.369L725.268 294.73C726.213 295.14 726.557 296.26 726.036 297.232L703.7 338.952C703.181 339.924 701.993 340.38 701.048 339.97L684.07 332.609C683.125 332.2 682.781 331.081 683.302 330.108L705.637 288.388C706.157 287.416 707.345 286.96 708.29 287.369" fill="#2D2446"/>
<path d="M706.375 291.614L721.293 298.081L703.089 332.084L688.172 325.617L706.375 291.614" fill="#DFDCDA"/>
<path d="M721.293 298.081L688.172 325.617L706.375 291.614L721.293 298.081Z" fill="white"/>
<path d="M693.081 311.841C693.081 311.841 696.861 312.578 700.273 314.512C701.777 315.362 702.546 317.097 702.13 318.774C701.749 320.304 700.469 321.44 698.906 321.637L690.08 322.75C690.08 322.75 685.473 330.689 679.457 331.58L684.976 317.642L693.081 311.841" fill="#F79395"/>
<path d="M580.356 246.628C579.381 246.621 642.95 255.424 653.44 327.901L620.453 332.954L613.804 387.669H521.781L503.512 286.577C503.512 286.577 523.9 257.358 561.753 246.628H580.356" fill="#62CBCF"/>
<path d="M620.453 332.954L623.316 301.309" stroke="#28262C" stroke-width="1.64441" stroke-miterlimit="10" stroke-linecap="round" stroke-linejoin="round"/>
<path d="M586.397 247.664V222.489H556.896V247.96C555.386 248.41 552.872 249.32 548.97 251.173L571.978 264.88L595.502 251.173C595.502 251.173 591.768 249.001 586.397 247.664" fill="#F79395"/>
<path d="M556.622 225.564C556.622 225.564 561.92 239.633 576.064 238.418C589.064 237.302 586.994 217.805 586.994 217.805L556.622 225.564Z" fill="#28262C"/>
<path d="M543.756 206.854C539.132 211.049 528.792 195.14 533.26 190.673C537.728 186.208 541.137 193.214 541.137 193.214L543.132 197.964L544.636 204.394L544.993 206.08L543.756 206.854" fill="#EC767F"/>
<path d="M535.418 196.309C535.418 196.309 538.918 194.734 542.028 199.808" stroke="#28262C" stroke-width="1.32378" stroke-miterlimit="10" stroke-linecap="round" stroke-linejoin="round"/>
<path d="M598.44 206.372C602.693 210.942 614.341 195.965 610.266 191.137C606.193 186.308 602.204 193.002 602.204 193.002L599.814 197.565L597.77 203.846L597.272 205.494L598.44 206.372" fill="#EC767F"/>
<path d="M607.639 196.569C607.639 196.569 604.285 194.704 600.756 199.497" stroke="#28262C" stroke-width="1.32378" stroke-miterlimit="10" stroke-linecap="round" stroke-linejoin="round"/>
<path d="M535.645 175.498C535.645 196.557 551.701 206.542 571.508 206.542C591.313 206.542 607.368 196.557 607.368 175.498C607.368 154.438 591.313 140.112 571.508 140.112C551.701 140.112 535.645 154.438 535.645 175.498Z" fill="#28262C"/>
<path d="M540.52 176.962C540.52 189.89 542.346 201.046 544.169 208.965C545.954 216.717 550.977 222.134 558.077 226.494L559.369 227.289C566.881 231.902 576.585 232.01 584.212 227.564C591.904 223.08 597.289 217.168 598.946 208.849C601.961 193.72 602.29 176.962 602.29 176.962C602.29 176.962 605.158 144.328 571.846 144.961C538.532 145.596 540.52 176.962 540.52 176.962" fill="#F79395"/>
<path d="M569.384 195.588V200.104C569.384 200.37 569.435 200.628 569.529 200.862C569.9 201.785 570.965 202.228 571.928 201.972L573.999 201.422" stroke="#28262C" stroke-width="1.64217" stroke-miterlimit="10" stroke-linecap="round" stroke-linejoin="round"/>
<path d="M564.086 178.076L547.53 181.956C547.53 181.956 548.284 177.742 555.056 176.21C561.829 174.68 564.086 178.076 564.086 178.076" fill="#28262C"/>
<path d="M578.781 178.076L594.766 181.956C594.766 181.956 594.04 177.742 587.5 176.21C580.961 174.68 578.781 178.076 578.781 178.076" fill="#28262C"/>
<path d="M560.588 190.237C560.588 191.774 559.338 193.021 557.797 193.021C556.254 193.021 555.005 191.774 555.005 190.237C555.005 188.698 556.254 187.452 557.797 187.452C559.338 187.452 560.588 188.698 560.588 190.237Z" fill="#28262C"/>
<path d="M587.058 190.237C587.058 191.774 585.808 193.021 584.266 193.021C582.724 193.021 581.473 191.774 581.473 190.237C581.473 188.698 582.724 187.452 584.266 187.452C585.808 187.452 587.058 188.698 587.058 190.237Z" fill="#28262C"/>
<path d="M560.588 207.228H582.12C582.12 207.228 572.577 218.837 560.588 207.228Z" fill="white"/>
<path d="M568.494 191.318C568.494 197.876 563.18 203.192 556.622 203.192C550.065 203.192 544.749 197.876 544.749 191.318C544.749 184.761 550.065 179.445 556.622 179.445C563.18 179.445 568.494 184.761 568.494 191.318Z" stroke="#AF61B7" stroke-width="1.78973" stroke-miterlimit="10"/>
<path d="M597.662 191.318C597.662 197.876 592.348 203.192 585.79 203.192C579.233 203.192 573.916 197.876 573.916 191.318C573.916 184.761 579.233 179.445 585.79 179.445C592.348 179.445 597.662 184.761 597.662 191.318Z" stroke="#AF61B7" stroke-width="1.78973" stroke-miterlimit="10"/>
<path d="M568.494 191.318C568.494 191.318 571.306 188.693 573.916 191.318" stroke="#AF61B7" stroke-width="1.78973" stroke-miterlimit="10"/>
<path d="M544.749 191.318L541.009 191.224" stroke="#AF61B7" stroke-width="1.78973" stroke-miterlimit="10"/>
<path d="M597.662 191.318L601.425 191.224" stroke="#AF61B7" stroke-width="1.78973" stroke-miterlimit="10"/>
<path d="M601.861 187.782C601.861 187.782 588.542 169.777 591.616 151.536C591.616 151.536 601.501 156.51 604.076 169.35C606.65 182.192 601.861 187.782 601.861 187.782Z" fill="#28262C"/>
<path d="M540.497 189.002C540.497 189.002 555.97 168.552 552.897 150.31C552.897 150.31 542.165 156.51 539.591 169.35C537.017 182.192 540.497 189.002 540.497 189.002Z" fill="#28262C"/>
<path d="M600.745 158.72C600.745 158.72 583.642 177.442 536.852 174.237C536.852 174.237 544.017 146.764 566.693 143.837C566.693 143.837 592.876 140.71 600.745 158.72" fill="#28262C"/>
<path d="M621.885 136.832C621.885 149.17 611.882 159.173 599.544 159.173C587.205 159.173 577.202 149.17 577.202 136.832C577.202 124.494 587.205 114.492 599.544 114.492C611.882 114.492 621.885 124.494 621.885 136.832Z" fill="#28262C"/>
<path d="M326.818 383.725L285.208 378.184L285.588 373.352L236.918 379.832C236.918 379.832 210.357 451.017 233.996 599.012H267.845L279.644 448.946H283.97L296.153 599.012H330.001C353.641 451.017 326.818 383.725 326.818 383.725" fill="#28262C"/>
<path d="M323.5 181.266C317.868 174.64 313.359 166.912 309.527 156.065C305.412 144.421 291.941 149.154 291.941 149.154C291.941 149.154 280.716 134.713 263.824 139.744C246.932 144.773 241.063 156.793 240.719 171.084C240.373 185.376 229.133 187.61 220.477 204.142C205.196 233.329 230.924 257.913 277.756 251.093L277.819 250.638C282.431 252.038 288.083 252.65 294.983 252.241C351.244 248.9 345.815 207.518 323.5 181.266" fill="#28262C"/>
<path d="M305.081 202.91C309.705 207.104 320.044 191.196 315.576 186.729C311.109 182.262 307.7 189.27 307.7 189.27L305.705 194.018L304.2 200.45L303.842 202.134L305.081 202.91Z" fill="#EC767F"/>
<path d="M313.417 192.364C313.417 192.364 309.917 190.79 306.806 195.864" stroke="#28262C" stroke-width="1.32378" stroke-miterlimit="10" stroke-linecap="round" stroke-linejoin="round"/>
<path d="M250.396 202.428C246.142 206.998 234.494 192.021 238.569 187.193C242.644 182.364 246.632 189.057 246.632 189.057L249.021 193.621L251.065 199.902L251.564 201.55L250.396 202.428" fill="#EC767F"/>
<path d="M241.197 192.625C241.197 192.625 244.552 190.76 248.08 195.553" stroke="#28262C" stroke-width="1.32378" stroke-miterlimit="10" stroke-linecap="round" stroke-linejoin="round"/>
<path d="M313.19 171.553C313.19 192.612 297.134 202.598 277.329 202.598C257.524 202.598 241.468 192.612 241.468 171.553C241.468 150.494 257.524 136.168 277.329 136.168C297.134 136.168 313.19 150.494 313.19 171.553Z" fill="#28262C"/>
<path d="M291.941 256.746H262.44V218.545H291.941V256.746" fill="#F79395"/>
<path d="M258.135 216.162C258.135 216.162 266.347 232.552 276.449 235.11C279.148 235.794 282.031 235.56 284.633 234.638C288.436 233.289 293.257 227.62 294.077 221.348L294.457 217.764C294.457 217.764 276.48 227.552 258.135 216.162Z" fill="#28262C"/>
<path d="M308.316 173.018C308.316 185.946 306.49 197.102 304.666 205.02C302.881 212.772 297.858 218.189 290.758 222.55L289.466 223.344C281.954 227.958 272.25 228.065 264.624 223.62C256.932 219.136 251.546 213.222 249.889 204.905C246.874 189.776 246.545 173.018 246.545 173.018C246.545 173.018 243.677 140.382 276.99 141.017C310.304 141.65 308.316 173.018 308.316 173.018" fill="#F79395"/>
<path d="M275.104 193.41V196.093C275.104 196.36 275.156 196.616 275.249 196.85C275.62 197.77 276.685 198.21 277.648 197.956L279.72 197.409" stroke="#28262C" stroke-width="1.63968" stroke-miterlimit="10" stroke-linecap="round" stroke-linejoin="round"/>
<path d="M282.045 175.72L299.768 179.914C299.768 179.914 298.963 175.36 291.712 173.704C284.461 172.049 282.045 175.72 282.045 175.72Z" fill="#28262C"/>
<path d="M272.74 175.72L254.788 179.914C254.788 179.914 255.604 175.36 262.948 173.704C270.292 172.049 272.74 175.72 272.74 175.72Z" fill="#28262C"/>
<path d="M266.309 186.721C266.309 188.253 265.059 189.497 263.517 189.497C261.975 189.497 260.724 188.253 260.724 186.721C260.724 185.188 261.975 183.944 263.517 183.944C265.059 183.944 266.309 185.188 266.309 186.721Z" fill="#28262C"/>
<path d="M292.778 186.721C292.778 188.253 291.528 189.497 289.986 189.497C288.444 189.497 287.194 188.253 287.194 186.721C287.194 185.188 288.444 183.944 289.986 183.944C291.528 183.944 292.778 185.188 292.778 186.721Z" fill="#28262C"/>
<path d="M264.465 202.598H288.97C288.97 202.598 287.241 209.332 276.129 209.332C267.666 209.332 264.465 202.598 264.465 202.598Z" fill="white"/>
<path d="M246.973 183.838C246.973 183.838 260.293 165.832 257.221 147.59C257.221 147.59 247.334 152.565 244.76 165.406C242.186 178.246 246.973 183.838 246.973 183.838Z" fill="#28262C"/>
<path d="M308.339 183.238C308.339 183.238 292.867 164.608 295.94 146.366C295.94 146.366 306.671 152.565 309.245 165.406C311.82 178.246 308.339 183.238 308.339 183.238Z" fill="#28262C"/>
<path d="M248.09 154.776C248.09 154.776 263.374 175.317 310.165 172.112C310.165 172.112 304.82 142.818 282.142 139.893C282.142 139.893 255.96 136.766 248.09 154.776Z" fill="#28262C"/>
<path d="M205.438 474.084C204.757 475.153 244.382 301.677 232.618 304.3C231.545 304.537 210.941 306.452 207.878 312.678C199.002 330.726 192.636 472.766 192.636 472.766L205.438 474.084" fill="#F79395"/>
<path d="M192.636 472.766C192.636 472.766 186.249 502.401 210.393 505.64C211.984 505.854 213.521 504.914 214.045 503.397L214.114 503.196C214.692 501.522 213.853 499.726 212.236 499.004C208.3 497.243 202.194 492.797 205.222 482.697C205.222 482.697 208.713 482.269 210.638 488.78C211.134 490.454 213.014 491.296 214.574 490.51C215.638 489.973 216.238 488.828 216.088 487.645C215.509 483.085 213.216 472.11 204.416 469.165L192.636 472.766" fill="#F79395"/>
<path d="M200.76 354.361C200.76 354.361 223.59 386.513 223.712 385.89C223.832 385.269 231.694 340.749 231.694 340.749L203.992 328.749L200.76 354.361" fill="#EC767F"/>
<path d="M264.196 250.457C265.169 250.452 207.772 251.48 197.281 323.956L230.268 329.01L236.918 383.725H328.941L347.209 282.632C347.209 282.632 334.222 260.729 296.366 249.998L264.196 250.457" fill="#30867A"/>
<path d="M236.141 259.218C236.141 259.218 244.252 269.986 277.488 269.986C310.416 269.986 318.836 258.654 318.836 258.654C318.836 258.654 299.425 247.809 276.901 244.301C276.901 244.301 256.788 247.884 236.141 259.218" fill="#F79395"/>
<path d="M349.072 488.822L349.15 633.362H420.656L426.15 488.822H349.072Z" fill="#315384"/>
<path d="M504.326 488.822L504.249 633.362H432.744L427.248 488.822H504.326Z" fill="#315384"/>
<path d="M465.274 539.037H391.341V488.822H465.274V539.037Z" fill="#315384"/>
<path d="M549.5 362.684C553.933 411.662 549.256 447.349 550.549 537.472L507.872 539.26L501.513 370.564L549.5 362.684Z" fill="#F79395"/>
<path d="M506.776 400.904C506.776 400.904 533.205 398.484 551.274 386.565L550.798 376.076L506.761 382.074L506.776 400.904Z" fill="#EC767F"/>
<path d="M464.377 249.917C464.377 249.917 548.324 271.028 563.533 377.581C563.533 377.581 522.448 395.393 481.274 387.732L490.537 352.093L464.377 249.917Z" fill="#AF61B7"/>
<path d="M213.63 294.222L276.134 368.037L257.008 421.902C257.008 421.902 209.501 355.853 188.154 304.801L213.63 294.222" fill="#F79395"/>
<path d="M215.685 296.886C215.685 296.886 193.737 309.286 188.154 304.801C178.398 296.962 170.336 268.269 170.336 268.269C170.336 268.269 211.38 252.796 210.994 253.4C210.608 254.005 215.685 296.886 215.685 296.886" fill="#F79395"/>
<path d="M215.685 296.886C215.297 294.677 223.824 270.84 226.748 261.901C227.452 259.745 225.967 257.381 223.625 256.933C222.103 256.641 219.689 256.829 218.549 259.014L208.253 276.609L215.685 296.886" fill="#F79395"/>
<path d="M214.933 271.117L207.865 235.953C207.445 233.613 205.095 232.001 202.749 232.444C200.719 232.828 199.38 234.637 199.619 236.672L202.7 262.856L214.933 271.117Z" fill="#F79395"/>
<path d="M200.877 258.148L191.278 233.037C190.485 230.838 188.01 229.62 185.826 230.352C183.932 230.986 182.868 232.896 183.317 234.856L190.44 263.872L200.877 258.148" fill="#F79395"/>
<path d="M190.562 265.552L178.418 240.878C177.304 238.588 174.53 237.525 172.254 238.516C170.116 239.445 169.169 241.868 170.085 244.069L179.766 267.362L190.562 265.552Z" fill="#F79395"/>
<path d="M170.336 268.269L160.806 253.153C160.018 251.376 160.746 249.381 162.473 248.593C164.125 247.838 166.166 248.432 167.234 249.978L179.766 267.362L170.336 268.269" fill="#F79395"/>
<path d="M213.012 268.476C213.012 268.476 198.701 266.974 197.232 286.046" stroke="#28262C" stroke-width="2.04231" stroke-miterlimit="10" stroke-linecap="round" stroke-linejoin="round"/>
<path d="M244.332 396.708C244.332 396.708 256.086 437.393 279.513 431.984C302.94 426.576 339.45 376.541 339.45 376.541L331.278 291.109L265.528 372.033L244.332 396.708" fill="#F79395"/>
<path d="M285.921 346.897C285.921 346.897 308.12 380.38 327.056 392.188L339.45 376.541L291.636 339.553L285.921 346.897Z" fill="#EC767F"/>
<path d="M383.044 248.07C383.044 248.07 317.869 262.76 283.138 338.505C283.138 338.505 304.124 370.124 337.764 384.177L360.286 356.584L383.044 248.07" fill="#AF61B7"/>
<path d="M383.044 247.836C357.584 260.894 341.58 278.213 341.58 278.213L346.602 499.626H507.038L506.52 279.356C506.52 279.356 486.296 259.565 464.377 249.917C445.761 241.722 401.141 238.553 383.044 247.836" fill="#AF61B7"/>
<path d="M458.96 355.725C446.636 355.725 436.644 345.734 436.644 333.41V311.094H481.274V333.41C481.274 345.734 471.284 355.725 458.96 355.725V355.725Z" stroke="#28262C" stroke-width="1.86241" stroke-miterlimit="10" stroke-linecap="round" stroke-linejoin="round"/>
<path d="M506.776 388.554L508.858 316.124" stroke="#28262C" stroke-width="1.86241" stroke-miterlimit="10" stroke-linecap="round" stroke-linejoin="round"/>
<path d="M344.045 376.482L340.578 313.697" stroke="#28262C" stroke-width="1.86241" stroke-miterlimit="10" stroke-linecap="round" stroke-linejoin="round"/>
<path d="M384.922 166.965L378.236 133.878C377.86 131.184 376.813 127.025 378.094 123.117C380.212 116.652 387.997 104.236 401.304 109.92L404.18 123.02C404.18 123.02 390.361 125.809 384.818 143.886L384.922 166.965" fill="#28262C"/>
<path d="M400.324 116.749C400.082 121.097 396.245 140.118 382.754 147.049C382.754 147.049 370.938 121.708 400.324 116.749Z" fill="#28262C"/>
<path d="M447.648 241.744V185.561H395.856V241.744L380.438 248.772C380.438 248.772 384.054 272.057 422.296 272.573C460.536 273.089 464.377 249.917 464.377 249.917L447.648 241.744Z" fill="#F79395"/>
<path d="M401.304 109.92C401.304 109.92 410.809 84.8451 440.12 98.1758C457.861 106.244 462.829 117.062 464.942 124.726C465.645 127.274 465.925 131.285 465.734 133.666L458.644 166.965L430.965 120.896L404.18 123.02L401.304 109.92" fill="#28262C"/>
<path d="M458.644 166.965C458.644 166.965 462.137 161.412 469.338 164.142C476.54 166.874 473.282 184.364 462.478 186.593C462.478 186.593 458.606 187.438 455.57 184.786C455.57 184.786 458.226 171.868 458.644 166.965" fill="#EC767F"/>
<path d="M467.91 170.313C467.91 170.313 461.877 168.3 457.594 177.184" stroke="#28262C" stroke-width="1.86241" stroke-miterlimit="10" stroke-linecap="round" stroke-linejoin="round"/>
<path d="M384.922 166.965C384.922 166.965 381.432 161.412 374.229 164.142C367.028 166.874 370.285 184.364 381.088 186.593C381.088 186.593 384.961 187.438 387.997 184.786C387.997 184.786 385.341 171.868 384.922 166.965" fill="#EC767F"/>
<path d="M375.658 170.313C375.658 170.313 381.69 168.3 385.972 177.184" stroke="#28262C" stroke-width="1.86241" stroke-miterlimit="10" stroke-linecap="round" stroke-linejoin="round"/>
<path d="M459.365 150.368C459.369 160.912 458.334 182.972 451.853 196.064C445.766 208.357 435.7 214.972 422.504 215.366C409.306 215.76 399.476 210.674 391.597 194.72C383.718 178.765 384.096 150.564 384.096 150.564C384.096 150.564 384.096 112.898 421.321 112.898C460.529 112.898 459.365 150.368 459.365 150.368" fill="#F79395"/>
<path d="M396.245 202.582C396.245 202.582 400.582 224.59 419.734 227.118C441.777 230.028 447.648 203.142 447.648 203.142C447.648 203.142 437.908 215.348 422.504 215.366C405.324 215.388 396.245 202.582 396.245 202.582" fill="#28262C"/>
<path d="M419.076 166.005V174.722C419.076 175.097 419.148 175.456 419.278 175.784C419.796 177.076 421.281 177.694 422.625 177.337L425.514 176.568" stroke="#28262C" stroke-width="1.86241" stroke-miterlimit="10" stroke-linecap="round" stroke-linejoin="round"/>
<path d="M408.081 161.842C408.081 163.714 406.564 165.232 404.693 165.232C402.821 165.232 401.304 163.714 401.304 161.842C401.304 159.972 402.821 158.453 404.693 158.453C406.564 158.453 408.081 159.972 408.081 161.842Z" fill="#28262C"/>
<path d="M439.856 161.842C439.856 163.714 438.337 165.232 436.466 165.232C434.594 165.232 433.077 163.714 433.077 161.842C433.077 159.972 434.594 158.453 436.466 158.453C438.337 158.453 439.856 159.972 439.856 161.842Z" fill="#28262C"/>
<path d="M427.792 144.982L450.577 150.869C450.577 150.869 449.541 144.477 440.22 142.156C430.898 139.833 427.792 144.982 427.792 144.982Z" fill="#28262C"/>
<path d="M413.633 144.982L390.848 150.869C390.848 150.869 391.884 144.477 401.204 142.156C410.526 139.833 413.633 144.982 413.633 144.982Z" fill="#28262C"/>
<path d="M409.101 183.505C409.101 183.505 412.462 186.081 421.301 186.081C429.34 186.081 434.361 183.505 434.361 183.505" stroke="#28262C" stroke-width="1.86241" stroke-miterlimit="10" stroke-linecap="round" stroke-linejoin="round"/>
<path d="M418.181 162.832C418.181 170.785 411.733 177.233 403.78 177.233C395.828 177.233 389.38 170.785 389.38 162.832C389.38 154.88 395.828 148.432 403.78 148.432C411.733 148.432 418.181 154.88 418.181 162.832Z" stroke="white" stroke-width="2.60191" stroke-miterlimit="10"/>
<path d="M453.557 162.832C453.557 170.785 447.111 177.233 439.157 177.233C431.204 177.233 424.756 170.785 424.756 162.832C424.756 154.88 431.204 148.432 439.157 148.432C447.111 148.432 453.557 154.88 453.557 162.832Z" stroke="white" stroke-width="2.60191" stroke-miterlimit="10"/>
<path d="M418.181 162.832C418.181 162.832 421.592 159.649 424.756 162.832" stroke="white" stroke-width="2.60191" stroke-miterlimit="10"/>
<path d="M389.38 162.832L384.552 162.71" stroke="white" stroke-width="2.60191" stroke-miterlimit="10"/>
<path d="M453.557 162.832L458.948 162.745" stroke="white" stroke-width="2.60191" stroke-miterlimit="10"/>
<path d="M396.245 117.61C396.245 117.61 403.161 137.257 434.365 136.654C455.57 136.245 460.637 151.589 460.637 151.589C460.637 151.589 456.946 117.286 455.976 117.61C455.006 117.933 423.71 109.26 423.71 109.26L396.245 117.61Z" fill="#28262C"/>
<path d="M510.904 587.478H508.328V577.916H510.904V587.478ZM511.249 574.788C511.249 575.716 510.528 576.425 509.601 576.425C508.673 576.425 507.964 575.716 507.964 574.788C507.964 573.86 508.673 573.13 509.601 573.13C510.528 573.13 511.249 573.86 511.249 574.788Z" fill="#1F1D21"/>
</svg>
