<svg width="606" height="460" viewBox="0 0 606 460" fill="none" xmlns="http://www.w3.org/2000/svg">
<path d="M433.24 137.141C390.039 96.648 339.432 86.2014 326.053 84.068C335.061 59.7654 348.985 23.6294 352.453 18.2774C353.569 18.1254 355.848 17.8907 359.215 17.8907C369.043 17.8907 390.075 19.936 420.503 33.628C464.441 53.4014 476.204 75.6467 478.515 81.0867L433.24 137.141Z" fill="white"/>
<path d="M359.215 15.2239C353.868 15.2239 351.121 15.7879 351.121 15.7879C347.997 16.8292 322.405 86.2452 322.405 86.2452C322.405 86.2452 383.156 92.4439 433.496 141.068L481.548 81.5745C481.548 81.5745 473.529 54.5665 421.596 31.1959C391.164 17.5012 369.952 15.2239 359.215 15.2239ZM359.215 20.5572C368.829 20.5572 389.435 22.5719 419.409 36.0599C459.161 53.9479 472.007 73.9452 475.391 80.7106L432.956 133.249C407.417 110 379.893 97.1559 360.857 90.3959C347.357 85.6025 336.305 83.1465 329.681 81.9545C339.637 55.2012 350.471 27.6599 354.107 20.7746C355.288 20.6639 356.997 20.5572 359.215 20.5572Z" fill="#A0C6F4"/>
<path d="M331.256 92.3001C331.256 92.3015 331.483 92.3241 331.925 92.3761C338.567 93.1428 393.14 100.459 427.416 131.953C427.688 132.201 428.109 132.184 428.359 131.912C428.607 131.641 428.589 131.22 428.319 130.971C391.265 96.9868 331.445 90.9948 331.389 90.9748C331.024 90.9375 330.696 91.2041 330.66 91.5708C330.623 91.9375 330.889 92.2641 331.256 92.3015" fill="#2A1E17"/>
<path d="M382.907 88.7239L405.192 45.3919L428.096 90.5813L382.907 88.7239Z" fill="#A0C6F4"/>
<path d="M387.24 88.1053L387.832 88.4093L409.52 46.2387L431.321 89.2493L387.267 87.4387L387.24 88.1053L387.832 88.4093L387.24 88.1053L387.212 88.7707L432.403 90.628C432.639 90.6387 432.863 90.5213 432.991 90.3227C433.119 90.124 433.131 89.8707 433.024 89.6613L410.119 44.472C410.005 44.248 409.777 44.1067 409.527 44.1067C409.276 44.1053 409.047 44.2453 408.932 44.468L386.647 87.8C386.543 88.0027 386.549 88.244 386.664 88.44C386.777 88.6373 386.985 88.7613 387.212 88.7707L387.24 88.1053Z" fill="#2A1E17"/>
<path d="M366.26 13.2559C366.261 13.2559 366.512 13.2786 367.008 13.3346C374.451 14.1599 435.607 22.3772 474.423 68.5345C474.659 68.8159 475.08 68.8519 475.361 68.6146C475.643 68.3772 475.68 67.9572 475.442 67.6759C454.517 42.8106 427.255 28.8839 405.233 21.1652C383.211 13.4452 366.417 11.9319 366.38 11.9279C366.013 11.8945 365.689 12.1652 365.656 12.5319C365.623 12.8986 365.893 13.2225 366.26 13.2559Z" fill="#2A1E17"/>
<path d="M400.541 204.617C396.864 201.913 394.451 200.099 394.451 200.099C395.471 198.74 411.588 181.568 420.919 167.731C420.919 167.731 402.047 205.723 400.541 204.617Z" fill="#2A1E17"/>
<path d="M171.588 79.7986C172.073 80.6026 172.511 81.1719 173.055 81.5626C173.599 81.9559 174.233 82.0986 174.876 82.0932C176.093 82.0839 177.515 81.7039 179.989 81.5172C180.221 81.4986 180.458 81.4906 180.701 81.4906C183.101 81.4866 185.984 82.3773 188.534 84.0079C191.09 85.6373 193.309 87.9933 194.479 90.8759C195.702 93.8759 196.136 95.6533 196.128 96.6346C196.125 97.1786 196.017 97.4506 195.876 97.6546C195.733 97.8586 195.505 98.0292 195.165 98.2226C195.101 98.2639 194.811 98.3746 194.428 98.4786C193.059 98.8586 190.409 99.3452 188.063 99.9519C186.884 100.259 185.777 100.592 184.901 100.984C184.462 101.181 184.08 101.391 183.761 101.644C183.449 101.897 183.169 102.211 183.075 102.66C183.001 103.021 183.236 103.372 183.597 103.445C183.957 103.517 184.309 103.283 184.381 102.923L184.431 102.844C184.512 102.737 184.74 102.556 185.077 102.38C186.268 101.743 188.657 101.144 190.845 100.663C191.944 100.42 193 100.199 193.864 99.9959C194.296 99.8932 194.681 99.7959 195.005 99.6986C195.333 99.5999 195.591 99.5119 195.827 99.3813C196.219 99.1559 196.641 98.8812 196.964 98.4239C197.289 97.9692 197.465 97.3666 197.461 96.6346C197.455 95.3013 196.956 93.4439 195.713 90.3746C194.415 87.1813 191.997 84.6359 189.252 82.8839C186.504 81.1332 183.422 80.1599 180.701 80.1572C180.426 80.1572 180.155 80.1666 179.888 80.1879C177.333 80.3866 175.789 80.7679 174.876 80.7599C174.388 80.7546 174.127 80.6826 173.827 80.4759C173.527 80.2653 173.172 79.8493 172.732 79.1133C172.543 78.7973 172.133 78.6946 171.817 78.8839C171.501 79.0732 171.399 79.4826 171.588 79.7986Z" fill="#2A1E17"/>
<path d="M306.523 404.072L301.876 396.217L285.392 423.693L289.719 427.021L306.523 404.072Z" fill="#F9865F"/>
<path d="M197.064 335.937C197.064 335.937 188.523 322.049 192.187 315.245L219.436 318.16L197.064 335.937Z" fill="#F9865F"/>
<path d="M197.064 335.937L198.696 339.689L193.663 359.32C193.028 361.793 193.849 364.411 195.781 366.079L220.703 329.237C223.071 325.739 222.532 321.035 219.436 318.16L213.868 312.987L197.064 335.937Z" fill="black"/>
<path d="M183.728 102.791C191.532 102.605 201.421 102.111 199.444 96.1772C197.467 90.2439 190.049 75.4092 173.237 79.8599C173.237 79.8599 167.304 84.8052 174.72 93.7052C182.139 102.605 183.728 102.791 183.728 102.791Z" fill="#2A1E33"/>
<path d="M223.228 318.488C223.228 318.488 209.907 279.157 221.179 261.888C230.481 247.636 260.876 270.817 265.04 273.941L286.788 234.665C286.788 234.665 281.768 227.627 269.441 220.736C257.116 213.844 206.197 193.205 182.268 230.96C173.424 244.913 173.289 304.789 190.251 327.737L223.228 318.488Z" fill="#7595EC"/>
<path d="M223.859 318.275C223.859 318.273 223.759 317.979 223.58 317.417C222.329 313.495 217.312 296.736 217.316 281.527C217.312 274.175 218.496 267.205 221.736 262.252C222.752 260.7 224.007 259.644 225.467 258.957C226.927 258.272 228.605 257.961 230.445 257.961C236.556 257.948 244.361 261.452 250.972 265.295C257.593 269.133 263.041 273.275 264.64 274.475C264.935 274.696 265.352 274.636 265.573 274.341C265.795 274.047 265.735 273.629 265.44 273.408C263.839 272.207 258.341 268.025 251.641 264.141C244.931 260.261 237.039 256.641 230.445 256.628C228.457 256.628 226.579 256.964 224.901 257.751C223.224 258.535 221.759 259.776 220.62 261.524C217.157 266.839 215.987 274.039 215.983 281.527C215.989 299.224 222.589 318.667 222.596 318.703C222.715 319.051 223.093 319.237 223.441 319.12C223.791 319.001 223.977 318.623 223.86 318.275" fill="#2A1E17"/>
<path d="M286.788 234.665C276.897 245.077 247.573 295.797 240.979 320.037C232.159 352.463 235.475 379.356 283.955 432.012L307.388 397.88C307.388 397.88 290.912 372.861 293.988 349.276C298.437 315.156 322.719 282.075 335.004 261.091L286.788 234.665Z" fill="#7595EC"/>
<path d="M290.511 239.073L329.492 269.667L341.14 251.956L290.511 239.073Z" fill="#2A1E17"/>
<path d="M514.403 206.907C520.481 208.209 525.113 210.525 528.297 213.855C531.48 217.183 530.033 218.919 528.876 219.932C527.717 220.945 523.232 219.788 519.324 216.313C515.416 212.841 514.403 206.907 514.403 206.907Z" fill="#FF8A66"/>
<path d="M394.451 200.099C395.471 198.74 411.588 181.568 420.919 167.731C420.919 167.731 449.125 199.335 452.184 200.355C453.321 200.733 460.236 200.643 468.823 200.555C483.336 200.404 502.627 200.259 506.896 202.393C513.693 205.792 517.771 207.491 519.471 212.249C521.169 217.007 521.839 220.113 517.771 220.405C513.013 220.745 509.955 214.628 509.955 214.628C509.955 214.628 506.068 216.975 496.023 220.745C496.023 220.745 459.877 234.776 435.719 227.989C429.121 226.137 394.451 200.099 394.451 200.099Z" fill="#F9865F"/>
<path d="M175.352 73.8721C172.251 75.0534 170.365 76.4641 172.16 79.4561C173.956 82.4481 174.753 81.2508 179.939 80.8521C185.125 80.4534 192.504 84.2428 195.096 90.6254C197.689 97.0068 196.892 98.0041 195.496 98.8028C194.099 99.6001 184.128 100.796 183.728 102.791C183.329 104.785 187.769 110.672 196.944 110.273L199.139 109.875C199.139 109.875 218.431 128.719 221.224 131.511C224.016 134.304 244.536 148.205 255.84 151.031C264.432 153.179 281.839 150.409 292.3 148.368C297.379 147.377 300.82 146.557 300.82 146.557C300.82 146.557 292.972 132.417 291.375 110.679C291.375 110.679 272.596 113.695 260.117 116.433C260.117 116.433 230.996 100.197 216.836 93.0187C216.836 93.0187 204.471 77.8614 198.687 75.8654C192.903 73.8721 179.54 72.2761 175.352 73.8721Z" fill="#F9865F"/>
<path d="M292.3 148.368C297.379 147.377 300.82 146.557 300.82 146.557C300.82 146.557 291.325 134.588 289.731 112.849C289.731 112.849 285.437 117.475 286.772 129.788C288.451 145.263 292.3 148.368 292.3 148.368Z" fill="#2A1E17"/>
<path d="M289.271 110.416C289.271 110.416 289.533 136.981 296.651 148.064L299.203 147.043C299.203 147.043 265.663 186.28 254.815 211.919C253.04 216.115 324.453 261.731 335.004 261.091C335.004 261.091 369.797 207.987 381.697 192.245L394.487 202.156C394.487 202.156 419.572 176.752 420.919 167.731C420.919 167.731 396.691 138.248 376.867 129.615C357.045 120.983 339.332 106.195 318.039 106.596C299.607 106.943 289.271 110.416 289.271 110.416Z" fill="#FFF7C9"/>
<path d="M394.487 202.156L381.697 192.245L383.736 186.695L394.487 202.156Z" fill="#2A1E17"/>
<path d="M413.941 97.1106C411.701 104.075 405.236 124.223 398.023 126.709C390.808 129.196 383.299 126.073 383.299 126.073L375.615 130.005C374.757 132.577 368.693 134.792 360.861 135.093C355.064 135.316 351.533 127.871 353.251 122.481C354.037 120.007 356.98 107.805 356.98 107.805C356.98 107.805 363.199 84.9213 368.92 80.1959C374.64 75.4706 380.017 70.7906 395.287 76.9626C418.667 86.4146 413.941 97.1106 413.941 97.1106Z" fill="#F9865F"/>
<path d="M367.588 98.1013C366.563 102.379 362.115 110.932 359.207 109.392C356.299 107.852 355.272 103.917 357.324 96.3907C359.377 88.864 361.088 71.7574 366.905 68.6774C372.721 65.5987 375.287 69.192 375.287 69.192C375.287 69.192 372.721 56.7027 380.248 54.9933C380.248 54.9933 382.813 53.7947 381.788 62.348C381.788 62.348 384.695 54.4787 394.104 55.5054C403.513 56.532 406.763 69.704 406.763 69.704C406.763 69.704 407.448 66.112 411.724 66.112C416.001 66.112 422.501 72.4413 420.963 79.4547C420.963 79.4547 431.907 76.0293 437.727 84.7587C443.543 93.4827 442.859 103.063 428.831 106.827C414.164 110.761 414.291 93.6533 412.067 91.4293C409.843 89.2067 407.448 86.64 399.236 89.72C391.025 92.7987 382.472 83.732 382.472 83.732C382.472 83.732 381.103 94.68 379.735 95.7067C378.365 96.7334 375.629 98.1013 376.312 92.9694C376.997 87.8374 377.853 88.3507 377.34 86.9827C376.827 85.6134 374.512 81.296 369.641 85.1C364.168 89.3773 367.588 98.1013 367.588 98.1013Z" fill="#2A1E33"/>
<path d="M370.347 99.5066C368.245 97.7453 366.608 95.0746 366.615 92.2013C366.616 90.8373 366.972 89.4133 367.836 87.9573C369.653 84.8946 372.215 83.6853 373.956 83.6919C374.821 83.6919 375.44 83.9786 375.745 84.3746C376.507 85.3426 377.015 86.7533 377.015 88.4906C377.015 89.6319 376.796 90.9119 376.285 92.2933C376.159 92.6386 376.335 93.0226 376.68 93.1506C377.027 93.2773 377.409 93.1013 377.537 92.7559C378.096 91.2399 378.348 89.8026 378.348 88.4906C378.348 86.4959 377.765 84.7879 376.793 83.5506C376.148 82.7373 375.101 82.3573 373.956 82.3586C371.632 82.3653 368.716 83.8773 366.691 87.276C365.709 88.9226 365.28 90.6013 365.281 92.2013C365.288 95.5906 367.16 98.5693 369.489 100.528C369.771 100.765 370.192 100.728 370.428 100.447C370.665 100.164 370.628 99.744 370.347 99.5066Z" fill="#2A1E33"/>
<path d="M289.719 427.021L291.352 430.772L286.317 450.405C285.684 452.876 286.504 455.493 288.435 457.161L313.357 420.321C315.724 416.821 315.188 412.119 312.091 409.244L306.523 404.072L289.719 427.021Z" fill="black"/>
<path d="M375.924 68.9961C375.911 68.9548 375.416 67.3481 374.169 65.5095C372.925 63.6748 370.905 61.5855 367.841 60.7081C367.488 60.6081 367.119 60.8121 367.017 61.1668C366.917 61.5201 367.121 61.8895 367.476 61.9908C370.133 62.7481 371.927 64.5801 373.065 66.2575C373.635 67.0948 374.033 67.8868 374.289 68.4655C374.417 68.7548 374.508 68.9895 374.567 69.1508L374.632 69.3335L374.649 69.3868C374.757 69.7388 375.131 69.9375 375.483 69.8295C375.835 69.7201 376.032 69.3481 375.924 68.9961Z" fill="#2A1E33"/>
<path d="M254.576 210.433L323.617 113.989C323.832 113.689 323.763 113.273 323.464 113.059C323.164 112.844 322.748 112.913 322.533 113.213L253.492 209.657C253.277 209.957 253.347 210.373 253.645 210.588C253.945 210.801 254.361 210.733 254.576 210.433Z" fill="#2A1E17"/>
<path d="M351.005 119.941C350.464 120.652 350.043 121.663 349.729 122.881C349.419 124.099 349.231 125.52 349.231 127.016C349.232 129.611 349.793 132.439 351.352 134.744C352.904 137.052 355.501 138.779 359.305 139.068C360.267 139.144 361.2 139.179 362.103 139.179C372.155 139.176 378.429 134.873 378.496 134.829C378.8 134.621 378.876 134.205 378.668 133.903C378.46 133.599 378.044 133.521 377.741 133.731L377.683 133.769C377.037 134.192 371.16 137.848 362.103 137.845C361.235 137.845 360.336 137.812 359.411 137.739C355.951 137.456 353.817 135.988 352.456 133.996C351.099 132 350.561 129.42 350.564 127.016C350.564 125.633 350.74 124.312 351.021 123.211C351.299 122.111 351.695 121.227 352.063 120.755C352.287 120.463 352.232 120.044 351.94 119.82C351.648 119.596 351.229 119.651 351.005 119.941Z" fill="#2A1E17"/>
<path d="M198.155 76.268C198.156 76.2693 198.644 76.916 199.401 77.9493C200.536 79.5 202.268 81.916 203.827 84.2813C205.384 86.6373 206.776 88.9906 207.187 90.2426C207.303 90.592 207.68 90.7813 208.029 90.664C208.379 90.548 208.568 90.1706 208.452 89.8213C208.104 88.7879 207.364 87.428 206.437 85.9026C203.665 81.3493 199.224 75.4733 199.219 75.464C198.996 75.1706 198.579 75.112 198.284 75.3333C197.991 75.556 197.932 75.9733 198.155 76.268Z" fill="#2A1E17"/>
<path d="M493.757 216.419C493.836 216.487 495.936 218.172 500.003 218.171C502.631 218.172 506.064 217.465 510.269 215.216C511.687 214.471 512.429 213.252 512.42 212.031C512.419 210.989 511.913 210.001 511.081 209.287C510.249 208.571 509.081 208.117 507.721 208.117C507.196 208.117 506.644 208.185 506.069 208.328C504.933 208.613 503.724 208.723 502.552 208.723C500.792 208.723 499.115 208.476 497.885 208.227C497.269 208.103 496.767 207.979 496.419 207.887C496.245 207.841 496.111 207.803 496.02 207.776L495.888 207.736C495.537 207.625 495.163 207.82 495.052 208.172C494.941 208.523 495.136 208.897 495.487 209.008C495.523 209.017 498.787 210.053 502.552 210.056C503.807 210.056 505.12 209.94 506.393 209.623C506.867 209.504 507.311 209.451 507.721 209.451C508.787 209.452 509.635 209.801 510.212 210.297C510.791 210.796 511.088 211.432 511.087 212.031C511.077 212.724 510.725 213.445 509.64 214.04C505.596 216.203 502.392 216.836 500.003 216.837C498.156 216.837 496.791 216.457 495.892 216.088C495.443 215.903 495.111 215.719 494.896 215.587L494.661 215.432L494.611 215.393L494.603 215.387L494.48 215.54L494.604 215.389L494.603 215.387L494.48 215.54L494.604 215.389C494.32 215.155 493.9 215.196 493.667 215.48C493.432 215.764 493.473 216.184 493.757 216.419Z" fill="#2A1E17"/>
<path d="M515.705 207.943C515.705 207.943 515.776 208.025 515.907 208.185C516.367 208.745 517.529 210.209 518.564 211.892C519.605 213.565 520.484 215.496 520.468 216.773L520.465 216.892C520.452 217.26 520.74 217.569 521.108 217.583C521.476 217.596 521.784 217.309 521.797 216.941L521.801 216.773C521.797 215.739 521.455 214.652 520.973 213.569C519.524 210.337 516.735 207.101 516.717 207.075C516.477 206.796 516.056 206.764 515.777 207.003C515.497 207.243 515.465 207.664 515.705 207.943Z" fill="#2A1E17"/>
<path d="M442.296 207.267L442.341 207.208C442.583 206.899 443.777 205.42 445.559 203.991C447.34 202.557 449.699 201.195 452.231 201.019C452.599 200.993 452.875 200.673 452.848 200.307C452.823 199.94 452.503 199.663 452.136 199.689C448.991 199.92 446.285 201.636 444.352 203.256C442.419 204.883 441.249 206.44 441.229 206.465C441.009 206.76 441.068 207.179 441.363 207.399C441.657 207.62 442.075 207.56 442.296 207.267Z" fill="#2A1E17"/>
<path d="M249.525 126.484L249.551 126.408C249.696 125.996 250.465 123.981 252.149 121.925C253.839 119.865 256.412 117.775 260.235 117.089C260.597 117.025 260.839 116.679 260.773 116.316C260.708 115.953 260.363 115.712 260 115.777C255.52 116.576 252.567 119.167 250.765 121.525C248.961 123.887 248.272 126.029 248.256 126.076C248.143 126.427 248.336 126.803 248.687 126.915C249.037 127.027 249.413 126.835 249.525 126.484Z" fill="#2A1E17"/>
<path d="M271.485 252.204L261.277 271.731L261.868 272.039L261.295 271.7C261.284 271.717 255.121 282.148 248.953 296.981C242.788 311.817 236.607 331.049 236.603 348.739C236.603 354.741 237.316 360.568 238.997 365.984C239.107 366.336 239.48 366.532 239.832 366.423C240.184 366.315 240.38 365.94 240.271 365.589C238.639 360.331 237.936 354.636 237.936 348.739C237.932 331.357 244.051 312.239 250.184 297.493C253.251 290.12 256.317 283.836 258.617 279.399C259.767 277.18 260.724 275.423 261.393 274.221C261.728 273.62 261.992 273.159 262.171 272.847C262.349 272.536 262.443 272.379 262.443 272.379L262.459 272.348L272.667 252.821C272.837 252.496 272.711 252.093 272.384 251.923C272.059 251.752 271.655 251.877 271.485 252.204Z" fill="#2A1E17"/>
<path d="M302.467 318.191L335.58 261.427L335.004 261.091L335.553 261.469C335.553 261.468 346.404 245.731 357.811 228.881C363.515 220.456 369.357 211.753 374.053 204.599C376.401 201.021 378.463 197.831 380.079 195.253C381.696 192.673 382.861 190.719 383.441 189.561L382.845 189.264L383.432 189.581L398.747 161.247C398.921 160.923 398.801 160.517 398.477 160.343C398.153 160.168 397.749 160.288 397.573 160.612L382.259 188.947L382.249 188.965C381.717 190.029 380.556 191.984 378.949 194.545C373.32 203.525 362.192 220.076 352.477 234.369C347.619 241.517 343.113 248.104 339.823 252.903C338.177 255.303 336.835 257.255 335.904 258.608C334.973 259.96 334.456 260.711 334.455 260.713L334.428 260.755L301.315 317.519C301.129 317.836 301.236 318.244 301.555 318.431C301.872 318.616 302.281 318.508 302.467 318.191Z" fill="#2A1E17"/>
<path d="M258.264 216.629C258.269 216.633 272.997 227.372 289.919 238.375C298.38 243.876 307.388 249.444 315.391 253.773C323.404 258.101 330.359 261.201 334.925 261.753C335.291 261.796 335.623 261.535 335.665 261.169C335.709 260.804 335.448 260.472 335.083 260.429C330.917 259.948 323.963 256.905 316.025 252.601C304.099 246.148 289.845 236.881 278.584 229.233C272.952 225.408 268.068 221.987 264.591 219.523C262.853 218.291 261.467 217.297 260.516 216.613C259.564 215.928 259.051 215.553 259.049 215.552C258.752 215.336 258.335 215.401 258.117 215.699C257.9 215.996 257.965 216.413 258.264 216.629Z" fill="#2A1E17"/>
<path d="M288.604 110.405V110.432C288.604 110.828 288.617 117.619 289.529 125.696C290.451 133.779 292.228 143.127 295.924 148.771C296.125 149.079 296.539 149.164 296.847 148.961C297.155 148.759 297.24 148.345 297.037 148.039C293.575 142.796 291.747 133.537 290.853 125.547C289.951 117.549 289.937 110.797 289.937 110.432V110.425C289.943 110.057 289.648 109.755 289.28 109.749C288.912 109.744 288.609 110.037 288.604 110.405Z" fill="#2A1E17"/>
<path d="M418.371 163.352C417.949 165.937 416.111 169.443 413.568 173.148C409.757 178.719 404.392 184.795 399.987 189.465C397.783 191.801 395.819 193.787 394.407 195.188C393.7 195.889 393.132 196.443 392.74 196.823C392.349 197.201 392.137 197.403 392.136 197.403C391.869 197.656 391.857 198.079 392.111 198.345C392.365 198.613 392.787 198.624 393.053 198.371C393.063 198.363 399.219 192.523 405.619 185.28C408.819 181.657 412.079 177.685 414.668 173.901C417.255 170.112 419.184 166.537 419.687 163.571C419.747 163.207 419.501 162.864 419.139 162.804C418.775 162.743 418.432 162.988 418.371 163.352Z" fill="#2A1E17"/>
<path d="M239.112 298.267C239.112 300.197 237.547 301.763 235.616 301.763C233.684 301.763 232.119 300.197 232.119 298.267C232.119 296.336 233.684 294.769 235.616 294.769C237.547 294.769 239.112 296.336 239.112 298.267Z" fill="#2A1E17"/>
<path d="M563.671 373.403L564.331 373.307L562.611 361.408L571.467 367.296L567.033 368.263C566.88 368.296 566.747 368.38 566.651 368.504L563.145 372.992L563.671 373.403L564.331 373.307L563.671 373.403L564.196 373.812L567.553 369.513L573.288 368.263C573.549 368.207 573.752 367.999 573.801 367.735C573.851 367.472 573.737 367.205 573.515 367.057L562.108 359.472C561.888 359.327 561.604 359.323 561.381 359.464C561.16 359.604 561.041 359.861 561.079 360.123L563.011 373.497C563.049 373.763 563.241 373.977 563.499 374.047C563.757 374.116 564.031 374.024 564.196 373.812L563.671 373.403Z" fill="#2A1E17"/>
<path d="M185.791 144.589C182.719 141.88 179.325 140.432 176.08 140.431C172.605 140.423 169.345 142.128 167.043 145.527C164.733 148.924 163.327 153.979 163.325 160.793C163.331 173.893 168.524 193.548 182.969 220.688C197.417 247.827 221.128 282.44 258.219 325.396C283.269 354.411 306.551 374.676 326.799 387.7C347.049 400.72 364.261 406.516 377.24 406.521C383.817 406.521 389.319 405.024 393.536 402.181C397.753 399.343 400.655 395.155 402.037 389.908C403.844 383.072 404.616 376.859 404.616 371.263C404.617 358.259 400.441 348.593 395.444 342.187C392.944 338.983 390.241 336.589 387.741 334.988C385.235 333.389 382.952 332.564 381.168 332.556C380.328 332.556 379.569 332.747 378.989 333.219C378.405 333.691 378.093 334.44 378.101 335.263C378.105 336.236 378.472 337.352 379.209 338.671C379.948 339.989 381.071 341.509 382.647 343.249C390.672 352.103 402.793 358.937 417.387 363.576C431.981 368.212 449.056 370.647 467.017 370.648C494.949 370.647 525.027 364.757 551.221 352.035C564.209 345.725 572.645 338.624 577.835 331.323C583.025 324.024 584.949 316.529 584.947 309.525C584.945 300.572 581.829 292.423 578.467 286.324C576.785 283.273 575.039 280.735 573.579 278.859C572.848 277.921 572.189 277.149 571.641 276.559C571.089 275.967 570.668 275.567 570.335 275.327C570.035 275.115 569.619 275.185 569.405 275.485C569.192 275.785 569.263 276.201 569.564 276.415C569.743 276.539 570.153 276.913 570.664 277.467C572.476 279.416 575.733 283.66 578.516 289.295C581.301 294.933 583.615 301.965 583.615 309.525C583.612 316.288 581.775 323.475 576.748 330.551C571.72 337.625 563.48 344.596 550.639 350.835C524.661 363.456 494.764 369.316 467.017 369.315C449.177 369.315 432.227 366.892 417.791 362.305C403.352 357.72 391.435 350.965 383.635 342.355C382.107 340.669 381.043 339.216 380.372 338.019C379.699 336.823 379.431 335.881 379.435 335.263C379.444 334.729 379.591 334.459 379.836 334.249C380.084 334.041 380.524 333.888 381.168 333.889C382.529 333.881 384.667 334.595 387.023 336.111C394.117 340.656 403.284 352.195 403.283 371.263C403.283 376.736 402.528 382.833 400.748 389.568C399.431 394.541 396.735 398.414 392.791 401.076C388.844 403.737 383.619 405.188 377.24 405.188C364.657 405.193 347.629 399.517 327.52 386.579C307.409 373.644 284.212 353.463 259.227 324.525C222.185 281.625 198.531 247.081 184.147 220.061C169.76 193.045 164.655 173.544 164.659 160.793C164.657 154.159 166.04 149.365 168.145 146.277C170.259 143.191 173.041 141.772 176.08 141.764C178.92 141.763 182.021 143.041 184.908 145.589C185.184 145.833 185.605 145.807 185.849 145.531C186.092 145.255 186.067 144.833 185.791 144.589Z" fill="#2A1E17"/>
<path d="M555.368 351.163C555.368 353.093 553.804 354.66 551.872 354.66C549.94 354.66 548.375 353.093 548.375 351.163C548.375 349.232 549.94 347.667 551.872 347.667C553.804 347.667 555.368 349.232 555.368 351.163Z" fill="#2A1E17"/>
<path d="M501.32 380.283L604.963 321.864C605.284 321.684 605.397 321.277 605.216 320.956C605.035 320.636 604.629 320.523 604.308 320.703L500.665 379.121C500.344 379.301 500.231 379.708 500.412 380.029C500.592 380.349 500.999 380.464 501.32 380.283Z" fill="#2A1E17"/>
<path d="M191.003 147.916C191.003 149.847 189.436 151.413 187.505 151.413C185.575 151.413 184.009 149.847 184.009 147.916C184.009 145.985 185.575 144.419 187.505 144.419C189.436 144.419 191.003 145.985 191.003 147.916Z" fill="#2A1E17"/>
<path d="M284.163 75.7267C284.163 79.8707 280.805 83.228 276.661 83.228C272.519 83.228 269.16 79.8707 269.16 75.7267C269.16 71.584 272.519 68.2254 276.661 68.2254C280.805 68.2254 284.163 71.584 284.163 75.7267Z" fill="#FF6D66"/>
<path d="M140.54 18.512C138.719 18.512 137.243 19.988 137.243 21.8094C137.243 23.6307 138.719 25.1067 140.54 25.1067C142.361 25.1067 143.839 23.6307 143.839 21.8094C143.839 19.988 142.361 18.512 140.54 18.512Z" fill="#A0C6F4"/>
<path d="M585.701 424.787C585.701 426.608 584.225 428.084 582.404 428.084C580.584 428.084 579.107 426.608 579.107 424.787C579.107 422.965 580.584 421.488 582.404 421.488C584.225 421.488 585.701 422.965 585.701 424.787Z" fill="#FAD8B0"/>
<path d="M523.483 275.857L488.033 259.22C485.173 257.877 485.223 253.793 488.115 252.52L554.068 223.5C555.001 223.089 556.064 223.084 557.001 223.487L602.303 242.932L523.483 275.857Z" fill="#2A1E33"/>
<path d="M521.288 221.181C521.377 235.851 523.483 275.857 523.483 275.857L602.303 242.932L600.535 187.261C600.427 183.845 596.875 181.64 593.765 183.057L525.901 213.983C523.08 215.268 521.268 218.081 521.288 221.181Z" fill="#C6CBCB"/>
<path d="M523.74 276.472L602.559 243.548C602.813 243.441 602.977 243.187 602.968 242.911L601.201 187.24L601.199 187.204C601.192 187.153 601.093 185.941 600.403 184.663C600.056 184.024 599.553 183.364 598.821 182.863C598.092 182.359 597.137 182.029 595.973 182.032C595.256 182.032 594.46 182.153 593.573 182.419C593.221 182.524 593.021 182.896 593.127 183.249C593.233 183.601 593.604 183.801 593.957 183.696C594.739 183.461 595.407 183.365 595.973 183.365C596.895 183.368 597.551 183.609 598.067 183.961C598.837 184.487 599.304 185.319 599.564 186.044C599.693 186.404 599.772 186.733 599.816 186.967L599.861 187.237L599.869 187.305L599.871 187.319L600.535 187.261L599.869 187.283L601.621 242.495L523.227 275.241C522.887 275.384 522.725 275.775 522.868 276.113C523.009 276.453 523.4 276.613 523.74 276.472Z" fill="#2A1E17"/>
<path d="M562.247 236.104L567.568 223.525C567.712 223.187 567.553 222.795 567.215 222.652C566.875 222.508 566.484 222.667 566.34 223.005L561.019 235.584C560.875 235.923 561.033 236.315 561.373 236.457C561.712 236.601 562.103 236.443 562.247 236.104Z" fill="#2A1E17"/>
<path d="M567.568 236.104L572.889 223.525C573.033 223.187 572.875 222.795 572.536 222.652C572.197 222.508 571.805 222.667 571.663 223.005L566.34 235.584C566.197 235.923 566.356 236.315 566.695 236.457C567.033 236.601 567.425 236.443 567.568 236.104Z" fill="#2A1E17"/>
<path d="M158.055 369.751C158.055 371.573 156.579 373.049 154.756 373.049C152.935 373.049 151.46 371.573 151.46 369.751C151.46 367.931 152.935 366.455 154.756 366.455C156.579 366.455 158.055 367.931 158.055 369.751Z" fill="#FF6D66"/>
<path d="M437.38 386.089C437.38 388.62 435.328 390.671 432.799 390.671C430.267 390.671 428.216 388.62 428.216 386.089C428.216 383.559 430.267 381.508 432.799 381.508C435.328 381.508 437.38 383.559 437.38 386.089Z" fill="#FF6D66"/>
<path d="M188.932 418.645C194.299 421.219 209.909 427.71 230.572 427.574C231.701 427.567 232.577 428.568 232.435 429.689L229.557 452.524C229.456 453.337 228.843 453.986 228.036 454.138C222.2 455.233 198.676 458.462 181.08 443.538C180.529 443.074 180.308 442.324 180.495 441.629L186.309 419.86C186.613 418.722 187.871 418.138 188.932 418.645Z" fill="#FFF7DC"/>
<path d="M190.457 425.744C190.46 425.75 193.005 429.326 196.011 433.165C197.513 435.086 199.131 437.072 200.611 438.717C202.1 440.367 203.407 441.66 204.463 442.267C204.907 442.514 205.411 442.592 205.96 442.593C207.517 442.586 209.6 441.94 211.961 441.005C219.008 438.198 228.309 432.648 228.325 432.64C228.641 432.452 228.745 432.043 228.557 431.727C228.368 431.41 227.959 431.307 227.643 431.495C227.643 431.496 227.388 431.646 226.928 431.915C225.315 432.855 221.199 435.208 216.901 437.319C214.753 438.375 212.56 439.369 210.623 440.093C208.692 440.821 206.993 441.267 205.96 441.26C205.547 441.263 205.259 441.188 205.119 441.105C204.363 440.689 203.037 439.431 201.601 437.827C199.432 435.414 196.911 432.193 194.94 429.583C193.953 428.277 193.104 427.124 192.5 426.297C191.897 425.469 191.544 424.974 191.543 424.972C191.329 424.672 190.913 424.601 190.613 424.815C190.313 425.028 190.243 425.445 190.457 425.745" fill="#2A1E17"/>
<path d="M213.896 440.16L224.576 451.139C224.832 451.401 225.255 451.408 225.519 451.151C225.783 450.895 225.788 450.472 225.531 450.208L214.852 439.231C214.595 438.967 214.173 438.962 213.909 439.217C213.645 439.475 213.639 439.896 213.896 440.16Z" fill="#2A1E17"/>
<path d="M199.363 436.936L186.872 440.332C186.517 440.428 186.307 440.795 186.404 441.151C186.5 441.505 186.867 441.715 187.221 441.619L199.712 438.223C200.068 438.127 200.277 437.76 200.181 437.404C200.084 437.05 199.719 436.84 199.363 436.936Z" fill="#2A1E17"/>
<path d="M515.925 160.447H503.995V148.516H515.925V160.447Z" fill="#FFE1C0"/>
<path d="M505.612 309.448L509.157 315.589L512.704 321.732H498.52L502.067 315.589L505.612 309.448Z" fill="#A0C6F4"/>
<path d="M218.869 37.3441L219.536 37.3654L220.46 9.48146V9.43478L220.455 9.13612C220.457 8.05211 220.689 7.4548 221.005 7.08279C221.321 6.71079 221.803 6.4801 222.504 6.3241C227.083 5.31077 237.271 3.04412 250.127 3.04279C258.504 3.04279 268.008 4.00679 277.816 6.90678C279.124 7.29478 279.736 7.77477 280.048 8.22544C280.36 8.67744 280.433 9.1921 280.435 9.8241C280.435 10.0268 280.427 10.2388 280.42 10.4574V10.4561L279.524 37.0401C279.5 37.7108 279.181 38.2975 278.636 38.7468C278.092 39.1935 277.325 39.4775 276.475 39.4761C276.288 39.4761 276.097 39.4628 275.905 39.4348C269.257 38.4628 260.509 38.1001 251.437 38.0988C250.444 38.0988 249.445 38.1041 248.448 38.1121C237.981 38.2015 228.657 38.9761 222.087 40.2401C221.856 40.2855 221.649 40.3041 221.464 40.3041C220.728 40.2908 220.347 40.0428 220.024 39.5908C219.711 39.1348 219.529 38.4081 219.532 37.5735L219.536 37.3681V37.3654L218.869 37.3441L218.204 37.3201L218.199 37.5735C218.201 38.5841 218.396 39.5574 218.92 40.3374C219.435 41.1241 220.352 41.6508 221.464 41.6374C221.743 41.6374 222.033 41.6081 222.339 41.5495C228.783 40.3081 238.055 39.5321 248.459 39.4455C249.453 39.4375 250.447 39.4321 251.437 39.4321C260.471 39.4321 269.18 39.7974 275.712 40.7548C275.969 40.7921 276.224 40.8095 276.475 40.8095C277.619 40.8095 278.68 40.4335 279.481 39.7788C280.28 39.1281 280.821 38.1734 280.856 37.0854L281.752 10.5014V10.5001C281.759 10.2868 281.768 10.0614 281.768 9.8241C281.769 9.1041 281.687 8.25211 281.145 7.46811C280.605 6.68545 279.671 6.06277 278.195 5.62811C268.237 2.68411 258.605 1.70945 250.127 1.70945C237.12 1.70945 226.811 4.00543 222.216 5.02143C221.383 5.20543 220.577 5.5321 219.991 6.21877C219.404 6.90676 219.119 7.87078 219.121 9.13612L219.128 9.48543L219.795 9.46011L219.128 9.43745L218.204 37.3214V37.3201L218.869 37.3441Z" fill="#2A1E17"/>
<path d="M227.299 33.2666L227.805 33.7L241.915 17.1813L257.541 32.6026L258.009 32.1279L258.216 31.4933C256.745 31.0226 254.349 30.8773 251.428 30.872C241.951 30.8733 227.233 32.604 227.22 32.6053L227.299 33.2666L227.805 33.7L227.299 33.2666L227.376 33.9293C227.379 33.9293 228.292 33.8213 229.816 33.6599C234.385 33.1746 244.427 32.2053 251.428 32.2053C254.283 32.2013 256.66 32.3813 257.803 32.7613C258.097 32.8573 258.417 32.7386 258.579 32.4746C258.74 32.2093 258.697 31.8706 258.477 31.6533L242.341 15.7293C242.209 15.5986 242.031 15.5293 241.845 15.5373C241.66 15.5453 241.487 15.6293 241.367 15.7706L226.791 32.8333C226.613 33.0426 226.581 33.34 226.711 33.5813C226.839 33.8226 227.104 33.9613 227.376 33.9293L227.299 33.2666Z" fill="#2A1E17"/>
<path d="M251.225 24.6239L262.615 15.5079L271.867 22.1106L272.205 32.1399L258.041 31.4613C257.673 31.4439 257.361 31.7279 257.343 32.0959C257.325 32.4639 257.609 32.7759 257.977 32.7933L272.864 33.5053C273.049 33.5146 273.232 33.4453 273.364 33.3146C273.496 33.1839 273.568 33.0026 273.563 32.8172L273.188 21.7359C273.181 21.5293 273.077 21.3373 272.909 21.2159L262.98 14.1293C262.737 13.9559 262.408 13.9653 262.176 14.1519L250.392 23.5826C250.104 23.8119 250.057 24.2319 250.288 24.5199C250.519 24.8066 250.937 24.8533 251.225 24.6239Z" fill="#2A1E17"/>
<path d="M233.641 14.5013L232.98 14.5773L232.989 14.7426C232.988 15.1599 232.808 15.5452 232.468 15.8599C232.128 16.1706 231.628 16.3946 231.032 16.4266L230.883 16.4306C230.28 16.4319 229.72 16.2293 229.311 15.9119C228.899 15.5946 228.649 15.1813 228.6 14.7399L228.591 14.5759C228.591 14.1586 228.772 13.7719 229.112 13.4572C229.452 13.1466 229.952 12.9239 230.547 12.8906L230.699 12.8866C231.3 12.8852 231.86 13.0879 232.269 13.4053C232.68 13.7226 232.929 14.1373 232.98 14.5773L233.641 14.5013L234.304 14.4266C234.207 13.5759 233.733 12.8493 233.084 12.3493C232.432 11.8479 231.595 11.5546 230.699 11.5532L230.473 11.5599C229.589 11.6079 228.796 11.9413 228.212 12.4746C227.629 13.0039 227.256 13.7533 227.257 14.5759L227.275 14.8919C227.372 15.7412 227.847 16.4679 228.496 16.9679C229.148 17.4706 229.985 17.7639 230.883 17.7639L231.105 17.7586C231.991 17.7092 232.784 17.3759 233.368 16.8426C233.951 16.3133 234.323 15.5639 234.323 14.7426L234.304 14.4266L233.641 14.5013Z" fill="#2A1E17"/>
<path d="M500.731 399.61L500.144 399.928L509.921 417.984L509.945 418.026C510.344 418.651 510.467 419.095 510.465 419.4C510.463 419.8 510.283 420.112 509.833 420.538C505.66 424.405 493.032 436.127 474.559 440.686C474.136 440.791 473.792 440.832 473.516 440.832C472.939 440.824 472.681 440.68 472.439 440.465C472.2 440.247 472.001 439.896 471.783 439.486L462.469 422.268C462.353 422.052 462.3 421.827 462.299 421.588C462.291 420.876 462.833 420.031 463.788 419.648C468.889 417.584 475.345 414.088 481.747 410.269C488.368 406.317 494.009 402.355 497.725 399.098C498.117 398.759 498.415 398.669 498.656 398.667C498.892 398.668 499.132 398.759 499.397 398.972C499.66 399.186 499.924 399.52 500.144 399.928L500.731 399.61L501.316 399.293C501.032 398.769 500.68 398.298 500.24 397.94C499.805 397.583 499.26 397.333 498.656 397.333C498.033 397.332 497.407 397.601 496.847 398.096C493.228 401.268 487.632 405.205 481.063 409.124C474.697 412.922 468.272 416.397 463.289 418.412C461.885 418.981 460.973 420.241 460.965 421.588C460.965 422.034 461.072 422.486 461.296 422.901L470.611 440.12C470.828 440.517 471.076 441.014 471.531 441.441C471.983 441.874 472.667 442.174 473.516 442.165C473.924 442.165 474.372 442.105 474.879 441.98C493.725 437.326 506.532 425.408 510.74 421.515C511.307 420.997 511.803 420.302 511.799 419.4C511.797 418.743 511.549 418.062 511.071 417.308L510.508 417.667L511.093 417.35L501.316 399.293L500.731 399.61Z" fill="#2A1E17"/>
<path d="M496.892 405.332L496.236 405.215L493.447 420.767L477.972 416.827L477.807 417.472L477.949 418.124C479.173 417.848 480.887 416.956 482.905 415.761C488.917 412.185 497.283 405.871 497.293 405.864L496.892 405.332L496.236 405.215L496.892 405.332L496.491 404.8C496.488 404.802 495.565 405.497 494.108 406.561C491.924 408.157 488.545 410.573 485.331 412.671C483.724 413.717 482.157 414.685 480.809 415.428C479.468 416.171 478.317 416.684 477.665 416.821C477.363 416.886 477.147 417.151 477.141 417.461C477.136 417.771 477.343 418.043 477.643 418.119L493.812 422.236C493.992 422.281 494.181 422.251 494.337 422.151C494.493 422.049 494.6 421.891 494.633 421.708L497.548 405.449C497.596 405.18 497.475 404.907 497.241 404.764C497.008 404.621 496.709 404.635 496.491 404.8L496.892 405.332Z" fill="#2A1E17"/>
<path d="M484.743 419.656L480.943 429.556L472.831 428.82L469.036 422.81L478.116 418.064C478.443 417.893 478.568 417.491 478.399 417.164C478.228 416.837 477.825 416.71 477.499 416.881L467.777 421.964C467.612 422.049 467.491 422.203 467.443 422.381C467.393 422.561 467.423 422.753 467.523 422.91L471.879 429.81C471.989 429.985 472.176 430.1 472.383 430.119L481.324 430.929C481.62 430.956 481.9 430.783 482.007 430.504L485.987 420.133C486.119 419.789 485.947 419.404 485.604 419.272C485.26 419.14 484.875 419.312 484.743 419.656Z" fill="#2A1E17"/>
<path d="M499.837 419.61L500.371 419.21C500.252 419.051 500.199 418.879 500.197 418.683C500.195 418.32 500.412 417.872 500.876 417.565C501.181 417.363 501.528 417.267 501.845 417.267C502.273 417.268 502.62 417.433 502.812 417.692C502.931 417.852 502.984 418.024 502.985 418.219C502.988 418.581 502.771 419.031 502.305 419.337C502 419.539 501.655 419.636 501.336 419.635C500.908 419.633 500.563 419.469 500.371 419.21L499.837 419.61L499.304 420.01C499.795 420.661 500.568 420.969 501.336 420.968C501.917 420.968 502.513 420.797 503.041 420.449C503.839 419.921 504.316 419.088 504.319 418.219C504.32 417.757 504.176 417.285 503.879 416.891C503.388 416.24 502.615 415.932 501.845 415.933C501.264 415.934 500.668 416.105 500.141 416.453C499.343 416.981 498.867 417.815 498.864 418.683C498.863 419.145 499.007 419.616 499.304 420.01L499.837 419.61Z" fill="#2A1E17"/>
<path d="M453.131 91.3706L492.857 121.777C493.728 122.444 494.976 122.267 495.629 121.384L501.627 113.255C502.251 112.407 502.096 111.216 501.273 110.557L462.107 79.2185C461.232 78.5185 459.949 78.6932 459.292 79.5999L452.733 88.6626C452.109 89.5239 452.285 90.7252 453.131 91.3706Z" fill="white"/>
<path d="M453.131 91.3708L452.725 91.9001L492.452 122.307C492.927 122.671 493.492 122.848 494.048 122.848C494.851 122.849 495.649 122.477 496.165 121.78L502.163 113.651C502.508 113.183 502.676 112.632 502.676 112.091C502.677 111.32 502.336 110.553 501.689 110.037L462.523 78.6988C462.04 78.3108 461.456 78.1214 460.883 78.1214C460.073 78.1214 459.267 78.4988 458.752 79.2095L452.193 88.2721C451.857 88.7348 451.693 89.2775 451.693 89.8121C451.692 90.6015 452.051 91.3855 452.725 91.9015L453.131 91.3708L453.535 90.8415C453.201 90.5855 453.028 90.2041 453.027 89.8121C453.027 89.5481 453.105 89.2854 453.273 89.0534L459.832 79.9908C460.087 79.6388 460.48 79.4561 460.883 79.4548C461.168 79.4561 461.448 79.5468 461.691 79.7388L500.857 111.077C501.176 111.333 501.341 111.707 501.343 112.091C501.343 112.359 501.261 112.625 501.089 112.859L495.092 120.988C494.836 121.335 494.447 121.513 494.048 121.515C493.772 121.515 493.499 121.429 493.261 121.248L453.536 90.8415L453.131 91.3708Z" fill="#2A1E17"/>
<path d="M456.071 90.0147L465.704 96.7747L471.389 89.9893L461.752 81.952L456.071 90.0147Z" fill="#FF6D66"/>
<path d="M469.332 99.4106L478.977 107.064L484.148 100.703L474.439 92.8226L469.332 99.4106Z" fill="#FAD8B0"/>
<path d="M482.224 110.004L491.859 116.765L496.447 110.868L487.32 103.232L482.224 110.004Z" fill="#A0C6F4"/>
<path d="M532.397 48.8614L541.449 124.936C541.647 126.605 543.176 127.787 544.841 127.559L560.169 125.46C561.768 125.241 562.909 123.799 562.752 122.192L555.323 45.7374C555.156 44.0281 553.595 42.8054 551.897 43.0547L534.947 45.5334C533.335 45.7694 532.204 47.2454 532.397 48.8614Z" fill="white"/>
<path d="M532.397 48.8614L531.735 48.9401L540.787 125.015C541.011 126.884 542.596 128.253 544.429 128.253C544.595 128.253 544.763 128.243 544.931 128.219L560.26 126.12C562.093 125.868 563.433 124.303 563.433 122.487L563.416 122.128L555.987 45.6721C555.799 43.7654 554.196 42.3561 552.336 42.3561C552.159 42.3548 551.98 42.3681 551.8 42.3948L534.851 44.8734C533.028 45.1414 531.709 46.7028 531.709 48.5028C531.709 48.6468 531.717 48.7934 531.735 48.9414V48.9401L532.397 48.8614L533.059 48.7814L533.043 48.5028C533.043 47.3601 533.881 46.3614 535.043 46.1934L551.993 43.7134L552.336 43.6881C553.515 43.6881 554.543 44.5868 554.66 45.8014L562.089 122.256L562.1 122.487C562.1 123.639 561.247 124.64 560.079 124.799L544.751 126.899L544.429 126.92C543.265 126.92 542.251 126.048 542.111 124.857L533.059 48.7828V48.7814L532.397 48.8614Z" fill="#2A1E17"/>
<path d="M537.028 50.64L539.896 68.4333L553.413 67.428L551.944 48.268L537.028 50.64Z" fill="#FF6D66"/>
<path d="M540.875 75.2294L542.777 93.9907L555.281 92.8734L553.559 73.8001L540.875 75.2294Z" fill="#91BA83"/>
<path d="M543.015 100.693L545.884 118.487L557.256 117.227L555.892 99.0559L543.015 100.693Z" fill="#FAD8B0"/>
<path d="M512.636 65.0587L537.704 138.747C538.135 140.012 539.52 140.679 540.776 140.225L556.477 134.573C557.687 134.139 558.335 132.827 557.948 131.603L534.408 57.1867C533.996 55.8841 532.579 55.1921 531.299 55.6654L514.068 62.0468C512.853 62.4974 512.217 63.8334 512.636 65.0587Z" fill="white"/>
<path d="M512.636 65.0587L512.004 65.2733L537.073 138.961C537.507 140.235 538.696 141.035 539.967 141.035C540.311 141.035 540.661 140.976 541.001 140.853L556.704 135.2C557.947 134.752 558.727 133.581 558.727 132.324C558.727 132.017 558.68 131.707 558.584 131.403L535.043 56.9853C534.628 55.676 533.421 54.848 532.128 54.8494C531.775 54.8494 531.415 54.9107 531.067 55.04L513.836 61.4213C512.607 61.8787 511.84 63.0427 511.84 64.288C511.84 64.6147 511.893 64.9493 512.004 65.2747V65.2733L512.636 65.0587L513.267 64.8427C513.203 64.6573 513.173 64.472 513.173 64.288C513.175 63.5867 513.605 62.928 514.299 62.672L531.529 56.2907C531.729 56.2173 531.929 56.1827 532.128 56.1827C532.856 56.1827 533.54 56.6493 533.772 57.3867L557.312 131.804C557.367 131.977 557.393 132.152 557.393 132.324C557.392 133.032 556.953 133.695 556.252 133.945L540.551 139.599C540.356 139.668 540.16 139.701 539.967 139.701C539.251 139.7 538.579 139.251 538.336 138.532L513.267 64.844V64.8427L512.636 65.0587Z" fill="#2A1E17"/>
<path d="M517.727 66.4014L524.233 83.2107L537.247 79.4147L531.823 60.98L517.727 66.4014Z" fill="#A0C6F4"/>
<path d="M526.604 89.6534L532.365 107.609L544.364 103.916L538.713 85.6174L526.604 89.6534Z" fill="#F9865F"/>
<path d="M533.992 114.116L540.499 130.924L551.361 127.325L546.248 109.835L533.992 114.116Z" fill="#FAD8B0"/>
<path d="M323.704 189.88H197.112C193.075 189.88 189.801 186.608 189.801 182.569V165.447C189.801 161.408 193.075 158.135 197.112 158.135H323.704C327.743 158.135 331.016 161.408 331.016 165.447V182.569C331.016 186.608 327.743 189.88 323.704 189.88Z" fill="#7595EC"/>
<path d="M276.275 172.312H207.261C205.927 172.312 204.847 171.231 204.847 169.896C204.847 168.563 205.927 167.481 207.261 167.481H276.275C277.609 167.481 278.691 168.563 278.691 169.896C278.691 171.231 277.609 172.312 276.275 172.312Z" fill="white"/>
<path d="M205.536 179.237H322.859C323.227 179.237 323.525 178.939 323.525 178.571C323.525 178.203 323.227 177.904 322.859 177.904H205.536C205.168 177.904 204.869 178.203 204.869 178.571C204.869 178.939 205.168 179.237 205.536 179.237Z" fill="#2A1E17"/>
<path d="M147.511 100.607L145.512 98.4173L138.899 104.459L140.897 106.645C141.74 107.568 143.171 107.633 144.093 106.791L147.365 103.803C148.288 102.96 148.353 101.528 147.511 100.607Z" fill="#91BA83"/>
<path d="M135.979 86.4493L135.487 86.8986L144.901 97.2066C145.015 97.3306 145.068 97.4812 145.068 97.6372C145.068 97.8132 145 97.9826 144.86 98.1106L138.355 104.052C138.231 104.165 138.079 104.219 137.924 104.22C137.748 104.219 137.579 104.151 137.451 104.011L128.036 93.7039C127.923 93.5786 127.869 93.4292 127.869 93.2732C127.869 93.0972 127.937 92.9279 128.077 92.7999L134.583 86.8586C134.707 86.7452 134.857 86.6919 135.013 86.6906C135.189 86.6919 135.359 86.7599 135.487 86.8986L135.979 86.4493L136.471 85.9986C136.083 85.5746 135.547 85.3559 135.013 85.3572C134.54 85.3572 134.06 85.5292 133.683 85.8732L127.177 91.8159C126.753 92.2039 126.535 92.7399 126.536 93.2732C126.535 93.7466 126.708 94.2266 127.052 94.6039L136.467 104.911C136.853 105.335 137.391 105.553 137.924 105.553C138.396 105.553 138.877 105.381 139.253 105.037L145.76 99.0946C146.184 98.7066 146.403 98.1692 146.401 97.6372C146.403 97.1639 146.231 96.6826 145.885 96.3066L136.472 85.9999L135.979 86.4493Z" fill="#2A1E17"/>
<path d="M117.707 151.789H105.879V140.989H117.707V151.789Z" fill="#FF6D66"/>
<path d="M105.212 134.04V140.323H98.8039C98.4345 140.323 98.1372 140.621 98.1372 140.989C98.1372 141.357 98.4345 141.656 98.8039 141.656H105.879C106.055 141.656 106.227 141.585 106.351 141.461C106.475 141.337 106.545 141.165 106.545 140.989V134.04C106.545 133.672 106.247 133.373 105.879 133.373C105.511 133.373 105.212 133.672 105.212 134.04Z" fill="#2A1E17"/>
<path d="M507.373 29.8306H495.544V19.0292H507.373V29.8306Z" fill="#FAD8B0"/>
<path d="M494.877 12.0801V18.3627H488.471C488.101 18.3627 487.804 18.6614 487.804 19.0294C487.804 19.3987 488.101 19.696 488.471 19.696H495.544C495.72 19.696 495.892 19.6254 496.016 19.5014C496.14 19.3774 496.211 19.2054 496.211 19.0294V12.0801C496.211 11.7121 495.912 11.4134 495.544 11.4134C495.176 11.4134 494.877 11.7121 494.877 12.0801Z" fill="#2A1E17"/>
<path d="M175.683 85.1693C153.343 75.9093 131.924 71.5626 113.195 71.5626C93.9813 71.5626 77.5866 76.136 65.9559 84.7266C54.3213 93.312 47.4973 105.96 47.5066 121.864C47.5119 140.888 57.1906 164.527 79.7133 191.771C102.24 219.015 137.635 249.876 189.189 283.312C207.583 295.225 235.524 299.343 235.567 299.357C235.931 299.412 236.269 299.16 236.324 298.796C236.377 298.432 236.127 298.092 235.761 298.039C235.76 298.039 235.335 297.975 234.541 297.84C228.991 296.899 205.669 292.421 189.915 282.193C138.44 248.811 103.145 218.02 80.7399 190.921C58.3306 163.821 48.8346 140.424 48.8399 121.864C48.8493 106.344 55.4266 94.176 66.7479 85.7986C78.0719 77.428 94.188 72.8946 113.195 72.8946C131.717 72.8946 152.975 77.2 175.172 86.4013C175.512 86.5426 175.901 86.3813 176.043 86.0413C176.184 85.7013 176.023 85.3106 175.683 85.1693Z" fill="#2A1E17"/>
<path d="M66.148 89.204C66.148 91.1346 64.5827 92.7 62.652 92.7C60.7213 92.7 59.1547 91.1346 59.1547 89.204C59.1547 87.2733 60.7213 85.7066 62.652 85.7066C64.5827 85.7066 66.148 87.2733 66.148 89.204Z" fill="#2A1E17"/>
<path d="M40.4012 70.0132L40.8639 70.4932L44.3293 67.1666L52.4693 71.8239L56.3653 83.8399L44.4653 78.8599L41.0253 69.7772L40.4012 70.0132L40.8639 70.4932L40.4012 70.0132L39.7786 70.2492L43.3199 79.6012C43.3853 79.7719 43.5173 79.9092 43.6866 79.9799L57.1893 85.6305C57.4306 85.7319 57.7053 85.6826 57.8986 85.5066C58.0906 85.3292 58.1613 85.0586 58.0813 84.8106L53.6586 71.1679C53.6079 71.0106 53.4986 70.8759 53.3559 70.7945L44.5586 65.7612C44.3026 65.6145 43.9799 65.6532 43.7666 65.8585L39.9399 69.5319C39.7466 69.7172 39.6839 69.9986 39.7786 70.2492L40.4012 70.0132Z" fill="#2A1E17"/>
<path d="M44.228 66.3399L43.7667 65.8586L40.4587 69.0332L39.1667 67.4652L41.9067 64.8386L43.7414 66.7959L44.228 66.3399L43.7667 65.8586L44.228 66.3399L44.7147 65.8839L42.4187 63.4346C42.2974 63.3052 42.128 63.2292 41.9507 63.2239C41.772 63.2199 41.6 63.2866 41.4707 63.4092L37.7973 66.9306C37.5453 67.1706 37.5227 67.5666 37.744 67.8359L39.8867 70.4372C40.0053 70.5799 40.1774 70.6679 40.3627 70.6786C40.548 70.6892 40.7293 70.6226 40.864 70.4932L44.6893 66.8212C44.952 66.5679 44.9627 66.1492 44.7147 65.8839L44.228 66.3399Z" fill="#2A1E17"/>
<path d="M57.9399 84.5666L49.1586 74.9199C48.9106 74.6479 48.4893 74.6279 48.2173 74.8759C47.9453 75.1226 47.9252 75.5452 48.1732 75.8172L56.9533 85.4639C57.2013 85.7359 57.6226 85.7559 57.896 85.5079C58.168 85.2612 58.1879 84.8386 57.9399 84.5666Z" fill="#2A1E17"/>
<path d="M78.7001 329.791L88.2321 378.901C88.4401 379.977 89.4921 380.675 90.5654 380.447L100.448 378.348C101.479 378.129 102.152 377.135 101.973 376.096L93.4814 326.659C93.2921 325.555 92.2161 324.833 91.1227 325.076L80.2014 327.5C79.164 327.731 78.4987 328.747 78.7001 329.791Z" fill="white"/>
<path d="M78.7 329.791L78.0467 329.917L87.5773 379.028C87.8227 380.287 88.9213 381.156 90.156 381.156C90.3373 381.156 90.52 381.137 90.7027 381.099L100.587 379C101.819 378.737 102.669 377.652 102.669 376.431C102.669 376.283 102.656 376.133 102.631 375.984L94.1387 326.545C93.916 325.26 92.8027 324.361 91.5493 324.361C91.36 324.361 91.1693 324.383 90.9773 324.425L80.0573 326.849C78.8347 327.123 77.9973 328.204 77.9973 329.416C77.9973 329.581 78.0133 329.749 78.0467 329.917L78.7 329.791L79.3547 329.664L79.3306 329.416C79.3306 328.821 79.744 328.283 80.3467 328.151L91.2666 325.727L91.5493 325.695C92.1627 325.695 92.7173 326.139 92.8253 326.772L101.317 376.209L101.336 376.431C101.336 377.029 100.916 377.568 100.309 377.696L90.4267 379.795L90.156 379.823C89.552 379.823 89.004 379.393 88.8866 378.775L79.3547 329.663L78.7 329.791Z" fill="#2A1E17"/>
<path d="M81.8013 330.727L84.52 342.179L93.2746 340.876L91.4026 328.469L81.8013 330.727Z" fill="#FF6D66"/>
<path d="M85.4813 346.557L87.6173 358.685L95.7066 357.359L93.6747 345.02L85.4813 346.557Z" fill="#FAD8B0"/>
<path d="M88.092 363.037L90.8107 374.489L98.1574 373.125L96.4014 361.356L88.092 363.037Z" fill="#A0C6F4"/>
<path d="M351.613 452.874L351.785 453.519L391.468 442.896L392.559 445.995L353.173 456.217L352.259 452.707L351.613 452.874L351.785 453.519L351.613 452.874L350.968 453.043L352.052 457.198C352.144 457.555 352.508 457.768 352.864 457.674L393.596 447.103C393.776 447.056 393.929 446.934 394.017 446.771C394.104 446.607 394.119 446.41 394.057 446.236L392.521 441.871C392.405 441.543 392.056 441.359 391.72 441.448L351.441 452.231C351.087 452.325 350.876 452.689 350.968 453.043L351.613 452.874Z" fill="#2A1E17"/>
<path d="M345.389 447.444L346.552 451.1C346.664 451.452 347.039 451.645 347.389 451.533C347.74 451.422 347.935 451.047 347.823 450.696L346.66 447.04C346.548 446.689 346.173 446.495 345.823 446.607C345.472 446.719 345.277 447.093 345.389 447.444Z" fill="#2A1E17"/>
<path d="M345.107 450.257L348.505 449.091C348.853 448.971 349.039 448.592 348.92 448.243C348.8 447.895 348.421 447.709 348.072 447.829L344.675 448.996C344.325 449.115 344.14 449.495 344.26 449.843C344.38 450.191 344.759 450.376 345.107 450.257Z" fill="#2A1E17"/>
<path d="M334.229 450.021L337.088 459.156C337.197 459.508 337.572 459.703 337.923 459.593C338.275 459.483 338.471 459.109 338.36 458.757L335.503 449.622C335.392 449.271 335.019 449.076 334.667 449.185C334.316 449.295 334.12 449.669 334.229 450.021Z" fill="#2A1E17"/>
<path d="M332.228 456.145L340.709 453.438C341.06 453.326 341.253 452.952 341.141 452.601C341.029 452.249 340.655 452.056 340.304 452.168L331.823 454.874C331.471 454.986 331.277 455.362 331.389 455.713C331.501 456.064 331.876 456.257 332.228 456.145Z" fill="#2A1E17"/>
<path d="M57.9307 15.3267L58.1147 14.9187L33.004 3.5827L33.7533 1.51203L58.54 12.928L57.524 15.14L57.9307 15.3267L58.1147 14.9187L57.9307 15.3267L58.3373 15.5134L59.5387 12.896C59.6427 12.6707 59.544 12.4067 59.32 12.3027L33.6854 0.496014L33.3253 0.48934L33.0774 0.750669L32.0214 3.66802C31.9427 3.88802 32.0453 4.13201 32.2587 4.22801L57.7467 15.7333C57.9707 15.8347 58.2346 15.736 58.3373 15.5134L57.9307 15.3267Z" fill="#2A1E17"/>
<path d="M58.856 20.7879L59.8053 18.3959C59.896 18.1666 59.784 17.9066 59.5547 17.816C59.3253 17.724 59.0653 17.8359 58.9747 18.0666L58.024 20.4586C57.9333 20.6879 58.0453 20.948 58.2747 21.0386C58.504 21.1293 58.764 21.0173 58.856 20.7879Z" fill="#2A1E17"/>
<path d="M60.1973 19.448L57.9373 18.6106C57.7053 18.5253 57.448 18.6426 57.3627 18.8746C57.2773 19.1066 57.3947 19.364 57.6267 19.4493L59.8866 20.2866C60.1173 20.372 60.3746 20.2546 60.4613 20.0226C60.5466 19.7906 60.428 19.5333 60.1973 19.448Z" fill="#2A1E17"/>
<path d="M65.8 14.3693L67.592 9.85592C67.6826 9.62658 67.5707 9.3666 67.3413 9.27594C67.112 9.18527 66.852 9.29725 66.7613 9.52659L64.9693 14.0386C64.8787 14.2679 64.9906 14.5279 65.22 14.6199C65.4493 14.7106 65.7093 14.5986 65.8 14.3693Z" fill="#2A1E17"/>
<path d="M68.376 12.3094L64.4187 10.7387C64.1894 10.6467 63.9294 10.7587 63.8374 10.9881C63.7467 11.2187 63.8587 11.4787 64.0881 11.5694L68.0454 13.1414C68.276 13.2321 68.5347 13.1201 68.6267 12.8907C68.7174 12.6614 68.6054 12.4014 68.376 12.3094Z" fill="#2A1E17"/>
<path d="M65.744 24.1893L68.1386 18.232C68.2306 18.004 68.12 17.7427 67.8907 17.6507C67.6613 17.5587 67.4013 17.6693 67.3093 17.8987L64.9133 23.856C64.8213 24.0853 64.9333 24.3453 65.1613 24.4373C65.3906 24.5293 65.652 24.4187 65.744 24.1893Z" fill="#2A1E17"/>
<path d="M69.384 21.8601L63.8307 19.6641C63.6013 19.5734 63.3413 19.6854 63.2507 19.9147C63.16 20.1441 63.272 20.4041 63.5027 20.4947L69.056 22.6907C69.2853 22.7814 69.5454 22.6694 69.636 22.4401C69.7267 22.2107 69.6147 21.9507 69.384 21.8601Z" fill="#2A1E17"/>
<path d="M153.183 230.583C135.216 217.647 117.564 197.545 125.307 176.897C125.307 176.897 137.695 168.639 157.311 178.963C176.927 189.287 176.927 189.287 176.927 189.287L153.183 230.583Z" fill="#FAD8B0"/>
<path d="M145.037 316.753C136.953 312.932 102.437 294.964 96.2974 264.259C90.9907 237.728 111.277 201.964 121.441 186.163C120.788 207.137 141.852 224.888 152.015 232.205C162.307 239.616 169.877 243.241 180.323 247.163L145.037 316.753Z" fill="white"/>
<path d="M125.307 176.897C125.307 176.897 87.1093 228.517 94.336 264.651C101.563 300.784 145.956 319.367 145.956 319.367L183.121 246.068C171.507 241.808 163.961 238.343 153.183 230.583C135.216 217.647 117.564 197.545 125.307 176.897ZM119.896 192.401C122.099 206.341 132.739 220.792 150.845 233.828C160.623 240.867 167.973 244.545 177.533 248.241L144.14 314.1C133.967 309.037 103.861 291.887 98.2573 263.865C93.5987 240.573 109.393 209.677 119.896 192.401Z" fill="#FAD8B0"/>
<path d="M114.599 206.965C114.605 207.017 115.171 212.271 118.364 218.94C121.555 225.605 127.389 233.696 137.905 239.327C138.229 239.501 138.633 239.379 138.808 239.055C138.981 238.729 138.86 238.325 138.535 238.152C128.315 232.676 122.671 224.843 119.567 218.364C118.015 215.125 117.103 212.228 116.58 210.145C116.317 209.105 116.153 208.268 116.055 207.695C116.005 207.408 115.972 207.187 115.952 207.039C115.932 206.891 115.925 206.824 115.924 206.824C115.885 206.457 115.557 206.192 115.191 206.232C114.824 206.271 114.56 206.6 114.599 206.965Z" fill="#2A1E17"/>
<path d="M149.015 246.733L169.751 257.841C170.075 258.016 170.479 257.893 170.653 257.569C170.827 257.244 170.704 256.84 170.38 256.667L149.644 245.559C149.32 245.384 148.916 245.507 148.741 245.831C148.568 246.156 148.691 246.56 149.015 246.733Z" fill="#2A1E17"/>
<path d="M117.616 236.792C117.656 236.884 124.423 251.851 146.093 261.565C146.429 261.716 146.824 261.565 146.975 261.229C147.125 260.893 146.975 260.499 146.639 260.349C135.993 255.576 129.037 249.529 124.74 244.685C122.592 242.263 121.109 240.14 120.167 238.629C119.695 237.875 119.359 237.272 119.141 236.861C119.033 236.656 118.955 236.499 118.903 236.395L118.848 236.279L118.832 236.244C118.681 235.909 118.287 235.759 117.951 235.911C117.615 236.061 117.465 236.456 117.616 236.792Z" fill="#2A1E17"/>
<path d="M100.525 238.771C100.528 238.808 100.715 242.744 102.224 247.371C103.733 251.988 106.575 257.351 112.001 260.073C112.331 260.237 112.731 260.104 112.896 259.775C113.06 259.445 112.927 259.045 112.597 258.88C107.656 256.417 104.944 251.412 103.492 246.957C102.765 244.735 102.356 242.663 102.128 241.152C102.015 240.396 101.947 239.78 101.907 239.356C101.888 239.144 101.875 238.98 101.867 238.869L101.857 238.708C101.84 238.34 101.528 238.056 101.16 238.073C100.792 238.091 100.508 238.404 100.525 238.771Z" fill="#2A1E17"/>
<path d="M124.225 184.613C124.224 184.635 124.199 184.909 124.199 185.42C124.189 189.436 125.813 207.983 152.748 231.088C153.028 231.328 153.448 231.296 153.688 231.016C153.928 230.737 153.896 230.316 153.616 230.076C126.94 207.167 125.541 189.081 125.532 185.42C125.532 185.187 125.537 185.012 125.543 184.899L125.551 184.773L125.553 184.741C125.588 184.375 125.32 184.049 124.953 184.015C124.587 183.979 124.261 184.247 124.225 184.613Z" fill="#2A1E17"/>
<path d="M136.049 189.045L136.065 189.044C136.109 189.043 136.235 189.036 136.44 189.036C138.353 189.039 147.103 189.559 159.301 198.544C159.597 198.763 160.015 198.7 160.233 198.403C160.452 198.107 160.388 197.689 160.092 197.471C147.668 188.313 138.599 187.7 136.44 187.703C136.132 187.703 135.964 187.715 135.948 187.716C135.58 187.744 135.305 188.065 135.333 188.432C135.363 188.799 135.683 189.073 136.051 189.045" fill="#2A1E17"/>
<path d="M90.0586 252.107C90.0079 252.92 89.9692 253.904 89.9692 255.039C89.9679 261.489 91.2133 272.809 98.4906 285.168C105.765 297.528 119.068 310.9 143.072 321.471C143.409 321.619 143.803 321.467 143.951 321.129C144.1 320.792 143.947 320.399 143.609 320.251C119.817 309.768 106.768 296.596 99.6399 284.492C92.5119 272.387 91.3026 261.321 91.3026 255.039C91.3026 253.935 91.3399 252.979 91.3892 252.191C91.4119 251.823 91.1333 251.507 90.7653 251.483C90.3986 251.46 90.0812 251.74 90.0586 252.107Z" fill="#2A1E17"/>
<path d="M422.764 232.175L400.708 276.377C400.708 276.377 415.668 281.883 403.972 299.031C403.972 299.031 431.623 310.497 449.715 280.716C467.807 250.933 422.764 232.175 422.764 232.175Z" fill="#91BA83"/>
<path d="M372.284 367.263C361.123 367.263 349.344 362.705 337.249 353.711L378.511 285.361L403.051 300.813L403.207 300.879C403.435 300.973 408.897 303.2 416.608 303.201H416.609C422.809 303.201 430.632 301.753 438.253 296.361L408.093 347.959C408.024 348.059 395.039 367.261 372.287 367.263H372.284Z" fill="white"/>
<path d="M449.715 280.716C439.492 297.541 426.221 301.2 416.608 301.2C409.207 301.2 403.972 299.031 403.972 299.031L377.852 282.583L334.607 354.219C349.088 365.381 361.719 369.263 372.287 369.263C396.447 369.263 409.82 348.968 409.82 348.968L449.715 280.716ZM379.169 288.139L401.841 302.416L402.128 302.596L402.441 302.727C402.685 302.827 408.504 305.2 416.608 305.2C421.339 305.2 426.964 304.405 432.748 301.816L406.432 346.837C405.572 348.088 393.355 365.263 372.287 365.263C362.011 365.263 351.132 361.199 339.909 353.175L379.169 288.139Z" fill="#96BD89"/>
<path d="M400.487 277.007L400.564 277.035C400.979 277.193 402.989 278.024 404.852 279.669C406.719 281.323 408.423 283.729 408.425 287.16C408.427 290.097 407.163 293.873 403.448 298.62C403.221 298.911 403.272 299.329 403.561 299.556C403.852 299.783 404.271 299.732 404.497 299.443C408.328 294.549 409.757 290.492 409.759 287.16C409.761 282.993 407.509 280.104 405.323 278.32C403.131 276.525 400.973 275.765 400.931 275.749C400.583 275.627 400.203 275.808 400.08 276.156C399.957 276.503 400.139 276.884 400.487 277.007Z" fill="#2A1E17"/>
<path d="M376.889 281.539C376.901 281.549 382.48 286.66 389.635 291.783C393.212 294.344 397.184 296.909 401.067 298.845C404.951 300.777 408.739 302.095 412.027 302.101L412.159 302.1C418.412 302.029 425.233 301.253 431.608 298.601C437.981 295.952 443.899 291.405 448.26 283.879C448.445 283.56 448.336 283.152 448.019 282.968C447.7 282.783 447.292 282.891 447.107 283.209C442.887 290.48 437.241 294.808 431.095 297.371C424.951 299.929 418.299 300.699 412.145 300.767L412.027 300.768C409.101 300.773 405.445 299.543 401.661 297.652C395.979 294.821 389.996 290.541 385.449 286.973C383.175 285.189 381.257 283.583 379.911 282.423C379.237 281.843 378.705 281.376 378.344 281.053C377.981 280.731 377.791 280.556 377.791 280.555C377.519 280.307 377.097 280.325 376.848 280.596C376.6 280.868 376.619 281.289 376.889 281.539Z" fill="#2A1E17"/>
<path d="M379.645 308.097C379.703 308.131 391.184 318.384 405.669 318.407C407.995 318.407 410.396 318.139 412.833 317.517C413.189 317.427 413.405 317.063 413.313 316.707C413.223 316.349 412.86 316.135 412.503 316.225C410.18 316.817 407.892 317.073 405.669 317.073C398.749 317.075 392.452 314.588 387.888 312.084C385.608 310.835 383.761 309.583 382.489 308.647C381.853 308.179 381.36 307.789 381.028 307.519C380.863 307.383 380.736 307.277 380.653 307.205L380.531 307.1C380.256 306.856 379.835 306.881 379.591 307.156C379.345 307.432 379.371 307.853 379.645 308.097Z" fill="#2A1E17"/>
<path d="M395.844 328.543C395.909 328.589 399.748 331.46 405.883 331.464C408.78 331.464 412.181 330.815 415.893 328.932C416.223 328.765 416.353 328.364 416.187 328.036C416.02 327.708 415.619 327.576 415.291 327.743C411.76 329.532 408.581 330.129 405.883 330.131C403.028 330.131 400.707 329.459 399.1 328.788C398.297 328.453 397.675 328.119 397.257 327.871C397.048 327.748 396.891 327.645 396.787 327.576L396.673 327.497L396.643 327.476C396.348 327.255 395.931 327.315 395.709 327.609C395.489 327.904 395.549 328.321 395.844 328.543Z" fill="#2A1E17"/>
<path d="M358.651 336.897C358.712 336.953 369.373 347.555 387.337 347.563C393.257 347.563 399.96 346.405 407.307 343.343C407.647 343.201 407.808 342.812 407.667 342.472C407.524 342.132 407.135 341.971 406.795 342.112C399.603 345.109 393.083 346.228 387.337 346.229C378.627 346.229 371.684 343.652 366.913 341.073C364.529 339.785 362.691 338.496 361.452 337.535C360.832 337.053 360.363 336.653 360.051 336.376C359.895 336.237 359.777 336.129 359.701 336.057L359.591 335.952C359.329 335.692 358.908 335.693 358.648 335.955C358.389 336.216 358.389 336.637 358.651 336.897Z" fill="#2A1E17"/>
<path d="M368.867 318.907C368.873 318.912 370.78 320.276 373.291 321.86C375.807 323.447 378.907 325.252 381.381 326.156C381.727 326.283 382.109 326.104 382.236 325.759C382.361 325.412 382.184 325.029 381.837 324.904C379.553 324.073 376.476 322.296 374.003 320.733C372.764 319.951 371.672 319.223 370.891 318.689C370.109 318.156 369.643 317.823 369.641 317.823C369.343 317.608 368.925 317.677 368.712 317.977C368.497 318.276 368.567 318.693 368.867 318.907Z" fill="#2A1E17"/>
<path d="M426.345 245.637L426.381 245.651C426.821 245.801 430.988 247.328 435.265 251.468C439.543 255.613 443.948 262.349 444.924 273.055C444.957 273.421 445.283 273.692 445.649 273.659C446.016 273.625 446.285 273.301 446.252 272.935C445.224 261.555 440.367 254.381 435.761 250.1C431.155 245.813 426.819 244.391 426.759 244.371C426.409 244.256 426.033 244.447 425.919 244.797C425.804 245.147 425.995 245.523 426.345 245.637Z" fill="#2A1E17"/>
<path d="M434.536 273.085L434.555 273.115C434.772 273.463 436.732 276.793 436.728 281.468C436.72 285.684 435.179 291.011 429.244 296.455C428.972 296.704 428.953 297.125 429.203 297.397C429.451 297.668 429.872 297.687 430.144 297.439C436.328 291.788 438.071 286.019 438.061 281.468C438.057 276.08 435.692 272.424 435.656 272.363C435.456 272.053 435.044 271.964 434.735 272.164C434.425 272.364 434.336 272.776 434.536 273.085Z" fill="#2A1E17"/>
<path d="M335.748 358.105C335.805 358.136 352.861 372.801 373.509 372.824C385.584 372.837 398.867 367.72 410.388 351.8C410.604 351.501 410.537 351.085 410.239 350.869C409.941 350.653 409.524 350.72 409.308 351.017C397.968 366.641 385.205 371.477 373.509 371.491C363.507 371.493 354.268 367.9 347.537 364.291C344.173 362.487 341.436 360.683 339.544 359.331C338.597 358.656 337.863 358.093 337.365 357.701C337.117 357.505 336.928 357.352 336.801 357.248C336.676 357.144 336.616 357.093 336.616 357.092C336.336 356.853 335.916 356.885 335.676 357.165C335.436 357.445 335.469 357.865 335.749 358.105" fill="#2A1E17"/>
<path d="M28.0679 219.043H38.0199C38.3879 219.043 38.6866 218.744 38.6866 218.376C38.6866 218.008 38.3879 217.709 38.0199 217.709H28.0679C27.6999 217.709 27.4012 218.008 27.4012 218.376C27.4012 218.744 27.6999 219.043 28.0679 219.043Z" fill="#FF6D66"/>
<path d="M582.404 99.3547H592.356C592.724 99.3547 593.023 99.0561 593.023 98.6881C593.023 98.3187 592.724 98.0214 592.356 98.0214H582.404C582.036 98.0214 581.737 98.3187 581.737 98.6881C581.737 99.0561 582.036 99.3547 582.404 99.3547Z" fill="#FF6D66"/>
<path d="M315.544 31.0786H325.494V29.7453H315.544V31.0786Z" fill="#FAD8B0"/>
<path d="M210.505 399.268H220.456C220.824 399.268 221.123 398.969 221.123 398.601C221.123 398.233 220.824 397.934 220.456 397.934H210.505C210.137 397.934 209.839 398.233 209.839 398.601C209.839 398.969 210.137 399.268 210.505 399.268Z" fill="#A0C6F4"/>
<path d="M6.96136 116.388C6.96136 118.208 5.48536 119.685 3.66403 119.685C1.8427 119.685 0.366699 118.208 0.366699 116.388C0.366699 114.565 1.8427 113.089 3.66403 113.089C5.48536 113.089 6.96136 114.565 6.96136 116.388Z" fill="#91BA83"/>
</svg>
