<svg width="248" height="252" viewBox="0 0 248 252" fill="none" xmlns="http://www.w3.org/2000/svg">
<path d="M247.5 125.938C247.5 195.222 192.2 251.375 124 251.375C55.8001 251.375 0.5 195.222 0.5 125.938C0.5 56.6529 55.8001 0.5 124 0.5C192.2 0.5 247.5 56.6529 247.5 125.938Z" fill="#4E80EE" stroke="#4E80EE"/>
<path d="M147.25 54.25H21.8866C10.5314 71.6281 7.75047 79.4375 4.79602 91.0625H143.375C172.438 91.0625 176.313 135.625 143.375 135.625H54.2504V230.039C63.938 238.312 79.438 244.125 93.0005 248L93.0004 172.438H147.25C224.75 172.438 218.938 54.25 147.25 54.25Z" fill="white"/>
</svg>
