<svg width="158" height="24" viewBox="0 0 158 24" fill="none" xmlns="http://www.w3.org/2000/svg">
<path d="M20.1462 12.4844C20.1462 18.0059 15.7409 22.4688 10.3231 22.4688C4.90522 22.4688 0.5 18.0059 0.5 12.4844C0.5 6.96282 4.90522 2.5 10.3231 2.5C15.7409 2.5 20.1462 6.96282 20.1462 12.4844Z" fill="#4E80EE" stroke="#4E80EE"/>
<path d="M12.2587 6.51636H1.8221C0.876764 7.9631 0.645252 8.61323 0.399292 9.58102H11.9361C14.3556 9.58102 14.6782 13.2909 11.9361 13.2909H4.5164V21.1509C5.3229 21.8397 6.61329 22.3236 7.74237 22.6462L7.74237 16.3555H12.2587C18.7106 16.3555 18.2268 6.51636 12.2587 6.51636Z" fill="white"/>
<path d="M28.78 19.16C27.5533 19.16 26.4733 18.92 25.54 18.44C24.62 17.96 23.9067 17.3067 23.4 16.48C22.8933 15.64 22.64 14.6867 22.64 13.62C22.64 12.54 22.8867 11.5867 23.38 10.76C23.8867 9.92 24.5733 9.26667 25.44 8.8C26.3067 8.32 27.2867 8.08 28.38 8.08C29.4333 8.08 30.38 8.30667 31.22 8.76C32.0733 9.2 32.7467 9.84 33.24 10.68C33.7333 11.5067 33.98 12.5 33.98 13.66C33.98 13.78 33.9733 13.92 33.96 14.08C33.9467 14.2267 33.9333 14.3667 33.92 14.5H25.18V12.68H32.28L31.08 13.22C31.08 12.66 30.9667 12.1733 30.74 11.76C30.5133 11.3467 30.2 11.0267 29.8 10.8C29.4 10.56 28.9333 10.44 28.4 10.44C27.8667 10.44 27.3933 10.56 26.98 10.8C26.58 11.0267 26.2667 11.3533 26.04 11.78C25.8133 12.1933 25.7 12.6867 25.7 13.26V13.74C25.7 14.3267 25.8267 14.8467 26.08 15.3C26.3467 15.74 26.7133 16.08 27.18 16.32C27.66 16.5467 28.22 16.66 28.86 16.66C29.4333 16.66 29.9333 16.5733 30.36 16.4C30.8 16.2267 31.2 15.9667 31.56 15.62L33.22 17.42C32.7267 17.98 32.1067 18.4133 31.36 18.72C30.6133 19.0133 29.7533 19.16 28.78 19.16ZM36.0572 19V8.24H39.0372V11.28L38.6172 10.4C38.9372 9.64 39.4505 9.06667 40.1572 8.68C40.8639 8.28 41.7239 8.08 42.7372 8.08V10.96C42.6039 10.9467 42.4839 10.94 42.3772 10.94C42.2705 10.9267 42.1572 10.92 42.0372 10.92C41.1839 10.92 40.4905 11.1667 39.9572 11.66C39.4372 12.14 39.1772 12.8933 39.1772 13.92V19H36.0572ZM50.9719 19.16C50.0652 19.16 49.2719 18.96 48.5919 18.56C47.9119 18.16 47.3785 17.5533 46.9919 16.74C46.6185 15.9133 46.4319 14.8733 46.4319 13.62C46.4319 12.3533 46.6119 11.3133 46.9719 10.5C47.3319 9.68667 47.8519 9.08 48.5319 8.68C49.2119 8.28 50.0252 8.08 50.9719 8.08C51.9852 8.08 52.8919 8.31333 53.6919 8.78C54.5052 9.23333 55.1452 9.87333 55.6119 10.7C56.0919 11.5267 56.3319 12.5 56.3319 13.62C56.3319 14.7533 56.0919 15.7333 55.6119 16.56C55.1452 17.3867 54.5052 18.0267 53.6919 18.48C52.8919 18.9333 51.9852 19.16 50.9719 19.16ZM44.6119 22.88V8.24H47.5919V10.44L47.5319 13.64L47.7319 16.82V22.88H44.6119ZM50.4319 16.6C50.9519 16.6 51.4119 16.48 51.8119 16.24C52.2252 16 52.5519 15.66 52.7919 15.22C53.0452 14.7667 53.1719 14.2333 53.1719 13.62C53.1719 12.9933 53.0452 12.46 52.7919 12.02C52.5519 11.58 52.2252 11.24 51.8119 11C51.4119 10.76 50.9519 10.64 50.4319 10.64C49.9119 10.64 49.4452 10.76 49.0319 11C48.6185 11.24 48.2919 11.58 48.0519 12.02C47.8119 12.46 47.6919 12.9933 47.6919 13.62C47.6919 14.2333 47.8119 14.7667 48.0519 15.22C48.2919 15.66 48.6185 16 49.0319 16.24C49.4452 16.48 49.9119 16.6 50.4319 16.6ZM63.7605 19.16C62.5338 19.16 61.4538 18.92 60.5205 18.44C59.6005 17.96 58.8871 17.3067 58.3805 16.48C57.8738 15.64 57.6205 14.6867 57.6205 13.62C57.6205 12.54 57.8671 11.5867 58.3605 10.76C58.8671 9.92 59.5538 9.26667 60.4205 8.8C61.2871 8.32 62.2671 8.08 63.3605 8.08C64.4138 8.08 65.3605 8.30667 66.2005 8.76C67.0538 9.2 67.7271 9.84 68.2205 10.68C68.7138 11.5067 68.9605 12.5 68.9605 13.66C68.9605 13.78 68.9538 13.92 68.9405 14.08C68.9271 14.2267 68.9138 14.3667 68.9005 14.5H60.1605V12.68H67.2605L66.0605 13.22C66.0605 12.66 65.9471 12.1733 65.7205 11.76C65.4938 11.3467 65.1805 11.0267 64.7805 10.8C64.3805 10.56 63.9138 10.44 63.3805 10.44C62.8471 10.44 62.3738 10.56 61.9605 10.8C61.5605 11.0267 61.2471 11.3533 61.0205 11.78C60.7938 12.1933 60.6805 12.6867 60.6805 13.26V13.74C60.6805 14.3267 60.8071 14.8467 61.0605 15.3C61.3271 15.74 61.6938 16.08 62.1605 16.32C62.6405 16.5467 63.2005 16.66 63.8405 16.66C64.4138 16.66 64.9138 16.5733 65.3405 16.4C65.7805 16.2267 66.1805 15.9667 66.5405 15.62L68.2005 17.42C67.7071 17.98 67.0871 18.4133 66.3405 18.72C65.5938 19.0133 64.7338 19.16 63.7605 19.16ZM75.4377 19.16C74.171 19.16 73.1843 18.84 72.4777 18.2C71.771 17.5467 71.4177 16.58 71.4177 15.3V5.86H74.5377V15.26C74.5377 15.7133 74.6577 16.0667 74.8977 16.32C75.1377 16.56 75.4643 16.68 75.8777 16.68C76.371 16.68 76.791 16.5467 77.1377 16.28L77.9777 18.48C77.6577 18.7067 77.271 18.88 76.8177 19C76.3777 19.1067 75.9177 19.16 75.4377 19.16ZM69.7577 10.88V8.48H77.2177V10.88H69.7577ZM84.2691 19.16C83.3757 19.16 82.5757 18.9867 81.8691 18.64C81.1757 18.2933 80.6357 17.7667 80.2491 17.06C79.8624 16.34 79.6691 15.4267 79.6691 14.32V8.24H82.7891V13.86C82.7891 14.7533 82.9757 15.4133 83.3491 15.84C83.7357 16.2533 84.2757 16.46 84.9691 16.46C85.4491 16.46 85.8757 16.36 86.2491 16.16C86.6224 15.9467 86.9157 15.6267 87.1291 15.2C87.3424 14.76 87.4491 14.2133 87.4491 13.56V8.24H90.5691V19H87.6091V16.04L88.1491 16.9C87.7891 17.6467 87.2557 18.2133 86.5491 18.6C85.8557 18.9733 85.0957 19.16 84.2691 19.16ZM100.06 19V16.9L99.8595 16.44V12.68C99.8595 12.0133 99.6529 11.4933 99.2395 11.12C98.8395 10.7467 98.2195 10.56 97.3795 10.56C96.8062 10.56 96.2395 10.6533 95.6795 10.84C95.1329 11.0133 94.6662 11.2533 94.2795 11.56L93.1595 9.38C93.7462 8.96667 94.4529 8.64667 95.2795 8.42C96.1062 8.19333 96.9462 8.08 97.7995 8.08C99.4395 8.08 100.713 8.46667 101.62 9.24C102.526 10.0133 102.98 11.22 102.98 12.86V19H100.06ZM96.7795 19.16C95.9395 19.16 95.2195 19.02 94.6195 18.74C94.0195 18.4467 93.5595 18.0533 93.2395 17.56C92.9195 17.0667 92.7595 16.5133 92.7595 15.9C92.7595 15.26 92.9129 14.7 93.2195 14.22C93.5395 13.74 94.0395 13.3667 94.7195 13.1C95.3995 12.82 96.2862 12.68 97.3795 12.68H100.24V14.5H97.7195C96.9862 14.5 96.4795 14.62 96.1995 14.86C95.9329 15.1 95.7995 15.4 95.7995 15.76C95.7995 16.16 95.9529 16.48 96.2595 16.72C96.5795 16.9467 97.0129 17.06 97.5595 17.06C98.0795 17.06 98.5462 16.94 98.9595 16.7C99.3729 16.4467 99.6729 16.08 99.8595 15.6L100.34 17.04C100.113 17.7333 99.6995 18.26 99.0995 18.62C98.4995 18.98 97.7262 19.16 96.7795 19.16ZM105.803 19V4.16H108.923V19H105.803ZM117.02 19.16C115.753 19.16 114.766 18.84 114.06 18.2C113.353 17.5467 113 16.58 113 15.3V5.86H116.12V15.26C116.12 15.7133 116.24 16.0667 116.48 16.32C116.72 16.56 117.046 16.68 117.46 16.68C117.953 16.68 118.373 16.5467 118.72 16.28L119.56 18.48C119.24 18.7067 118.853 18.88 118.4 19C117.96 19.1067 117.5 19.16 117.02 19.16ZM111.34 10.88V8.48H118.8V10.88H111.34ZM126.319 19.16C125.092 19.16 124.012 18.92 123.079 18.44C122.159 17.96 121.446 17.3067 120.939 16.48C120.432 15.64 120.179 14.6867 120.179 13.62C120.179 12.54 120.426 11.5867 120.919 10.76C121.426 9.92 122.112 9.26667 122.979 8.8C123.846 8.32 124.826 8.08 125.919 8.08C126.972 8.08 127.919 8.30667 128.759 8.76C129.612 9.2 130.286 9.84 130.779 10.68C131.272 11.5067 131.519 12.5 131.519 13.66C131.519 13.78 131.512 13.92 131.499 14.08C131.486 14.2267 131.472 14.3667 131.459 14.5H122.719V12.68H129.819L128.619 13.22C128.619 12.66 128.506 12.1733 128.279 11.76C128.052 11.3467 127.739 11.0267 127.339 10.8C126.939 10.56 126.472 10.44 125.939 10.44C125.406 10.44 124.932 10.56 124.519 10.8C124.119 11.0267 123.806 11.3533 123.579 11.78C123.352 12.1933 123.239 12.6867 123.239 13.26V13.74C123.239 14.3267 123.366 14.8467 123.619 15.3C123.886 15.74 124.252 16.08 124.719 16.32C125.199 16.5467 125.759 16.66 126.399 16.66C126.972 16.66 127.472 16.5733 127.899 16.4C128.339 16.2267 128.739 15.9667 129.099 15.62L130.759 17.42C130.266 17.98 129.646 18.4133 128.899 18.72C128.152 19.0133 127.292 19.16 126.319 19.16ZM138.796 19.16C137.636 19.16 136.603 18.9267 135.696 18.46C134.79 17.98 134.076 17.32 133.556 16.48C133.05 15.64 132.796 14.6867 132.796 13.62C132.796 12.54 133.05 11.5867 133.556 10.76C134.076 9.92 134.79 9.26667 135.696 8.8C136.603 8.32 137.636 8.08 138.796 8.08C139.93 8.08 140.916 8.32 141.756 8.8C142.596 9.26667 143.216 9.94 143.616 10.82L141.196 12.12C140.916 11.6133 140.563 11.24 140.136 11C139.723 10.76 139.27 10.64 138.776 10.64C138.243 10.64 137.763 10.76 137.336 11C136.91 11.24 136.57 11.58 136.316 12.02C136.076 12.46 135.956 12.9933 135.956 13.62C135.956 14.2467 136.076 14.78 136.316 15.22C136.57 15.66 136.91 16 137.336 16.24C137.763 16.48 138.243 16.6 138.776 16.6C139.27 16.6 139.723 16.4867 140.136 16.26C140.563 16.02 140.916 15.64 141.196 15.12L143.616 16.44C143.216 17.3067 142.596 17.98 141.756 18.46C140.916 18.9267 139.93 19.16 138.796 19.16ZM151.894 8.08C152.747 8.08 153.507 8.25333 154.174 8.6C154.854 8.93333 155.387 9.45333 155.774 10.16C156.161 10.8533 156.354 11.7467 156.354 12.84V19H153.234V13.32C153.234 12.4533 153.041 11.8133 152.654 11.4C152.281 10.9867 151.747 10.78 151.054 10.78C150.561 10.78 150.114 10.8867 149.714 11.1C149.327 11.3 149.021 11.6133 148.794 12.04C148.581 12.4667 148.474 13.0133 148.474 13.68V19H145.354V4.16H148.474V11.22L147.774 10.32C148.161 9.6 148.714 9.04667 149.434 8.66C150.154 8.27333 150.974 8.08 151.894 8.08Z" fill="#20293A"/>
</svg>
