<svg xmlns="http://www.w3.org/2000/svg" version="1.0" width="362.000000pt" height="362.000000pt"
  viewBox="0 0 362.000000 362.000000" preserveAspectRatio="xMidYMid meet">
  <metadata>
    Created by potrace 1.14, written by Peter Selinger 2001-2017
  </metadata>
  <g transform="translate(0.000000,362.000000) scale(0.100000,-0.100000)" fill="#3b82f6" stroke="none">
    <path
      d="M3155 2923 c-34 -9 -121 -71 -165 -119 -85 -93 -117 -198 -120 -396 -6 -393 -14 -345 71 -436 70 -75 72 -78 59 -101 -6 -11 -13 -40 -16 -63 -3 -24 -7 -49 -10 -56 -24 -74 -23 -418 1 -652 6 -58 52 -131 95 -152 99 -47 230 24 245 133 3 19 4 138 3 264 0 127 -2 531 -2 898 -2 573 -4 670 -16 677 -16 10 -110 11 -145 3z m33 -564 c-2 -242 -6 -443 -9 -445 -3 -2 -16 11 -29 29 -13 18 -45 57 -71 87 -80 94 -80 93 -81 333 -1 116 1 225 5 240 8 37 39 86 74 117 43 39 97 79 106 80 4 0 6 -198 5 -441z m6 -811 c-1 -68 -3 -196 -3 -285 l-1 -161 -30 -7 c-44 -10 -68 2 -75 36 -6 24 -8 241 -5 507 l0 32 58 0 58 0 -2 -122z" />
    <path
      d="M319 2903 c-35 -8 -41 -45 -43 -274 -1 -123 2 -246 7 -273 18 -104 84 -198 163 -235 l46 -22 -4 -497 c-3 -415 -6 -503 -19 -532 -8 -19 -14 -48 -13 -64 3 -32 46 -76 74 -76 93 0 132 56 104 150 -10 34 -13 157 -14 532 0 459 1 489 17 494 68 22 138 91 176 174 19 42 21 65 22 305 0 143 -1 270 -3 282 -6 32 -54 46 -98 28 -40 -16 -37 10 -34 -292 1 -201 0 -226 -18 -266 -40 -91 -126 -124 -197 -76 -76 53 -85 97 -85 430 0 147 -3 189 -14 198 -16 14 -44 19 -67 14z" />
    <path
      d="M522 2903 c-34 -7 -43 -36 -42 -141 0 -53 1 -145 2 -204 1 -129 10 -148 69 -148 37 0 41 3 55 36 22 52 24 418 3 439 -17 16 -55 24 -87 18z" />
    <path
      d="M1664 2861 c-112 -27 -165 -45 -258 -92 -160 -81 -287 -189 -371 -315 -21 -33 -46 -70 -55 -84 -61 -92 -108 -284 -108 -445 -1 -194 43 -329 172 -525 97 -148 165 -215 301 -296 99 -59 294 -128 375 -133 8 0 48 -3 89 -5 130 -9 294 30 446 105 121 60 141 72 198 120 38 32 187 223 187 240 0 4 13 30 29 58 16 27 40 80 54 118 72 202 81 382 29 584 -13 50 -73 179 -83 179 -5 0 -9 5 -9 11 0 18 -111 160 -170 217 -77 75 -146 126 -221 165 -63 33 -139 65 -169 73 -8 2 -40 10 -70 19 -91 25 -271 28 -366 6z m334 -146 c130 -29 204 -61 305 -132 256 -179 384 -466 342 -773 -16 -121 -86 -295 -153 -380 -43 -56 -155 -165 -203 -197 -124 -85 -305 -134 -479 -129 -121 3 -204 23 -310 73 -101 48 -154 85 -225 158 -125 127 -140 147 -195 260 -75 156 -96 312 -65 495 29 167 87 276 214 397 21 20 124 91 211 145 35 22 164 67 235 83 74 17 246 17 323 0z" />
    <path
      d="M1730 2504 c-40 -7 -109 -34 -185 -71 -143 -71 -282 -267 -309 -437 -7 -40 -8 -154 -3 -176 2 -8 7 -31 11 -50 14 -64 85 -195 136 -252 183 -205 475 -260 721 -137 116 59 190 135 251 259 55 110 67 153 72 250 8 173 -57 346 -169 449 -122 113 -258 168 -409 169 -50 0 -102 -2 -116 -4z m295 -178 c171 -84 268 -238 267 -426 -1 -78 -9 -117 -41 -186 -52 -112 -145 -192 -272 -234 -197 -65 -427 20 -541 199 -93 148 -80 398 28 521 104 119 244 173 419 164 54 -3 86 -12 140 -38z" />
    <path
      d="M1645 2216 c-52 -23 -85 -62 -132 -156 -29 -58 -29 -94 -1 -114 48 -34 83 -15 112 59 12 30 32 51 83 85 37 25 68 53 69 62 2 17 -48 68 -66 68 -5 0 -14 2 -22 5 -7 2 -26 -2 -43 -9z" />
    <path
      d="M2449 1092 c-83 -53 -117 -123 -105 -213 25 -189 207 -255 344 -125 71 66 85 150 40 227 -52 89 -105 128 -181 136 -45 4 -58 1 -98 -25z m146 -127 c50 -51 19 -126 -48 -119 -68 8 -93 78 -43 121 35 30 59 29 91 -2z" />
    <path d="M1098 1003 c-27 -7 -48 -61 -36 -95 23 -64 137 -41 138 28 0 44 -55 80 -102 67z" />
    <path d="M1764 666 c-38 -38 -43 -69 -17 -106 28 -40 46 -51 81 -46 106 15 99 160 -10 181 -14 3 -32 -7 -54 -29z" />
  </g>
</svg>