<svg xmlns="http://www.w3.org/2000/svg" version="1.0" width="512.000000pt" height="512.000000pt"
  viewBox="0 0 512.000000 512.000000" preserveAspectRatio="xMidYMid meet">
  <metadata>
    Created by potrace 1.16, written by Peter Selinger 2001-2019
  </metadata>
  <g transform="translate(0.000000,512.000000) scale(0.100000,-0.100000)" fill="#3b82f6" stroke="none">
    <path
      d="M3270 4184 c-186 -36 -356 -159 -450 -326 -25 -45 -37 -58 -55 -58 -13 0 -27 5 -30 10 -3 6 -12 10 -18 10 -22 -1 26 -30 49 -30 l23 0 -20 -57 c-10 -31 -19 -66 -19 -79 0 -17 -7 -24 -32 -29 -138 -27 -287 -114 -404 -236 -56 -58 -115 -129 -140 -167 -1 -2 -30 11 -65 29 -62 31 -267 89 -315 89 -21 0 -23 3 -15 19 14 26 -8 54 -40 49 -28 -4 -38 -38 -16 -56 7 -6 69 -23 138 -37 115 -25 243 -69 283 -98 17 -12 16 -15 -1 -45 -12 -22 -23 -30 -33 -25 -53 24 -185 64 -240 72 -172 28 -349 -2 -511 -86 -78 -40 -235 -158 -258 -193 -9 -13 19 5 62 41 211 177 440 257 655 230 136 -17 292 -66 292 -91 0 -8 -41 -82 -55 -98 -2 -2 -20 5 -42 16 -76 39 -176 63 -285 69 -62 3 -108 2 -108 -3 0 -5 40 -10 88 -11 166 -3 307 -53 440 -157 156 -123 259 -329 279 -555 5 -62 4 -73 -8 -66 -11 6 -12 5 -1 -6 16 -17 16 -42 0 -33 -18 10 -2 -6 54 -54 29 -25 69 -47 103 -57 56 -16 56 -16 49 -48 -14 -69 -47 -137 -75 -162 -61 -51 -142 -23 -199 70 -20 32 -20 36 -5 65 24 45 55 177 54 224 -1 32 -5 20 -21 -54 -23 -115 -56 -191 -122 -288 -87 -129 -221 -236 -364 -290 -61 -24 -79 -26 -217 -26 -118 0 -159 4 -195 17 -57 22 -133 67 -126 74 3 3 25 -6 48 -20 47 -27 176 -72 184 -64 3 3 -30 17 -73 31 -100 34 -165 71 -238 138 -73 66 -129 152 -156 237 -39 124 -22 316 37 411 10 16 13 18 8 5 -14 -39 -17 -217 -4 -274 16 -75 68 -184 119 -251 79 -105 201 -185 321 -211 57 -12 305 -3 305 11 0 1 13 3 30 5 16 2 35 11 41 19 6 9 14 13 17 9 4 -3 7 -1 7 6 0 7 4 10 9 7 5 -3 12 1 15 9 3 8 9 15 13 14 22 -4 43 2 43 12 0 5 -5 7 -12 3 -7 -4 -8 -3 -4 5 4 6 11 9 16 6 15 -9 64 18 98 53 35 37 39 50 19 58 -9 3 -1 29 30 92 50 101 71 177 80 282 6 77 -11 215 -28 225 -5 4 -6 -8 -1 -27 4 -18 7 -91 7 -163 -1 -145 -10 -184 -75 -315 -110 -220 -323 -331 -570 -299 -156 20 -305 123 -393 271 -99 167 -114 388 -36 541 43 84 168 176 288 211 69 20 199 21 276 1 213 -56 350 -254 332 -483 -6 -89 -30 -154 -82 -228 -51 -72 -91 -104 -183 -147 -61 -29 -75 -32 -167 -32 -93 0 -105 2 -167 33 -80 39 -173 133 -214 217 -20 43 -29 77 -32 134 -9 162 67 304 199 371 59 31 68 13 12 -25 -53 -36 -87 -75 -124 -145 -21 -40 -24 -58 -24 -155 0 -100 3 -115 28 -166 15 -31 50 -78 77 -103 110 -103 246 -130 365 -72 33 16 63 30 66 30 4 1 23 21 44 46 169 201 116 495 -111 606 -54 26 -68 29 -164 29 -95 0 -111 -3 -167 -29 -152 -70 -244 -255 -213 -428 14 -74 25 -100 71 -164 112 -154 259 -223 416 -195 250 44 418 278 383 533 -21 149 -121 294 -243 352 -214 101 -445 60 -613 -108 -109 -109 -168 -240 -180 -401 -11 -138 40 -282 138 -392 l52 -58 -48 45 c-67 64 -111 133 -142 225 -24 68 -28 96 -27 185 0 91 5 117 32 194 154 441 647 592 957 295 35 -34 64 -57 64 -52 0 6 -29 38 -65 71 -175 164 -423 198 -634 87 -217 -114 -356 -329 -368 -570 -10 -184 40 -309 177 -446 135 -135 248 -192 409 -205 243 -20 487 106 636 328 l52 79 28 -37 c28 -37 28 -37 10 -70 -59 -111 -211 -250 -339 -313 -120 -59 -191 -75 -331 -76 -181 0 -319 47 -454 157 -169 136 -265 332 -264 538 1 321 206 595 528 706 69 24 95 28 190 28 93 -1 122 -5 190 -28 99 -34 158 -71 223 -140 75 -79 124 -186 148 -319 16 -91 6 -191 -30 -299 -12 -37 -19 -65 -15 -62 13 8 48 127 60 203 36 235 -104 510 -306 602 -226 102 -467 72 -691 -87 -273 -193 -388 -570 -263 -861 l18 -42 -29 -21 c-15 -11 -32 -20 -38 -20 -13 0 -48 84 -68 162 -22 82 -22 233 0 322 42 176 124 325 246 447 96 96 179 154 291 201 63 27 77 37 77 55 0 23 -9 29 -21 16 -4 -3 -2 -12 3 -18 8 -9 -5 -18 -47 -33 -166 -61 -357 -222 -447 -377 -147 -253 -174 -515 -76 -731 30 -66 89 -158 96 -151 3 3 -6 22 -21 42 -14 21 -25 41 -25 45 0 5 16 17 35 29 l35 20 16 -32 c31 -60 106 -148 173 -203 160 -133 379 -196 571 -164 41 7 83 13 92 14 10 1 20 5 24 8 3 4 12 4 20 1 8 -3 14 0 14 7 0 6 4 9 9 5 5 -3 12 -1 16 5 4 6 11 8 16 5 5 -4 9 -1 9 5 0 6 5 8 10 5 6 -3 10 -2 10 3 0 5 10 8 23 8 12 -1 21 4 20 11 -2 7 4 10 12 7 8 -3 19 3 27 15 7 12 18 21 24 21 7 0 14 7 18 15 3 8 12 12 20 9 10 -4 19 2 25 18 5 13 38 50 72 83 35 32 64 63 64 68 0 5 7 14 15 20 8 7 24 29 35 50 11 20 21 37 22 37 1 0 18 -10 39 -22 31 -18 42 -20 75 -11 22 6 39 9 39 7 0 -16 -74 -124 -85 -124 -8 0 -12 -6 -10 -12 7 -17 -71 -110 -136 -164 -58 -48 -180 -114 -244 -134 -65 -19 -68 -20 -63 -25 9 -9 114 27 188 66 155 80 235 168 377 414 45 78 76 163 71 197 -2 17 -15 26 -62 39 -35 11 -72 30 -91 49 -30 29 -32 36 -39 124 -16 236 -106 434 -261 572 l-65 59 68 80 c143 167 269 278 377 330 28 14 87 33 131 42 101 21 207 8 302 -37 36 -17 67 -28 70 -26 2 3 -16 15 -41 27 -44 22 -45 23 -30 46 9 13 13 26 10 30 -4 3 -12 -6 -18 -21 -8 -17 -18 -25 -28 -22 -75 23 -122 28 -199 23 -198 -12 -336 -101 -579 -374 -57 -64 -83 -87 -87 -76 -3 8 -11 11 -17 7 -19 -12 69 144 129 229 98 137 259 276 379 328 163 70 362 65 515 -12 61 -31 66 -37 46 -57 -7 -7 -8 -12 -2 -12 5 0 15 5 21 11 16 16 109 -93 153 -181 96 -191 99 -370 8 -556 -17 -35 -42 -77 -57 -94 l-26 -32 -28 22 c-27 21 -27 23 -11 41 20 22 22 20 -41 52 -28 14 -59 33 -70 43 -12 11 -19 18 -16 16 8 -4 51 41 51 55 0 8 7 16 15 19 8 4 12 10 9 15 -3 5 0 9 6 9 6 0 8 5 5 10 -3 6 -2 10 2 10 12 0 17 41 18 135 0 69 -4 88 -29 137 -26 52 -106 145 -106 123 0 -6 12 -21 27 -35 96 -91 126 -243 72 -357 -30 -62 -114 -135 -184 -158 l-57 -20 -40 45 c-60 70 -108 146 -130 208 -22 61 -29 177 -15 247 6 34 5 37 -5 20 -18 -30 -23 -177 -8 -233 7 -26 24 -69 38 -97 l24 -50 -25 23 c-14 13 -38 51 -53 85 -24 52 -29 75 -29 142 0 73 18 170 34 179 3 2 22 6 43 10 l36 7 -18 -58 c-16 -54 -36 -192 -25 -182 2 3 9 38 16 79 6 41 19 95 30 119 16 37 22 42 41 37 13 -3 30 -6 39 -6 15 0 13 -11 -13 -77 -59 -151 -46 -249 43 -347 28 -31 54 -56 58 -56 4 0 16 7 27 16 18 15 18 15 -3 4 -20 -9 -28 -5 -61 28 -92 92 -112 212 -57 345 15 38 34 71 42 74 19 7 88 -26 130 -61 96 -81 111 -256 30 -345 -14 -15 -17 -22 -7 -19 8 2 28 26 44 52 25 40 30 58 30 114 1 146 -93 251 -252 282 -161 32 -320 -19 -483 -155 l-59 -49 53 -45 c82 -71 135 -130 188 -211 50 -75 62 -86 33 -27 -31 60 -119 168 -185 225 l-65 57 53 44 54 44 68 -64 c45 -43 70 -75 75 -96 3 -17 34 -114 67 -215 85 -258 90 -283 94 -453 5 -185 -8 -268 -44 -273 -19 -3 -22 0 -17 14 4 9 9 45 11 78 l4 61 -14 -70 c-19 -94 -19 -95 11 -95 21 0 24 -3 19 -21 -9 -28 -45 -153 -45 -156 0 -2 3 -3 8 -3 4 0 18 38 31 85 23 85 23 85 56 85 18 0 40 3 49 6 13 5 16 -2 16 -35 0 -64 3 -65 332 -59 314 6 315 7 365 68 l22 27 128 -2 128 -2 3 -86 3 -86 -481 6 -480 6 0 -166 0 -167 130 0 131 0 -3 -121 -3 -120 -60 -25 c-58 -24 -66 -24 -272 -22 -246 3 -221 -6 -303 123 -32 51 -54 99 -62 137 l-12 57 -71 -68 c-265 -251 -648 -330 -929 -190 -67 33 -86 33 -30 0 138 -82 366 -105 553 -57 144 37 303 125 411 226 l58 55 12 -46 c6 -25 27 -70 46 -100 73 -110 79 -148 27 -189 -36 -28 -69 -25 -104 9 -39 40 -40 93 -1 134 25 27 25 29 4 17 -13 -6 -30 -27 -38 -47 -43 -101 81 -190 157 -114 16 16 29 39 29 50 0 21 1 21 33 4 26 -15 64 -18 223 -21 186 -4 192 -3 252 22 34 14 66 26 72 26 6 0 10 -33 10 -85 l0 -85 149 0 c82 0 161 4 176 10 14 5 36 12 48 14 31 6 300 137 293 143 -2 3 -64 -24 -138 -59 l-133 -64 3 65 4 66 114 1 c106 1 118 3 178 33 115 57 213 187 251 336 68 268 -86 575 -342 681 -52 21 -73 24 -205 24 -170 0 -228 15 -298 78 l-41 37 29 34 28 34 50 -18 c27 -10 54 -22 60 -26 6 -5 55 -13 110 -19 54 -6 107 -13 117 -15 62 -16 63 -17 36 -1 -14 8 -74 20 -134 26 -60 7 -118 18 -130 25 -11 7 -32 15 -47 19 -54 12 -27 23 70 29 110 5 208 35 300 89 82 48 210 179 262 268 50 85 120 277 120 330 0 30 4 37 30 47 57 22 57 85 -1 106 -20 8 -30 20 -34 42 -13 61 -57 190 -87 249 -93 186 -258 338 -428 396 -64 22 -212 35 -270 24z m256 -35 c266 -81 498 -395 520 -701 6 -76 5 -79 -13 -70 -25 14 -50 43 -62 72 -9 24 -10 24 -10 3 -1 -26 42 -79 70 -88 19 -6 20 -12 14 -58 -4 -29 -22 -94 -41 -146 -110 -309 -347 -500 -643 -518 l-94 -6 32 47 c165 239 140 561 -59 780 -28 30 -47 57 -43 59 4 3 27 8 49 12 26 4 51 16 65 33 l24 26 -29 -22 c-16 -12 -39 -22 -52 -22 -12 0 -34 -4 -48 -10 -22 -8 -37 -4 -89 24 -34 19 -79 39 -99 46 -21 6 -38 14 -38 16 0 3 7 19 16 37 l15 32 -20 -25 c-11 -14 -21 -30 -21 -37 0 -7 -7 -10 -15 -7 -12 5 -10 14 10 54 30 58 42 67 63 47 14 -15 19 -13 52 16 20 18 50 42 66 55 26 20 26 21 4 11 -14 -6 -44 -27 -68 -47 -39 -31 -45 -33 -59 -19 -14 13 -10 19 38 57 145 115 321 137 488 60 48 -22 60 -25 43 -11 -13 11 -48 29 -78 41 -210 78 -461 -13 -559 -202 -25 -49 -34 -58 -57 -58 l-27 0 15 53 c55 183 210 325 395 359 35 7 56 14 47 16 -10 2 -43 -2 -73 -8 -126 -26 -258 -123 -327 -241 -21 -35 -39 -67 -41 -72 -2 -6 -21 7 -42 27 l-40 36 30 57 c42 81 162 199 250 245 67 35 147 62 210 72 54 8 161 -4 231 -25z m-657 -423 c19 -22 -3 -82 -32 -90 -39 -10 -77 -7 -77 7 0 14 29 117 37 130 5 8 52 -22 72 -47z m1229 -272 c36 -25 27 -60 -20 -77 -16 -6 -18 0 -18 43 0 54 4 58 38 34z m-2330 -77 c4 -20 -25 -34 -40 -19 -15 15 -1 44 19 40 10 -2 19 -11 21 -21z m895 -122 c-18 -87 -12 -183 17 -250 14 -32 48 -76 96 -124 41 -41 72 -76 70 -78 -3 -3 7 -16 22 -29 l27 -23 -57 -1 c-65 0 -67 2 -125 91 -57 87 -93 188 -102 284 -7 64 -9 70 -10 30 l-1 -49 -60 59 c-33 33 -60 62 -60 65 0 13 188 105 196 96 1 0 -5 -32 -13 -71z m72 -475 c8 -16 24 -34 35 -40 24 -13 62 -78 88 -150 37 -102 38 -98 -5 -105 -61 -11 -67 -11 -69 0 0 6 -4 27 -8 48 -7 31 -5 41 10 53 18 15 18 15 -3 11 -15 -3 -23 0 -23 8 0 14 -42 158 -55 188 -13 30 13 19 30 -13z m414 -34 l53 -27 -23 -25 c-12 -13 -17 -24 -10 -24 6 0 25 -10 41 -21 l29 -22 -26 -33 c-14 -19 -29 -34 -34 -34 -4 0 -13 15 -20 34 -10 27 -25 39 -78 65 -36 18 -86 44 -110 58 l-43 25 57 23 c31 13 59 26 63 29 3 3 15 0 26 -8 12 -7 45 -25 75 -40z m-137 -67 l122 -61 -29 -23 c-32 -27 -140 -81 -178 -90 -23 -6 -27 -3 -35 27 -16 57 -52 140 -73 169 l-19 28 32 4 c18 2 39 5 46 5 7 1 67 -26 134 -59z m-1364 4 c-10 -2 -26 -2 -35 0 -10 3 -2 5 17 5 19 0 27 -2 18 -5z m-58 -7 c0 -9 -50 -12 -62 -5 -8 6 1 9 25 9 20 0 37 -2 37 -4z m206 -30 c64 -30 127 -94 162 -166 23 -48 26 -68 27 -150 0 -86 -3 -101 -31 -161 -37 -78 -85 -129 -157 -166 -44 -23 -64 -28 -132 -28 -67 0 -89 4 -136 28 -157 77 -240 280 -179 440 55 146 168 225 325 226 54 1 82 -5 121 -23z m1359 -77 c15 -29 15 -32 -2 -45 -58 -44 -188 -104 -228 -104 -7 0 -15 14 -17 31 -4 25 -1 33 14 37 32 8 159 71 185 92 14 11 27 20 29 20 2 0 11 -14 19 -31z m64 -70 l34 -31 -32 -25 c-41 -33 -61 -72 -61 -125 -1 -80 -43 -108 -160 -108 l-85 0 0 97 0 97 49 12 c60 15 169 69 192 95 22 24 23 24 63 -12z m-319 -66 c0 -17 -6 -23 -22 -23 -13 0 -40 -3 -61 -7 -38 -6 -39 -5 -35 23 3 25 9 29 53 39 54 12 65 7 65 -32z m420 5 c48 -19 74 -22 211 -23 l155 0 76 -37 c182 -91 318 -312 318 -517 -1 -181 -109 -377 -252 -456 l-53 -30 -312 -3 -313 -3 0 60 c0 34 2 61 5 61 3 0 19 -10 35 -22 23 -16 43 -21 90 -21 84 1 110 20 110 78 l0 45 142 0 c123 0 147 3 185 21 94 45 123 133 123 365 l0 164 -180 0 -180 0 0 55 0 55 97 0 c53 0 93 3 89 7 -4 5 -67 8 -139 8 -73 0 -117 -1 -99 -3 l32 -3 0 -60 0 -59 -262 -1 c-156 0 -255 -4 -243 -9 11 -5 131 -9 267 -9 l248 -1 -4 -22 c-3 -13 -5 -29 -5 -35 -1 -10 -67 -13 -295 -13 -322 0 -306 -3 -306 61 0 28 -1 29 -51 29 -48 0 -51 1 -45 23 3 12 6 30 6 40 0 14 10 17 65 17 l65 0 2 -52 2 -53 3 53 4 52 94 0 c90 0 96 1 128 30 31 27 35 37 39 90 4 54 8 65 43 100 22 22 42 40 45 40 3 0 30 -10 60 -22z m-420 -133 l0 -95 -61 0 -60 0 3 88 3 88 40 3 c22 1 41 4 44 7 2 2 10 4 18 4 10 0 13 -22 13 -95z m640 -214 c0 -5 -13 -19 -30 -31 l-30 -21 0 30 c0 28 3 31 30 31 17 0 30 -4 30 -9z m-1360 -135 c0 -2 -8 -10 -17 -17 -16 -13 -17 -12 -4 4 13 16 21 21 21 13z m1370 -146 l0 -110 -204 0 c-218 0 -216 1 -216 -51 0 -18 -8 -19 -125 -19 l-125 0 0 145 0 145 335 0 335 0 0 -110z m277 31 c-9 -120 -49 -206 -110 -238 -25 -13 -68 -18 -184 -21 l-153 -4 0 -43 c0 -55 -16 -68 -91 -73 -51 -4 -65 -1 -99 22 -38 25 -40 29 -40 76 0 45 2 50 23 51 l22 2 -22 4 c-19 4 -23 11 -23 39 l0 34 205 0 205 0 0 115 0 115 136 0 137 0 -6 -79z m-2482 -89 c-3 -3 -16 5 -28 17 l-22 23 28 -17 c15 -10 25 -20 22 -23z m2008 -402 l158 0 -3 -67 -3 -68 -50 -12 c-27 -6 -107 -12 -177 -12 l-128 -1 0 86 c0 85 0 86 23 80 12 -3 93 -6 180 -6z" />
    <path
      d="M3390 4061 l0 -58 50 -6 c28 -3 78 -18 110 -33 33 -15 63 -25 65 -22 8 8 -98 56 -140 63 -75 13 -75 13 -75 61 0 43 1 44 28 39 70 -15 168 -49 179 -62 7 -9 13 -11 18 -4 8 13 -61 44 -144 66 -91 23 -91 24 -91 -44z" />
    <path d="M3490 4042 c0 -7 98 -49 135 -58 29 -7 -50 35 -96 51 -22 8 -39 11 -39 7z" />
    <path
      d="M3660 4014 c1 -8 70 -64 107 -87 8 -5 22 -2 35 7 12 9 18 16 12 16 -5 0 -15 -5 -21 -11 -9 -9 -24 -2 -60 27 -69 55 -73 57 -73 48z" />
    <path
      d="M3390 3960 c0 -4 18 -10 40 -13 108 -14 247 -115 352 -255 122 -162 147 -355 69 -527 -88 -193 -234 -320 -413 -359 -45 -10 -54 -14 -32 -15 46 -1 152 34 206 68 111 71 208 190 262 325 69 173 33 370 -97 541 l-46 60 21 23 c12 12 25 22 30 22 24 0 148 -203 172 -282 5 -15 9 -18 13 -10 8 20 -68 169 -124 243 l-51 67 22 23 c12 13 3 8 -22 -10 -23 -18 -48 -41 -55 -52 -13 -18 -17 -16 -73 33 -32 28 -86 64 -119 80 -61 28 -155 51 -155 38z" />
    <path d="M3680 3914 c8 -8 23 -20 34 -26 19 -10 18 -8 -3 16 -26 27 -53 37 -31 10z" />
    <path
      d="M3608 3807 c-15 -10 -10 -18 41 -67 41 -41 70 -82 104 -150 26 -52 47 -88 47 -80 0 34 -79 169 -133 226 -40 43 -54 65 -45 70 15 9 100 -83 145 -158 18 -29 44 -87 58 -127 23 -64 26 -88 23 -173 -3 -107 6 -132 15 -40 8 66 -5 169 -27 230 -25 70 -94 177 -148 231 -55 55 -55 55 -80 38z" />
    <path
      d="M3450 3740 c0 -6 7 -10 15 -10 30 0 112 -49 148 -89 126 -139 135 -335 22 -470 -15 -17 -32 -31 -39 -31 -7 0 -19 -15 -27 -32 -8 -19 -37 -49 -68 -70 -30 -21 -51 -38 -47 -38 14 0 51 23 92 56 26 21 45 29 51 23 6 -6 16 -4 29 5 15 12 17 18 8 33 -9 15 -6 25 17 55 54 68 73 124 74 218 0 75 -4 93 -31 150 -35 74 -79 129 -128 160 -44 27 -116 52 -116 40z m162 -642 c-15 -15 -26 -4 -18 18 5 13 9 15 18 6 9 -9 9 -15 0 -24z" />
    <path
      d="M3297 3712 c-22 -24 -21 -65 1 -85 40 -36 102 -9 102 45 0 51 -69 78 -103 40z m75 -9 c23 -21 23 -45 -2 -68 -27 -24 -68 -13 -76 22 -5 20 -2 31 16 45 27 22 38 23 62 1z" />
    <path d="M3540 3666 c0 -2 8 -10 18 -17 15 -13 16 -12 3 4 -13 16 -21 21 -21 13z" />
    <path d="M3646 3500 c5 -14 9 -64 9 -112 -1 -48 0 -86 2 -84 2 1 7 23 12 49 9 51 -2 144 -20 161 -8 8 -9 5 -3 -14z" />
    <path
      d="M3420 3435 c-20 -25 -8 -50 25 -50 21 0 31 5 33 18 4 21 -14 47 -33 47 -7 0 -18 -7 -25 -15z m46 -34 c-9 -14 -33 -14 -41 -1 -4 6 -1 18 6 26 11 13 14 13 27 0 8 -8 11 -19 8 -25z" />
    <path
      d="M3983 3292 c-46 -31 -55 -43 -69 -91 -9 -31 -21 -62 -27 -70 -10 -11 -9 -13 3 -9 8 2 24 35 35 71 11 37 25 67 31 67 6 0 28 16 50 35 49 43 43 42 -23 -3z" />
    <path d="M3535 3232 c-25 -30 -26 -33 -8 -23 21 10 49 49 41 55 -2 2 -16 -13 -33 -32z" />
    <path d="M3836 3215 c-3 -8 -1 -15 4 -15 6 0 10 7 10 15 0 8 -2 15 -4 15 -2 0 -6 -7 -10 -15z" />
    <path d="M3816 3163 c-6 -14 -5 -15 5 -6 7 7 10 15 7 18 -3 3 -9 -2 -12 -12z" />
    <path d="M3525 2870 c-3 -5 -1 -10 4 -10 6 0 11 5 11 10 0 6 -2 10 -4 10 -3 0 -8 -4 -11 -10z" />
    <path d="M3440 2829 c0 -5 5 -7 10 -4 6 3 10 8 10 11 0 2 -4 4 -10 4 -5 0 -10 -5 -10 -11z" />
    <path
      d="M1585 2561 c-153 -39 -237 -220 -166 -359 44 -85 136 -141 234 -142 33 0 57 4 57 11 0 5 4 7 10 4 13 -8 80 28 112 62 90 95 89 275 -3 360 -53 49 -176 81 -244 64z m181 -42 c60 -31 101 -86 113 -155 11 -57 0 -124 -27 -164 -9 -14 -16 -28 -15 -31 1 -3 -14 -21 -35 -40 -20 -19 -30 -26 -23 -16 17 22 10 22 -33 -4 -45 -26 -131 -35 -181 -19 -50 16 -114 75 -136 125 -21 46 -24 120 -7 176 15 52 72 117 122 141 58 27 156 21 222 -13z" />
    <path
      d="M1583 2478 c-37 -18 -26 -28 12 -12 85 35 176 -37 177 -141 2 -85 -67 -150 -149 -142 -53 6 -92 31 -106 68 -11 29 -27 39 -27 18 0 -25 46 -73 87 -91 101 -45 213 29 213 139 0 47 -36 120 -71 146 -32 23 -105 31 -136 15z" />
    <path
      d="M1602 2374 c-27 -19 -29 -64 -4 -87 37 -34 112 -10 112 35 0 25 -40 68 -64 68 -12 0 -32 -7 -44 -16z m73 -14 c40 -45 -20 -105 -65 -65 -26 24 -25 50 2 69 29 21 41 20 63 -4z" />
    <path d="M1804 2148 l-19 -23 23 19 c21 18 27 26 19 26 -2 0 -12 -10 -23 -22z" />
    <path
      d="M3915 3920 c-9 -15 14 -40 31 -33 22 8 18 43 -5 43 -11 0 -23 -5 -26 -10z m35 -10 c0 -5 -4 -10 -10 -10 -5 0 -10 5 -10 10 0 6 5 10 10 10 6 0 10 -4 10 -10z" />
    <path
      d="M2617 3864 c-15 -16 -7 -53 14 -59 30 -10 58 19 43 43 -12 18 -45 28 -57 16z m40 -20 c9 -23 -11 -38 -26 -20 -13 16 -7 36 10 36 5 0 12 -7 16 -16z" />
    <path d="M2935 3570 c-10 -11 -13 -20 -8 -20 13 0 38 29 31 35 -3 3 -13 -4 -23 -15z" />
    <path
      d="M1095 3536 c-14 -14 -25 -31 -25 -39 0 -25 41 -67 64 -67 47 0 78 73 45 105 -29 27 -57 27 -84 1z m73 -8 c33 -33 -10 -99 -49 -77 -50 26 -43 89 9 89 16 0 33 -5 40 -12z" />
    <path d="M2013 3513 c76 -2 198 -2 270 0 73 1 11 3 -138 3 -148 0 -208 -2 -132 -3z" />
    <path
      d="M1385 3445 c-30 -29 -32 -64 -7 -96 23 -27 75 -30 99 -6 26 25 22 86 -6 108 -31 26 -57 24 -86 -6z m83 -7 c7 -7 12 -26 12 -43 0 -38 -16 -55 -51 -55 -28 0 -59 31 -59 59 0 40 69 68 98 39z" />
    <path
      d="M3103 3396 c109 -106 158 -217 160 -361 1 -67 -3 -89 -26 -135 -14 -30 -34 -66 -44 -80 l-17 -25 26 23 c38 34 70 116 76 192 5 75 -14 161 -54 246 -27 56 -121 167 -158 185 -12 6 5 -14 37 -45z" />
    <path d="M2910 3364 c0 -8 5 -12 10 -9 6 3 10 10 10 16 0 5 -4 9 -10 9 -5 0 -10 -7 -10 -16z" />
    <path d="M2818 3283 c7 -3 16 -2 19 1 4 3 -2 6 -13 5 -11 0 -14 -3 -6 -6z" />
    <path d="M2955 3219 c20 -18 43 -45 51 -61 9 -17 18 -28 20 -25 10 9 -25 64 -56 91 -45 37 -58 32 -15 -5z" />
    <path
      d="M3070 3134 c23 -59 5 -160 -38 -208 -13 -14 -14 -18 -2 -14 28 9 60 88 60 147 0 63 -8 101 -21 101 -5 0 -4 -12 1 -26z" />
    <path
      d="M963 3034 c-15 -39 38 -67 60 -32 8 12 7 21 -2 32 -17 21 -50 20 -58 0z m43 -9 c3 -8 3 -19 -1 -25 -10 -16 -35 7 -28 26 7 18 22 18 29 -1z" />
    <path
      d="M4092 2968 c-25 -25 0 -64 32 -52 21 8 21 50 0 58 -20 8 -18 8 -32 -6z m38 -24 c0 -8 -9 -14 -20 -14 -22 0 -26 10 -8 28 13 13 28 7 28 -14z" />
    <path
      d="M1001 2864 c-34 -41 -61 -84 -61 -94 0 -11 -15 -43 -33 -72 -71 -112 -117 -271 -115 -393 l1 -80 8 95 c11 137 72 315 141 412 11 16 17 32 13 38 -3 5 21 44 55 85 33 42 60 78 60 81 0 12 -13 -2 -69 -72z" />
    <path
      d="M3987 2914 c-3 -3 -3 -13 0 -22 5 -14 3 -14 -15 2 -12 11 -22 14 -22 9 0 -6 37 -50 83 -99 125 -133 176 -216 217 -352 18 -60 22 -91 18 -172 -2 -54 0 -96 4 -94 12 8 10 186 -3 246 -13 64 -65 179 -108 242 -17 25 -63 80 -102 121 -64 69 -69 78 -53 89 9 7 14 18 10 24 -8 13 -19 15 -29 6z" />
    <path
      d="M835 2896 c-21 -15 -16 -55 8 -70 25 -15 62 27 47 54 -13 24 -35 31 -55 16z m43 -26 c5 -13 3 -13 -12 -1 -15 13 -17 12 -12 -12 3 -19 1 -24 -10 -20 -15 5 -19 35 -7 47 11 11 36 3 41 -14z" />
    <path
      d="M2488 2868 c72 -105 128 -262 139 -384 3 -41 10 -74 15 -74 23 0 -28 238 -71 333 -32 72 -91 167 -104 167 -4 0 5 -19 21 -42z" />
    <path d="M2155 2790 c10 -11 20 -20 23 -20 3 0 -3 9 -13 20 -10 11 -20 20 -23 20 -3 0 3 -9 13 -20z" />
    <path
      d="M3630 2495 c-18 -21 -5 -45 25 -45 20 0 25 5 25 24 0 13 -7 27 -16 30 -21 8 -20 8 -34 -9z m40 -21 c0 -9 -7 -14 -17 -12 -25 5 -28 28 -4 28 12 0 21 -6 21 -16z" />
    <path
      d="M452 2394 c-43 -30 -18 -93 33 -80 25 6 43 45 30 65 -14 24 -42 30 -63 15z m47 -18 c17 -20 2 -46 -25 -46 -26 0 -40 20 -30 45 7 19 40 20 55 1z" />
    <path d="M2550 2380 c-57 -6 -51 -7 53 -8 64 -1 117 2 117 6 0 10 -82 11 -170 2z" />
    <path
      d="M2081 2284 c-14 -96 -35 -144 -95 -217 -25 -31 -42 -57 -37 -57 16 0 110 133 126 179 15 45 32 171 23 171 -3 0 -11 -34 -17 -76z" />
    <path
      d="M2040 2305 c0 -44 -28 -118 -70 -187 -25 -40 -27 -48 -11 -34 35 32 84 142 89 202 2 30 2 54 -2 54 -3 0 -6 -16 -6 -35z" />
    <path
      d="M774 2190 c3 -137 27 -233 88 -355 80 -159 222 -335 329 -406 44 -30 49 -37 44 -63 -3 -16 -5 -53 -5 -82 0 -85 -14 -94 -154 -94 -66 0 -117 -4 -121 -10 -10 -16 199 -13 240 4 39 16 41 24 49 141 7 95 21 151 41 163 12 6 1 18 -45 50 -33 24 -59 46 -57 50 1 5 -37 50 -85 101 -93 99 -115 108 -47 19 59 -75 116 -134 171 -174 l47 -35 -16 -44 -15 -45 -44 32 c-71 51 -177 167 -238 261 -113 172 -164 318 -177 502 l-7 110 2 -125z m361 -551 c28 -27 43 -47 34 -44 -13 5 -96 95 -87 95 2 0 26 -23 53 -51z" />
    <path
      d="M2443 2148 c-29 -14 -56 -73 -49 -104 22 -87 152 -82 171 7 17 75 -53 131 -122 97z m83 -16 c40 -26 38 -89 -3 -122 -33 -25 -54 -25 -87 1 -51 40 -18 129 47 129 18 0 37 -4 43 -8z" />
    <path
      d="M2708 1807 c2 -40 2 -91 0 -112 l-3 -40 -36 50 c-20 28 -50 76 -67 108 l-31 58 -34 -53 c-18 -29 -53 -75 -76 -102 -23 -26 -39 -51 -36 -55 9 -8 56 48 106 122 l38 58 19 -38 c11 -21 41 -67 67 -102 47 -63 48 -67 53 -153 l5 -88 155 0 c85 0 153 2 150 6 -5 4 -115 10 -250 13 l-48 1 0 200 c0 110 -3 200 -7 200 -5 0 -7 -33 -5 -73z" />
    <path d="M1350 1510 c0 -5 7 -10 16 -10 8 0 12 5 9 10 -3 6 -10 10 -16 10 -5 0 -9 -4 -9 -10z" />
    <path
      d="M4031 1352 c-11 -22 3 -42 29 -42 9 0 21 5 28 12 15 15 -3 48 -28 48 -11 0 -24 -8 -29 -18z m44 -13 c0 -7 -8 -15 -17 -17 -18 -3 -25 18 -11 32 10 10 28 1 28 -15z" />
    <path
      d="M1707 1244 c-12 -12 -8 -51 7 -63 24 -20 58 4 54 37 -2 20 -9 28 -28 30 -14 2 -29 0 -33 -4z m42 -13 c19 -12 6 -41 -19 -41 -13 0 -20 7 -20 18 0 31 14 39 39 23z" />
    <path
      d="M995 1128 c-48 -28 -60 -87 -25 -131 44 -55 117 -41 146 29 l14 34 511 0 c280 0 508 4 505 8 -3 5 -234 8 -513 8 l-508 -2 -31 33 c-33 35 -64 41 -99 21z m94 -34 c37 -47 4 -114 -55 -114 -38 0 -74 38 -74 76 0 61 90 88 129 38z" />
  </g>
</svg>